<svg id="svg" version="1.1" width="400" height="181.98614318706697" viewBox="0 0 400 181.98614318706697" xmlns="http://www.w3.org/2000/svg" xmlns:xlink="http://www.w3.org/1999/xlink" ><g id="svgg"><path id="path0" d="M103.960 66.849 C 96.870 68.016,92.399 73.179,92.399 80.200 C 92.399 83.019,92.318 83.330,91.680 82.964 C 91.142 82.655,85.011 82.674,83.933 82.988 C 81.676 83.645,81.001 83.898,79.627 84.599 C 78.445 85.202,78.082 85.316,77.874 85.147 C 77.606 84.928,75.707 82.593,74.741 81.293 C 73.231 79.261,73.388 79.280,71.384 80.880 C 69.671 82.248,69.586 81.874,72.412 85.389 C 73.499 86.741,74.947 88.543,75.630 89.395 C 77.288 91.461,77.151 91.427,78.701 90.151 C 80.871 88.364,82.602 87.592,85.510 87.116 C 89.538 86.455,91.970 87.153,96.677 90.321 C 99.202 92.020,100.868 92.934,101.051 92.721 C 101.117 92.644,101.274 92.294,101.400 91.944 C 101.527 91.593,101.697 91.142,101.779 90.942 C 101.860 90.742,102.008 90.332,102.106 90.032 C 102.204 89.731,102.339 89.351,102.406 89.186 C 102.499 88.956,102.299 88.775,101.539 88.404 C 100.996 88.138,99.987 87.368,99.297 86.694 C 98.156 85.578,97.871 85.165,97.260 83.751 C 92.891 73.622,107.540 66.050,113.375 75.421 C 114.554 77.315,115.203 82.230,114.382 83.051 C 114.258 83.175,114.156 83.435,114.156 83.629 C 114.156 84.248,112.682 86.771,111.489 88.195 C 110.471 89.409,110.332 89.668,110.326 90.350 C 110.272 97.673,106.242 103.315,98.771 106.528 C 95.404 107.976,89.430 107.547,85.527 105.576 C 81.732 103.661,77.014 98.044,77.014 95.442 C 77.014 95.260,76.938 95.034,76.845 94.939 C 76.752 94.843,76.650 94.506,76.617 94.189 C 76.569 93.711,75.667 92.695,71.363 88.272 C 68.505 85.334,65.795 82.530,65.340 82.040 C 64.720 81.372,64.443 81.190,64.236 81.312 C 63.753 81.596,61.356 83.824,61.356 83.988 C 61.356 84.075,63.466 86.332,66.045 89.004 C 73.089 96.302,72.691 95.835,73.193 97.406 C 74.754 102.290,78.596 106.719,83.552 109.346 L 85.298 110.272 85.398 114.353 C 85.453 116.598,85.514 118.455,85.535 118.480 C 85.555 118.505,86.464 118.525,87.554 118.525 C 89.954 118.525,89.759 118.849,89.759 114.880 C 89.759 111.281,89.498 111.613,92.217 111.761 L 94.401 111.880 94.492 114.065 L 94.584 116.249 96.572 116.301 C 98.995 116.365,98.856 116.538,98.859 113.467 C 98.862 111.325,98.898 111.038,99.181 110.948 C 103.886 109.461,108.193 106.193,110.913 102.048 C 112.076 100.276,113.609 96.911,113.609 96.131 C 113.609 95.917,113.686 95.600,113.780 95.425 C 113.873 95.250,114.071 94.238,114.219 93.177 C 114.417 91.757,114.582 91.153,114.844 90.891 C 116.181 89.554,117.465 87.356,118.270 85.025 C 118.667 83.876,119.008 83.197,119.288 83.001 C 119.519 82.839,120.548 82.151,121.575 81.472 C 122.601 80.794,123.441 80.218,123.441 80.194 C 123.441 80.170,122.379 79.465,121.080 78.628 C 119.782 77.790,118.717 76.995,118.713 76.860 C 118.697 76.207,117.328 73.478,116.323 72.096 C 113.949 68.834,109.083 66.425,105.341 66.660 C 105.132 66.673,104.511 66.758,103.960 66.849 M167.683 79.749 L 167.683 85.947 169.914 85.895 L 172.144 85.844 172.193 82.157 L 172.242 78.471 174.586 78.471 C 176.555 78.471,176.947 78.517,177.040 78.759 C 177.185 79.135,177.185 102.567,177.040 102.944 C 176.947 103.186,176.550 103.232,174.528 103.232 C 171.546 103.232,171.689 103.102,171.689 105.817 L 171.689 107.965 179.796 107.965 L 187.903 107.965 187.853 105.644 L 187.802 103.323 185.116 103.272 L 182.431 103.222 182.431 90.846 L 182.431 78.471 184.794 78.471 L 187.157 78.471 187.206 82.157 L 187.255 85.844 189.622 85.844 L 191.989 85.844 191.989 79.745 L 191.989 73.646 179.836 73.599 L 167.683 73.552 167.683 79.749 M346.594 73.676 C 346.527 73.743,346.472 81.485,346.472 90.882 L 346.472 107.965 349.215 107.965 L 351.957 107.965 351.900 104.241 L 351.843 100.517 352.930 99.416 C 354.346 97.982,354.489 98.001,355.940 99.804 C 356.591 100.613,357.205 101.367,357.305 101.480 C 357.698 101.920,358.610 103.015,359.217 103.771 C 359.568 104.208,359.936 104.656,360.036 104.766 C 360.453 105.222,361.534 106.500,362.102 107.207 L 362.710 107.965 366.072 107.965 L 369.435 107.965 368.650 107.014 C 368.218 106.491,367.783 105.971,367.683 105.860 C 367.583 105.749,366.838 104.928,366.027 104.035 C 365.216 103.143,364.273 102.085,363.933 101.684 C 363.593 101.284,362.972 100.587,362.554 100.137 C 361.730 99.249,361.248 98.706,360.071 97.340 C 359.651 96.853,359.001 96.126,358.625 95.724 C 357.667 94.699,357.400 95.066,363.405 89.170 C 366.409 86.220,368.867 83.743,368.867 83.666 C 368.867 83.588,367.299 83.558,365.384 83.600 L 361.901 83.675 358.784 86.862 C 357.069 88.616,354.895 90.883,353.953 91.900 C 353.010 92.917,352.170 93.706,352.087 93.655 C 352.003 93.603,351.933 89.244,351.932 83.967 C 351.931 78.691,351.880 74.190,351.820 73.964 C 351.710 73.556,346.976 73.294,346.594 73.676 M105.915 75.898 C 102.298 76.724,103.052 82.203,106.782 82.203 C 110.675 82.203,111.339 76.994,107.584 75.917 C 106.915 75.725,106.683 75.722,105.915 75.898 M207.647 83.202 C 206.846 83.263,206.011 83.411,205.793 83.532 C 205.574 83.652,205.232 83.751,205.032 83.751 C 204.832 83.751,204.128 84.033,203.466 84.378 C 193.501 89.572,194.915 104.828,205.644 107.868 C 206.245 108.038,206.974 108.252,207.264 108.344 C 209.698 109.115,215.674 108.117,218.207 106.517 C 218.607 106.264,218.976 106.013,219.026 105.960 C 219.076 105.906,219.461 105.595,219.881 105.268 L 220.645 104.673 219.466 103.001 C 218.025 100.956,217.981 100.930,217.194 101.607 C 216.642 102.083,215.066 102.934,214.019 103.321 C 209.016 105.174,202.962 102.853,202.200 98.790 C 202.004 97.745,201.692 97.776,212.530 97.772 L 222.510 97.770 222.431 96.086 C 222.388 95.159,222.267 94.074,222.163 93.673 C 222.059 93.273,221.865 92.515,221.731 91.989 C 221.598 91.463,221.426 91.033,221.350 91.033 C 221.273 91.033,221.211 90.931,221.211 90.806 C 221.211 88.866,215.942 83.769,213.914 83.748 C 213.772 83.746,213.327 83.634,212.927 83.499 C 212.023 83.192,209.575 83.055,207.647 83.202 M246.063 83.191 C 242.676 83.491,240.237 85.126,238.573 88.211 C 237.962 89.343,237.873 89.125,237.819 86.352 L 237.769 83.765 237.182 83.660 C 236.859 83.601,234.424 83.578,231.771 83.607 L 226.946 83.660 226.895 85.890 L 226.844 88.120 229.483 88.120 C 231.906 88.120,232.137 88.149,232.310 88.472 C 232.533 88.888,232.572 102.653,232.352 102.999 C 232.254 103.153,231.404 103.237,229.578 103.272 L 226.946 103.323 226.895 105.644 L 226.844 107.965 235.042 107.965 L 243.241 107.965 243.241 105.817 C 243.241 103.095,243.396 103.232,240.308 103.232 L 237.813 103.232 237.679 101.457 C 237.069 93.327,238.851 89.749,244.191 88.382 C 245.544 88.036,248.560 88.087,248.936 88.462 C 249.048 88.575,249.323 88.666,249.548 88.666 C 249.772 88.666,250.006 88.748,250.068 88.848 C 250.298 89.220,250.673 89.011,250.967 88.348 C 251.133 87.972,251.347 87.523,251.443 87.349 C 251.538 87.175,251.616 86.911,251.616 86.763 C 251.616 86.523,251.834 85.949,252.390 84.724 C 252.908 83.585,249.885 82.853,246.063 83.191 M266.818 83.198 C 266.017 83.261,265.183 83.411,264.964 83.532 C 264.745 83.652,264.401 83.751,264.199 83.751 C 263.811 83.751,260.926 85.339,260.452 85.813 C 260.300 85.965,259.990 86.239,259.763 86.422 C 259.261 86.828,257.806 88.652,257.806 88.876 C 257.806 88.965,257.601 89.362,257.351 89.759 C 257.101 90.155,256.896 90.605,256.896 90.759 C 256.896 90.913,256.817 91.180,256.722 91.354 C 255.008 94.465,256.116 100.808,258.940 104.065 C 262.077 107.682,268.300 109.486,273.100 108.170 C 273.550 108.046,274.247 107.858,274.647 107.753 C 276.196 107.344,278.613 105.940,279.523 104.920 C 279.845 104.559,279.467 103.828,278.206 102.375 C 278.101 102.254,278.015 102.103,278.015 102.039 C 278.015 101.228,277.095 101.033,276.377 101.692 C 275.831 102.193,273.864 103.232,273.460 103.232 C 273.302 103.232,273.095 103.300,273.000 103.384 C 272.438 103.880,268.504 104.121,266.958 103.754 C 264.276 103.117,262.023 101.093,261.353 98.717 C 261.081 97.750,260.860 97.770,271.748 97.770 L 281.821 97.770 281.728 96.177 C 281.614 94.221,281.051 91.952,280.226 90.123 C 278.964 87.327,274.973 83.751,273.114 83.751 C 272.930 83.751,272.504 83.639,272.166 83.502 C 271.410 83.195,268.769 83.045,266.818 83.198 M295.281 83.156 C 294.813 83.193,294.332 83.342,294.212 83.487 C 294.091 83.632,293.883 83.751,293.748 83.751 C 293.443 83.751,292.035 85.589,292.035 85.987 C 292.035 86.390,291.664 86.582,291.471 86.277 C 291.383 86.139,291.311 85.471,291.309 84.792 L 291.306 83.559 288.712 83.609 L 286.117 83.660 286.071 95.812 L 286.024 107.965 288.657 107.965 L 291.290 107.965 291.353 98.999 C 291.420 89.344,291.430 89.242,292.397 88.213 C 293.241 87.315,295.312 87.800,295.312 88.895 C 295.312 89.058,295.394 89.242,295.494 89.304 C 295.611 89.376,295.676 92.704,295.676 98.691 L 295.676 107.965 298.225 107.965 L 300.774 107.965 300.774 100.920 C 300.774 94.183,300.987 89.866,301.339 89.495 C 301.428 89.400,301.502 89.190,301.502 89.028 C 301.502 87.942,303.763 87.299,304.535 88.166 C 305.275 88.997,305.325 89.684,305.325 99.020 L 305.325 107.965 307.891 107.965 L 310.456 107.965 310.393 97.633 C 310.349 90.334,310.269 87.194,310.122 86.937 C 310.008 86.736,309.772 86.227,309.597 85.804 C 308.863 84.024,307.418 83.149,305.233 83.159 C 303.190 83.168,302.325 83.703,300.727 85.942 C 300.364 86.450,300.519 86.582,299.353 84.774 C 298.493 83.442,297.363 82.992,295.281 83.156 M325.990 83.200 C 325.189 83.262,324.354 83.411,324.136 83.532 C 323.917 83.652,323.589 83.753,323.408 83.755 C 322.853 83.763,320.493 85.067,319.463 85.935 C 314.346 90.248,313.736 98.930,318.161 104.460 C 318.989 105.494,321.557 107.152,323.259 107.749 C 328.201 109.485,334.518 108.113,337.463 104.663 C 338.713 103.200,339.916 101.135,339.917 100.453 C 339.918 100.276,339.999 99.989,340.098 99.815 C 341.452 97.437,340.328 90.464,338.154 87.756 C 336.665 85.901,333.611 83.751,332.467 83.751 C 332.284 83.751,331.857 83.638,331.520 83.502 C 330.773 83.199,327.972 83.046,325.990 83.200 M212.275 88.115 C 214.127 88.792,215.357 89.831,216.178 91.414 C 217.174 93.334,217.547 93.241,209.103 93.178 L 202.367 93.127 202.306 92.696 C 202.272 92.459,202.334 92.177,202.442 92.068 C 202.551 91.960,202.640 91.764,202.640 91.634 C 202.640 90.736,204.814 88.797,206.567 88.131 C 207.874 87.635,210.939 87.627,212.275 88.115 M270.991 87.915 C 271.045 88.002,271.339 88.123,271.644 88.184 C 273.757 88.607,276.906 92.584,275.543 93.108 C 274.939 93.339,262.079 93.230,261.759 92.990 C 261.205 92.577,261.942 91.017,263.306 89.718 C 264.116 88.947,264.725 88.577,266.181 87.970 C 266.734 87.740,270.854 87.692,270.991 87.915 M330.407 88.032 C 332.547 88.777,335.002 91.304,335.002 92.761 C 335.002 92.972,335.096 93.239,335.210 93.353 C 335.344 93.487,335.418 94.378,335.418 95.858 C 335.418 97.338,335.344 98.229,335.210 98.363 C 335.096 98.477,335.002 98.701,335.002 98.860 C 335.002 101.088,331.505 103.680,328.193 103.906 C 325.493 104.091,321.347 101.808,321.347 100.136 C 321.347 99.969,321.289 99.775,321.218 99.703 C 320.420 98.905,320.143 94.723,320.770 92.945 C 321.569 90.680,322.599 89.371,324.194 88.592 C 324.781 88.305,325.385 88.004,325.535 87.924 C 326.024 87.662,329.571 87.740,330.407 88.032 M85.389 90.855 C 84.974 91.065,83.930 91.525,83.068 91.878 C 81.997 92.317,81.993 92.538,83.022 94.219 C 85.145 97.687,89.843 100.483,93.218 100.286 L 94.219 100.228 94.271 98.267 C 94.310 96.791,94.265 96.291,94.089 96.242 C 93.960 96.206,93.329 96.079,92.685 95.958 C 90.275 95.507,87.974 93.950,86.756 91.946 C 86.077 90.828,85.832 90.632,85.389 90.855 " stroke="none" fill="#665675" fill-rule="evenodd"></path><path id="path1" d="M34.859 34.456 C 34.811 34.581,34.793 60.328,34.819 91.670 L 34.866 148.657 92.080 148.703 L 149.294 148.749 149.294 91.489 L 149.294 34.228 92.120 34.228 C 46.548 34.228,34.928 34.275,34.859 34.456 M108.421 66.636 C 108.482 66.736,108.808 66.818,109.145 66.818 C 109.481 66.818,109.989 66.938,110.272 67.085 C 110.555 67.231,111.136 67.493,111.561 67.666 C 111.987 67.839,112.335 68.047,112.335 68.128 C 112.335 68.209,112.458 68.275,112.608 68.275 C 112.758 68.275,112.881 68.357,112.881 68.457 C 112.881 68.557,112.986 68.639,113.115 68.639 C 113.777 68.639,116.360 71.195,117.176 72.658 C 117.367 73.001,117.573 73.323,117.634 73.373 C 117.694 73.423,117.883 73.792,118.054 74.192 C 118.225 74.593,118.483 75.152,118.627 75.436 C 118.772 75.719,118.889 76.152,118.889 76.397 C 118.889 76.656,119.023 76.893,119.208 76.961 C 119.383 77.025,119.780 77.269,120.090 77.501 C 120.400 77.734,120.748 77.924,120.864 77.924 C 120.980 77.924,121.074 78.003,121.074 78.098 C 121.074 78.193,121.368 78.411,121.728 78.582 C 122.088 78.752,122.424 79.002,122.476 79.137 C 122.527 79.271,122.699 79.381,122.857 79.381 C 123.015 79.381,123.335 79.560,123.567 79.778 L 123.989 80.175 123.592 80.597 C 123.374 80.829,123.107 81.020,122.998 81.020 C 122.889 81.020,122.579 81.224,122.309 81.475 C 122.039 81.725,121.692 81.930,121.537 81.930 C 121.383 81.930,121.256 82.008,121.256 82.103 C 121.256 82.199,120.949 82.422,120.574 82.600 C 119.669 83.027,118.889 83.900,118.889 84.485 C 118.889 84.744,118.769 85.114,118.622 85.309 C 118.475 85.503,118.352 85.793,118.349 85.953 C 118.342 86.307,117.839 87.345,117.603 87.490 C 117.510 87.548,117.433 87.723,117.433 87.879 C 117.433 88.263,116.180 90.010,115.127 91.095 C 114.816 91.416,114.716 91.785,114.650 92.860 C 114.605 93.608,114.428 94.711,114.256 95.312 C 114.085 95.913,113.904 96.609,113.854 96.859 C 113.803 97.110,113.654 97.560,113.523 97.861 C 113.391 98.161,113.182 98.653,113.057 98.953 C 112.657 99.917,112.247 100.771,112.140 100.865 C 112.082 100.915,111.980 101.079,111.913 101.229 C 111.769 101.553,111.373 102.192,111.238 102.321 C 111.186 102.371,110.988 102.658,110.798 102.959 C 109.500 105.011,106.016 108.214,103.833 109.362 C 103.610 109.479,103.199 109.697,102.920 109.846 C 102.208 110.227,101.263 110.616,100.410 110.880 C 99.068 111.295,99.140 111.130,99.084 113.895 C 99.024 116.870,99.165 116.699,96.768 116.699 C 93.935 116.700,94.128 116.881,94.128 114.225 L 94.128 111.971 92.130 111.971 L 90.131 111.971 90.081 115.385 L 90.032 118.798 87.574 118.798 L 85.116 118.798 85.025 114.626 C 84.960 111.626,84.873 110.433,84.717 110.381 C 84.316 110.248,81.357 108.670,81.202 108.507 C 81.152 108.454,80.742 108.128,80.291 107.781 C 79.841 107.435,79.381 107.068,79.270 106.967 C 79.159 106.865,78.790 106.528,78.451 106.219 C 77.719 105.551,76.974 104.718,76.104 103.596 C 75.755 103.145,75.407 102.749,75.331 102.716 C 75.256 102.682,75.193 102.545,75.193 102.410 C 75.193 102.276,75.088 102.057,74.959 101.925 C 74.830 101.792,74.582 101.380,74.408 101.009 C 74.234 100.638,74.012 100.285,73.914 100.225 C 73.817 100.164,73.737 99.956,73.737 99.762 C 73.737 99.567,73.659 99.408,73.563 99.408 C 73.467 99.408,73.335 99.121,73.269 98.769 C 73.203 98.417,73.077 98.085,72.988 98.030 C 72.899 97.975,72.827 97.735,72.827 97.497 C 72.827 97.258,72.754 97.018,72.665 96.963 C 72.576 96.908,72.450 96.653,72.386 96.396 C 72.320 96.136,70.917 94.543,69.217 92.798 C 62.275 85.676,60.810 84.137,60.810 83.966 C 60.810 83.771,63.364 81.341,64.052 80.881 C 64.522 80.567,64.211 80.273,72.074 88.472 C 73.940 90.419,75.774 92.300,76.149 92.652 C 76.543 93.022,76.832 93.466,76.832 93.700 C 76.832 93.924,76.909 94.155,77.004 94.213 C 77.098 94.271,77.230 94.686,77.297 95.134 C 77.365 95.582,77.492 95.949,77.581 95.949 C 77.670 95.949,77.742 96.098,77.742 96.281 C 77.742 96.672,79.156 99.471,79.397 99.560 C 79.488 99.593,79.563 99.737,79.563 99.879 C 79.563 100.020,79.639 100.137,79.733 100.137 C 79.826 100.137,79.949 100.280,80.006 100.455 C 80.139 100.868,81.839 102.626,82.761 103.304 C 83.155 103.595,83.560 103.922,83.660 104.033 C 84.145 104.565,86.957 105.908,88.393 106.293 C 88.794 106.400,89.490 106.589,89.941 106.712 C 90.884 106.970,95.121 107.143,95.562 106.941 C 95.825 106.822,96.676 106.609,98.407 106.230 C 99.341 106.026,102.113 104.586,103.123 103.781 C 104.024 103.062,105.544 101.654,105.869 101.238 C 106.067 100.982,106.415 100.570,106.642 100.320 C 106.869 100.071,107.055 99.792,107.055 99.700 C 107.055 99.609,107.241 99.280,107.468 98.970 C 107.696 98.660,107.990 98.161,108.122 97.861 C 108.255 97.560,108.479 97.083,108.619 96.799 C 108.760 96.516,108.876 96.131,108.876 95.945 C 108.876 95.759,108.948 95.562,109.037 95.507 C 109.125 95.452,109.253 95.040,109.320 94.590 C 109.388 94.140,109.520 93.725,109.615 93.667 C 109.709 93.608,109.786 92.611,109.786 91.450 L 109.786 89.340 110.696 88.467 C 111.197 87.987,111.607 87.515,111.607 87.417 C 111.607 87.320,111.671 87.213,111.749 87.179 C 111.973 87.084,113.427 84.698,113.427 84.427 C 113.427 84.294,113.548 84.025,113.695 83.831 C 113.842 83.637,113.965 83.216,113.968 82.896 C 113.971 82.577,114.056 82.265,114.156 82.203 C 114.258 82.140,114.338 81.264,114.338 80.200 C 114.338 79.137,114.258 78.261,114.156 78.198 C 114.056 78.136,113.974 77.912,113.974 77.701 C 113.974 76.354,111.516 73.183,110.105 72.709 C 109.929 72.650,109.786 72.530,109.786 72.441 C 109.786 72.353,109.597 72.280,109.366 72.280 C 109.135 72.280,108.786 72.160,108.592 72.013 C 108.398 71.866,107.936 71.743,107.567 71.740 C 107.197 71.737,106.838 71.643,106.769 71.532 C 106.575 71.217,103.185 71.622,102.599 72.030 C 102.402 72.168,102.095 72.280,101.917 72.280 C 101.739 72.280,101.593 72.362,101.593 72.462 C 101.593 72.563,101.480 72.645,101.342 72.645 C 100.968 72.645,98.589 74.913,98.242 75.599 C 98.077 75.927,97.872 76.318,97.786 76.468 C 97.205 77.485,97.132 77.899,97.132 80.200 C 97.132 81.877,97.209 82.763,97.386 83.131 C 97.525 83.422,97.771 83.944,97.932 84.292 C 98.093 84.640,98.409 85.131,98.635 85.383 C 98.860 85.635,99.044 85.944,99.044 86.070 C 99.044 86.196,99.107 86.299,99.184 86.299 C 99.261 86.299,99.732 86.627,100.231 87.028 C 101.499 88.046,101.443 88.010,102.048 88.215 C 102.797 88.469,102.671 91.569,101.912 91.578 C 101.837 91.579,101.775 91.809,101.775 92.089 C 101.775 93.459,100.163 93.276,98.053 91.666 C 97.728 91.418,97.365 91.215,97.246 91.215 C 97.127 91.215,96.983 91.092,96.925 90.942 C 96.868 90.792,96.743 90.669,96.649 90.669 C 96.445 90.669,94.246 89.182,94.159 88.985 C 94.125 88.910,94.009 88.848,93.901 88.848 C 93.573 88.848,92.308 88.242,92.308 88.085 C 92.308 88.004,92.078 87.938,91.798 87.938 C 91.518 87.938,91.199 87.849,91.090 87.740 C 90.797 87.447,86.776 87.328,85.389 87.570 C 84.738 87.684,83.898 87.822,83.523 87.877 C 83.147 87.932,82.840 88.043,82.840 88.125 C 82.840 88.206,82.595 88.327,82.296 88.393 C 81.997 88.459,81.705 88.588,81.648 88.680 C 81.591 88.773,81.421 88.848,81.270 88.848 C 81.047 88.848,79.946 89.552,79.563 89.940 C 78.017 91.504,77.047 91.846,76.467 91.032 C 76.253 90.732,75.797 90.188,75.454 89.824 C 75.110 89.460,74.829 89.094,74.829 89.011 C 74.829 88.929,74.584 88.610,74.283 88.302 C 73.983 87.995,73.737 87.671,73.737 87.583 C 73.737 87.495,73.675 87.395,73.600 87.362 C 73.438 87.289,72.282 85.879,71.236 84.479 C 70.825 83.928,70.277 83.239,70.019 82.948 C 69.258 82.091,69.327 81.922,70.915 80.748 C 71.315 80.452,71.840 80.022,72.081 79.792 C 72.926 78.986,74.465 79.389,74.465 80.416 C 74.465 80.548,74.531 80.655,74.612 80.655 C 74.693 80.655,75.000 80.984,75.295 81.387 C 75.958 82.292,76.590 83.083,77.239 83.821 C 77.513 84.133,77.738 84.490,77.739 84.615 C 77.745 85.061,78.241 84.883,81.444 83.280 C 81.727 83.138,82.182 83.022,82.454 83.022 C 82.727 83.022,83.030 82.942,83.129 82.843 C 83.604 82.368,89.956 81.872,90.362 82.279 C 90.471 82.387,90.929 82.476,91.379 82.476 C 92.016 82.476,92.150 82.428,91.980 82.258 C 91.510 81.788,91.830 77.671,92.479 75.831 C 93.149 73.932,94.946 71.169,96.199 70.110 C 96.386 69.952,96.673 69.693,96.836 69.535 C 97.439 68.951,98.450 68.275,98.720 68.275 C 98.874 68.275,99.102 68.152,99.226 68.002 C 99.351 67.852,99.607 67.729,99.795 67.729 C 99.983 67.729,100.137 67.663,100.137 67.583 C 100.137 67.378,101.765 66.816,102.356 66.817 C 102.626 66.818,102.897 66.736,102.959 66.636 C 103.025 66.529,104.140 66.454,105.690 66.454 C 107.239 66.454,108.354 66.529,108.421 66.636 M108.601 75.925 C 109.335 76.386,110.150 77.280,110.150 77.624 C 110.150 77.778,110.232 77.954,110.332 78.015 C 110.556 78.154,110.576 79.868,110.356 80.004 C 110.269 80.058,110.149 80.341,110.091 80.633 C 109.842 81.880,106.409 83.528,105.872 82.658 C 105.810 82.558,105.621 82.476,105.451 82.475 C 105.116 82.474,103.778 81.330,103.778 81.044 C 103.778 80.947,103.677 80.834,103.553 80.793 C 103.181 80.669,103.124 77.876,103.487 77.513 C 103.647 77.353,103.778 77.148,103.778 77.056 C 103.778 75.795,107.137 75.007,108.601 75.925 M86.554 90.806 C 86.740 91.319,87.761 92.872,88.205 93.315 C 88.501 93.610,90.824 95.039,91.008 95.039 C 91.099 95.039,91.408 95.161,91.695 95.311 C 91.982 95.460,92.621 95.583,93.115 95.584 C 94.596 95.586,94.857 95.970,94.857 98.154 C 94.857 100.726,94.778 100.865,93.324 100.865 C 92.677 100.865,92.096 100.783,92.035 100.683 C 91.973 100.583,91.661 100.500,91.341 100.500 C 91.022 100.499,90.525 100.376,90.239 100.226 C 89.952 100.077,89.625 99.954,89.513 99.954 C 89.242 99.954,87.318 98.991,87.240 98.817 C 87.207 98.741,87.073 98.680,86.942 98.680 C 86.540 98.680,83.022 95.347,83.022 94.966 C 83.022 94.872,82.908 94.665,82.767 94.507 C 81.559 93.145,81.473 92.126,82.529 91.693 C 83.528 91.284,84.501 90.849,84.843 90.660 C 85.362 90.372,86.430 90.463,86.554 90.806 M295.395 98.225 C 295.395 102.130,295.419 103.702,295.448 101.718 C 295.478 99.733,295.478 96.538,295.448 94.617 C 295.419 92.696,295.395 94.320,295.395 98.225 M301.184 92.581 C 301.186 92.981,301.223 93.124,301.267 92.897 C 301.310 92.671,301.309 92.343,301.263 92.169 C 301.217 91.995,301.182 92.180,301.184 92.581 M304.807 106.453 C 304.792 107.273,304.841 107.982,304.916 108.029 C 304.991 108.076,305.029 107.609,305.001 106.993 C 304.916 105.108,304.835 104.885,304.807 106.453 M175.831 108.284 C 178.059 108.313,181.705 108.313,183.933 108.284 C 186.161 108.255,184.338 108.231,179.882 108.231 C 175.426 108.231,173.603 108.255,175.831 108.284 M231.009 108.284 C 233.244 108.313,236.849 108.313,239.020 108.284 C 241.191 108.255,239.363 108.231,234.957 108.231 C 230.551 108.231,228.774 108.255,231.009 108.284 M287.355 108.283 C 288.135 108.317,289.364 108.317,290.086 108.282 C 290.807 108.248,290.168 108.220,288.666 108.220 C 287.164 108.221,286.574 108.249,287.355 108.283 M296.996 108.282 C 297.672 108.318,298.778 108.318,299.454 108.282 C 300.130 108.247,299.577 108.219,298.225 108.219 C 296.873 108.219,296.320 108.247,296.996 108.282 M306.645 108.282 C 307.321 108.318,308.427 108.318,309.103 108.282 C 309.779 108.247,309.226 108.219,307.874 108.219 C 306.523 108.219,305.970 108.247,306.645 108.282 M347.883 108.283 C 348.609 108.317,349.797 108.317,350.523 108.283 C 351.249 108.248,350.655 108.220,349.203 108.220 C 347.751 108.220,347.157 108.248,347.883 108.283 M364.370 108.283 C 365.351 108.316,366.908 108.316,367.829 108.283 C 368.750 108.250,367.947 108.223,366.045 108.223 C 364.142 108.224,363.388 108.251,364.370 108.283 " stroke="none" fill="#fba4bc" fill-rule="evenodd"></path><path id="path2" d="M0.000 91.033 L 0.000 182.066 200.000 182.066 L 400.000 182.066 400.000 91.033 L 400.000 0.000 200.000 0.000 L 0.000 0.000 0.000 91.033 M149.294 91.489 L 149.294 148.749 92.080 148.703 L 34.866 148.657 34.819 91.670 C 34.793 60.328,34.811 34.581,34.859 34.456 C 34.928 34.275,46.548 34.228,92.120 34.228 L 149.294 34.228 149.294 91.489 M192.171 79.836 L 192.171 86.208 189.622 86.208 L 187.073 86.208 187.024 82.431 L 186.975 78.653 184.794 78.653 L 182.613 78.653 182.613 90.741 C 182.613 101.595,182.642 102.840,182.901 102.939 C 183.059 103.000,184.290 103.050,185.637 103.050 L 188.085 103.050 188.034 105.644 L 187.984 108.239 180.246 108.291 C 175.990 108.320,172.242 108.295,171.916 108.237 L 171.325 108.131 171.325 105.595 L 171.325 103.059 174.010 103.009 L 176.695 102.959 176.742 90.806 L 176.789 78.653 174.607 78.653 L 172.424 78.653 172.375 82.431 L 172.326 86.208 169.882 86.259 C 168.049 86.298,167.401 86.252,167.290 86.077 C 167.113 85.798,167.084 73.669,167.260 73.493 C 167.327 73.425,172.960 73.391,179.777 73.417 L 192.171 73.464 192.171 79.836 M352.117 83.368 L 352.208 93.273 355.326 90.014 C 357.041 88.221,359.203 85.956,360.130 84.980 L 361.815 83.204 365.512 83.204 C 368.104 83.204,369.248 83.267,369.339 83.414 C 369.418 83.542,367.358 85.711,364.013 89.020 C 361.012 91.989,358.509 94.541,358.451 94.691 C 358.343 94.975,358.510 95.185,361.066 97.981 C 361.859 98.849,362.686 99.791,362.904 100.075 C 363.123 100.359,363.345 100.633,363.398 100.684 C 363.727 100.994,365.839 103.325,366.682 104.309 C 367.233 104.952,368.038 105.853,368.472 106.312 C 370.361 108.311,370.347 108.323,365.991 108.327 C 362.724 108.329,362.652 108.321,362.258 107.900 C 361.702 107.305,360.483 105.851,359.554 104.674 C 358.789 103.707,358.077 102.867,357.624 102.400 C 357.499 102.271,357.396 102.084,357.396 101.985 C 357.396 101.886,357.333 101.778,357.255 101.745 C 357.065 101.663,354.934 99.165,354.694 98.742 C 354.522 98.440,354.385 98.524,353.310 99.585 L 352.117 100.763 352.117 104.436 C 352.117 108.753,352.433 108.330,349.203 108.330 C 347.918 108.330,346.737 108.280,346.578 108.219 C 346.275 108.103,346.115 73.791,346.416 73.490 C 346.486 73.420,347.776 73.386,349.284 73.414 L 352.025 73.464 352.117 83.368 M211.743 82.906 C 216.905 83.817,220.066 86.531,222.012 91.720 C 222.172 92.147,222.303 92.736,222.303 93.029 C 222.303 93.321,222.385 93.611,222.485 93.673 C 222.585 93.735,222.668 94.170,222.668 94.640 C 222.669 95.110,222.751 95.985,222.850 96.586 C 223.124 98.246,223.880 98.134,212.437 98.134 C 201.429 98.134,202.051 98.067,202.619 99.183 C 202.707 99.357,202.887 99.728,203.018 100.008 C 204.908 104.041,212.265 104.804,216.841 101.443 C 217.192 101.186,217.530 100.901,217.592 100.809 C 217.720 100.623,218.480 100.812,218.480 101.031 C 218.480 101.109,218.685 101.410,218.936 101.701 C 219.187 101.992,219.438 102.374,219.494 102.549 C 219.551 102.724,219.673 102.868,219.766 102.868 C 219.860 102.868,219.936 102.953,219.936 103.058 C 219.936 103.162,220.141 103.468,220.391 103.738 C 220.642 104.008,220.847 104.364,220.847 104.529 C 220.847 105.235,217.834 107.383,216.154 107.875 C 215.581 108.043,214.705 108.303,214.209 108.453 C 212.824 108.871,207.423 108.845,206.095 108.414 C 204.582 107.923,204.458 107.873,203.195 107.242 C 198.996 105.144,196.395 100.755,196.395 95.767 C 196.395 92.965,197.646 89.133,199.100 87.483 C 199.365 87.183,199.676 86.811,199.791 86.658 C 201.887 83.869,207.397 82.139,211.743 82.906 M250.263 82.927 C 253.151 83.529,253.310 83.834,252.054 86.360 C 251.913 86.643,251.798 87.028,251.798 87.214 C 251.798 87.400,251.716 87.603,251.616 87.665 C 251.516 87.727,251.434 87.925,251.434 88.106 C 251.434 88.287,251.262 88.654,251.051 88.921 C 250.664 89.413,250.448 89.429,249.522 89.034 C 247.964 88.369,244.795 88.361,243.150 89.018 C 240.559 90.052,238.760 91.906,238.398 93.913 C 238.332 94.282,238.205 94.676,238.116 94.789 C 238.027 94.901,237.976 96.786,238.003 98.976 L 238.052 102.959 240.737 103.009 L 243.423 103.059 243.423 105.582 C 243.423 108.675,244.517 108.324,234.855 108.327 C 225.542 108.330,226.462 108.642,226.530 105.506 L 226.582 103.141 229.313 103.032 C 230.815 102.973,232.064 102.911,232.089 102.896 C 232.335 102.743,232.097 88.691,231.847 88.595 C 231.688 88.534,230.517 88.484,229.243 88.484 C 226.354 88.484,226.491 88.616,226.491 85.830 C 226.491 82.939,225.915 83.189,232.430 83.247 L 237.870 83.295 237.961 85.844 L 238.052 88.393 238.749 87.253 C 240.167 84.935,241.833 83.841,245.426 82.868 C 246.413 82.600,248.840 82.630,250.263 82.927 M271.643 83.008 C 272.294 83.128,272.904 83.303,273.000 83.397 C 273.095 83.491,273.386 83.569,273.646 83.569 C 273.906 83.569,274.197 83.640,274.292 83.728 C 274.387 83.816,274.949 84.153,275.540 84.478 C 276.131 84.802,276.869 85.297,277.179 85.578 C 277.489 85.860,277.912 86.239,278.119 86.422 C 278.989 87.192,280.349 89.408,281.114 91.306 C 281.486 92.227,282.203 96.157,282.203 97.271 C 282.203 98.173,282.688 98.134,271.628 98.134 C 266.129 98.134,261.631 98.195,261.632 98.270 C 261.637 98.487,262.072 99.638,262.339 100.137 C 262.779 100.960,264.255 102.340,265.089 102.708 C 265.539 102.907,266.093 103.161,266.319 103.273 C 266.566 103.396,267.736 103.473,269.248 103.467 C 272.588 103.453,274.319 102.914,276.273 101.281 C 277.263 100.453,277.274 100.459,278.725 102.515 C 280.187 104.587,280.238 104.787,279.458 105.418 C 279.150 105.668,278.695 106.042,278.446 106.251 C 274.934 109.196,267.281 109.653,262.396 107.211 C 260.909 106.467,257.624 103.600,257.624 103.046 C 257.624 102.944,257.436 102.555,257.206 102.181 C 255.517 99.437,255.198 94.071,256.528 90.760 C 258.951 84.730,264.768 81.747,271.643 83.008 M297.976 83.133 C 298.967 83.601,299.849 84.541,300.266 85.571 C 300.418 85.947,300.470 85.974,300.566 85.725 C 301.427 83.493,304.434 82.156,306.869 82.922 C 308.419 83.409,309.388 84.391,310.202 86.299 C 310.669 87.393,310.787 89.930,310.787 98.848 L 310.787 108.105 310.378 108.215 C 309.732 108.388,305.761 108.348,305.276 108.163 L 304.839 107.997 304.924 100.558 C 305.056 89.146,304.903 87.938,303.327 87.938 C 301.512 87.938,301.311 89.020,301.194 99.438 C 301.097 108.107,301.096 108.116,300.708 108.220 C 300.034 108.401,296.032 108.338,295.664 108.141 C 295.324 107.959,295.311 107.661,295.298 99.265 C 295.282 88.283,295.234 87.955,293.639 87.942 C 291.893 87.928,291.668 89.175,291.519 99.681 L 291.397 108.239 288.666 108.239 L 285.935 108.239 285.935 95.767 L 285.935 83.295 288.666 83.295 L 291.397 83.295 291.451 84.524 C 291.493 85.482,291.853 86.409,291.853 85.559 C 291.853 85.201,293.037 83.722,293.491 83.514 C 293.641 83.445,293.887 83.316,294.037 83.227 C 295.185 82.546,296.661 82.511,297.976 83.133 M330.451 82.924 C 334.054 83.627,336.651 85.147,338.395 87.574 C 341.146 91.404,341.744 96.017,340.131 100.956 C 339.403 103.185,337.094 105.941,335.079 106.987 C 334.844 107.109,334.424 107.328,334.144 107.474 C 329.786 109.752,323.190 109.092,319.345 105.994 C 317.549 104.546,315.620 101.498,315.383 99.733 C 315.332 99.349,315.219 98.991,315.132 98.938 C 314.925 98.810,314.928 93.124,315.136 92.715 C 315.224 92.541,315.392 91.993,315.509 91.496 C 316.907 85.574,323.789 81.626,330.451 82.924 M207.920 88.113 C 207.770 88.214,207.474 88.298,207.263 88.299 C 206.391 88.306,203.368 90.364,203.368 90.952 C 203.368 91.031,203.253 91.225,203.112 91.383 C 202.971 91.541,202.828 91.916,202.793 92.217 L 202.731 92.763 209.467 92.763 L 216.204 92.763 216.140 92.308 C 215.925 90.762,213.592 88.713,211.470 88.205 C 210.532 87.981,208.206 87.920,207.920 88.113 M266.818 88.163 C 264.014 89.116,261.994 90.888,261.994 92.395 L 261.994 92.854 268.719 92.854 C 276.170 92.854,275.777 92.926,275.170 91.674 C 273.848 88.947,269.673 87.192,266.818 88.163 M326.172 88.120 C 326.110 88.220,325.929 88.302,325.770 88.302 C 322.174 88.302,319.309 95.429,321.360 99.269 C 321.453 99.443,321.529 99.674,321.529 99.782 C 321.529 100.471,323.414 102.308,324.807 102.976 C 325.905 103.504,329.596 103.694,330.370 103.264 C 330.564 103.156,331.025 102.934,331.394 102.771 C 334.147 101.552,335.927 96.755,334.871 93.400 C 334.508 92.248,334.187 91.492,333.955 91.248 C 333.830 91.115,333.728 90.952,333.728 90.884 C 333.725 89.370,326.934 86.887,326.172 88.120 " stroke="none" fill="#fbfbeb" fill-rule="evenodd"></path><path id="path3" d="M102.959 66.636 C 102.897 66.736,102.626 66.818,102.356 66.817 C 101.765 66.816,100.137 67.378,100.137 67.583 C 100.137 67.663,99.983 67.729,99.795 67.729 C 99.607 67.729,99.351 67.852,99.226 68.002 C 99.102 68.152,98.874 68.275,98.720 68.275 C 98.450 68.275,97.439 68.951,96.836 69.535 C 96.673 69.693,96.386 69.952,96.199 70.110 C 94.946 71.169,93.149 73.932,92.479 75.831 C 91.830 77.671,91.510 81.788,91.980 82.258 C 92.150 82.428,92.016 82.476,91.379 82.476 C 90.929 82.476,90.471 82.387,90.362 82.279 C 89.956 81.872,83.604 82.368,83.129 82.843 C 83.030 82.942,82.727 83.022,82.454 83.022 C 82.182 83.022,81.727 83.138,81.444 83.280 C 78.241 84.883,77.745 85.061,77.739 84.615 C 77.738 84.490,77.513 84.133,77.239 83.821 C 76.590 83.083,75.958 82.292,75.295 81.387 C 75.000 80.984,74.693 80.655,74.612 80.655 C 74.531 80.655,74.465 80.548,74.465 80.416 C 74.465 79.389,72.926 78.986,72.081 79.792 C 71.840 80.022,71.315 80.452,70.915 80.748 C 69.327 81.922,69.258 82.091,70.019 82.948 C 70.277 83.239,70.825 83.928,71.236 84.479 C 72.282 85.879,73.438 87.289,73.600 87.362 C 73.675 87.395,73.737 87.495,73.737 87.583 C 73.737 87.671,73.983 87.995,74.283 88.302 C 74.584 88.610,74.829 88.929,74.829 89.011 C 74.829 89.094,75.110 89.460,75.454 89.824 C 75.797 90.188,76.253 90.732,76.467 91.032 C 77.047 91.846,78.017 91.504,79.563 89.940 C 79.946 89.552,81.047 88.848,81.270 88.848 C 81.421 88.848,81.591 88.773,81.648 88.680 C 81.705 88.588,81.997 88.459,82.296 88.393 C 82.595 88.327,82.840 88.206,82.840 88.125 C 82.840 88.043,83.147 87.932,83.523 87.877 C 83.898 87.822,84.738 87.684,85.389 87.570 C 86.776 87.328,90.797 87.447,91.090 87.740 C 91.199 87.849,91.518 87.938,91.798 87.938 C 92.078 87.938,92.308 88.004,92.308 88.085 C 92.308 88.242,93.573 88.848,93.901 88.848 C 94.009 88.848,94.125 88.910,94.159 88.985 C 94.246 89.182,96.445 90.669,96.649 90.669 C 96.743 90.669,96.868 90.792,96.925 90.942 C 96.983 91.092,97.127 91.215,97.246 91.215 C 97.365 91.215,97.728 91.418,98.053 91.666 C 100.163 93.276,101.775 93.459,101.775 92.089 C 101.775 91.809,101.837 91.579,101.912 91.578 C 102.671 91.569,102.797 88.469,102.048 88.215 C 101.443 88.010,101.499 88.046,100.231 87.028 C 99.732 86.627,99.261 86.299,99.184 86.299 C 99.107 86.299,99.044 86.196,99.044 86.070 C 99.044 85.944,98.860 85.635,98.635 85.383 C 98.409 85.131,98.093 84.640,97.932 84.292 C 97.771 83.944,97.525 83.422,97.386 83.131 C 97.209 82.763,97.132 81.877,97.132 80.200 C 97.132 77.899,97.205 77.485,97.786 76.468 C 97.872 76.318,98.077 75.927,98.242 75.599 C 98.589 74.913,100.968 72.645,101.342 72.645 C 101.480 72.645,101.593 72.563,101.593 72.462 C 101.593 72.362,101.739 72.280,101.917 72.280 C 102.095 72.280,102.402 72.168,102.599 72.030 C 103.185 71.622,106.575 71.217,106.769 71.532 C 106.838 71.643,107.197 71.737,107.567 71.740 C 107.936 71.743,108.398 71.866,108.592 72.013 C 108.786 72.160,109.135 72.280,109.366 72.280 C 109.597 72.280,109.786 72.353,109.786 72.441 C 109.786 72.530,109.929 72.650,110.105 72.709 C 111.516 73.183,113.974 76.354,113.974 77.701 C 113.974 77.912,114.056 78.136,114.156 78.198 C 114.258 78.261,114.338 79.137,114.338 80.200 C 114.338 81.264,114.258 82.140,114.156 82.203 C 114.056 82.265,113.971 82.577,113.968 82.896 C 113.965 83.216,113.842 83.637,113.695 83.831 C 113.548 84.025,113.427 84.294,113.427 84.427 C 113.427 84.698,111.973 87.084,111.749 87.179 C 111.671 87.213,111.607 87.320,111.607 87.417 C 111.607 87.515,111.197 87.987,110.696 88.467 L 109.786 89.340 109.786 91.450 C 109.786 92.611,109.709 93.608,109.615 93.667 C 109.520 93.725,109.388 94.140,109.320 94.590 C 109.253 95.040,109.125 95.452,109.037 95.507 C 108.948 95.562,108.876 95.759,108.876 95.945 C 108.876 96.131,108.760 96.516,108.619 96.799 C 108.479 97.083,108.255 97.560,108.122 97.861 C 107.990 98.161,107.696 98.660,107.468 98.970 C 107.241 99.280,107.055 99.609,107.055 99.700 C 107.055 99.792,106.869 100.071,106.642 100.320 C 106.415 100.570,106.067 100.982,105.869 101.238 C 105.544 101.654,104.024 103.062,103.123 103.781 C 102.113 104.586,99.341 106.026,98.407 106.230 C 96.676 106.609,95.825 106.822,95.562 106.941 C 95.121 107.143,90.884 106.970,89.941 106.712 C 89.490 106.589,88.794 106.400,88.393 106.293 C 86.957 105.908,84.145 104.565,83.660 104.033 C 83.560 103.922,83.155 103.595,82.761 103.304 C 81.839 102.626,80.139 100.868,80.006 100.455 C 79.949 100.280,79.826 100.137,79.733 100.137 C 79.639 100.137,79.563 100.020,79.563 99.879 C 79.563 99.737,79.488 99.593,79.397 99.560 C 79.156 99.471,77.742 96.672,77.742 96.281 C 77.742 96.098,77.670 95.949,77.581 95.949 C 77.492 95.949,77.365 95.582,77.297 95.134 C 77.230 94.686,77.098 94.271,77.004 94.213 C 76.909 94.155,76.832 93.924,76.832 93.700 C 76.832 93.466,76.543 93.022,76.149 92.652 C 75.774 92.300,73.940 90.419,72.074 88.472 C 64.211 80.273,64.522 80.567,64.052 80.881 C 63.364 81.341,60.810 83.771,60.810 83.966 C 60.810 84.137,62.275 85.676,69.217 92.798 C 70.917 94.543,72.320 96.136,72.386 96.396 C 72.450 96.653,72.576 96.908,72.665 96.963 C 72.754 97.018,72.827 97.258,72.827 97.497 C 72.827 97.735,72.899 97.975,72.988 98.030 C 73.077 98.085,73.203 98.417,73.269 98.769 C 73.335 99.121,73.467 99.408,73.563 99.408 C 73.659 99.408,73.737 99.567,73.737 99.762 C 73.737 99.956,73.817 100.164,73.914 100.225 C 74.012 100.285,74.234 100.638,74.408 101.009 C 74.582 101.380,74.830 101.792,74.959 101.925 C 75.088 102.057,75.193 102.276,75.193 102.410 C 75.193 102.545,75.256 102.682,75.331 102.716 C 75.407 102.749,75.755 103.145,76.104 103.596 C 76.974 104.718,77.719 105.551,78.451 106.219 C 78.790 106.528,79.159 106.865,79.270 106.967 C 79.381 107.068,79.841 107.435,80.291 107.781 C 80.742 108.128,81.152 108.454,81.202 108.507 C 81.357 108.670,84.316 110.248,84.717 110.381 C 84.873 110.433,84.960 111.626,85.025 114.626 L 85.116 118.798 87.574 118.798 L 90.032 118.798 90.081 115.385 L 90.131 111.971 92.130 111.971 L 94.128 111.971 94.128 114.225 C 94.128 116.881,93.935 116.700,96.768 116.699 C 99.165 116.699,99.024 116.870,99.084 113.895 C 99.140 111.130,99.068 111.295,100.410 110.880 C 101.263 110.616,102.208 110.227,102.920 109.846 C 103.199 109.697,103.610 109.479,103.833 109.362 C 106.016 108.214,109.500 105.011,110.798 102.959 C 110.988 102.658,111.186 102.371,111.238 102.321 C 111.373 102.192,111.769 101.553,111.913 101.229 C 111.980 101.079,112.082 100.915,112.140 100.865 C 112.247 100.771,112.657 99.917,113.057 98.953 C 113.182 98.653,113.391 98.161,113.523 97.861 C 113.654 97.560,113.803 97.110,113.854 96.859 C 113.904 96.609,114.085 95.913,114.256 95.312 C 114.428 94.711,114.605 93.608,114.650 92.860 C 114.716 91.785,114.816 91.416,115.127 91.095 C 116.180 90.010,117.433 88.263,117.433 87.879 C 117.433 87.723,117.510 87.548,117.603 87.490 C 117.839 87.345,118.342 86.307,118.349 85.953 C 118.352 85.793,118.475 85.503,118.622 85.309 C 118.769 85.114,118.889 84.744,118.889 84.485 C 118.889 83.900,119.669 83.027,120.574 82.600 C 120.949 82.422,121.256 82.199,121.256 82.103 C 121.256 82.008,121.383 81.930,121.537 81.930 C 121.692 81.930,122.039 81.725,122.309 81.475 C 122.579 81.224,122.889 81.020,122.998 81.020 C 123.107 81.020,123.374 80.829,123.592 80.597 L 123.989 80.175 123.567 79.778 C 123.335 79.560,123.029 79.381,122.888 79.381 C 122.731 79.381,122.789 79.491,123.036 79.664 C 123.734 80.153,123.231 80.710,120.746 82.203 C 119.377 83.025,118.881 83.453,118.783 83.895 C 118.581 84.805,117.741 86.930,117.312 87.616 C 117.078 87.989,116.887 88.341,116.887 88.397 C 116.887 88.526,115.615 90.220,114.989 90.925 C 114.700 91.251,114.520 91.670,114.520 92.017 C 114.520 94.847,112.883 99.392,110.712 102.594 C 108.529 105.814,102.572 110.514,100.675 110.514 C 100.577 110.514,100.353 110.587,100.180 110.677 C 100.006 110.766,99.640 110.927,99.368 111.035 L 98.872 111.230 98.822 113.831 L 98.771 116.431 97.132 116.487 C 96.231 116.517,95.230 116.493,94.908 116.434 L 94.322 116.326 94.270 114.103 L 94.219 111.880 92.126 111.880 L 90.032 111.880 89.941 115.103 C 89.832 118.964,89.991 118.734,87.467 118.668 L 85.480 118.616 85.389 114.521 L 85.298 110.427 83.477 109.457 C 79.247 107.203,75.843 103.656,73.906 99.482 C 73.585 98.790,73.252 98.083,73.165 97.909 C 73.079 97.735,73.009 97.465,73.009 97.310 C 73.009 96.823,72.325 95.659,71.605 94.921 C 66.151 89.327,61.399 84.326,61.312 84.090 C 61.234 83.879,61.602 83.429,62.580 82.542 C 64.559 80.748,64.326 80.765,65.783 82.313 C 66.481 83.053,69.190 85.860,71.805 88.550 C 74.420 91.240,76.572 93.493,76.589 93.557 C 78.482 100.928,83.002 105.447,90.006 106.971 C 91.614 107.321,95.794 107.265,97.132 106.877 C 101.448 105.623,104.537 103.572,106.875 100.407 C 107.641 99.370,109.058 96.726,109.058 96.333 C 109.058 96.219,109.133 95.984,109.226 95.810 C 109.585 95.135,109.952 93.225,110.074 91.397 L 110.202 89.486 111.155 88.393 C 117.445 81.184,114.589 71.753,105.963 71.248 C 96.606 70.700,93.156 83.874,101.512 88.240 C 102.529 88.771,102.653 89.007,102.334 89.796 C 102.241 90.026,101.947 90.808,101.681 91.534 C 101.031 93.306,100.763 93.247,96.587 90.405 C 89.828 85.806,83.824 85.846,78.443 90.526 C 77.139 91.660,77.413 91.846,73.919 87.451 C 72.367 85.499,70.908 83.684,70.677 83.417 C 69.657 82.239,69.657 82.071,70.675 81.280 C 71.181 80.886,71.921 80.298,72.319 79.973 C 73.311 79.162,73.264 79.122,76.650 83.569 C 76.993 84.019,77.467 84.573,77.703 84.800 L 78.131 85.213 79.075 84.700 C 79.594 84.418,80.305 84.077,80.655 83.942 C 81.006 83.806,81.538 83.594,81.839 83.469 C 84.235 82.471,89.318 82.166,91.925 82.863 C 92.134 82.919,92.187 82.440,92.216 80.200 C 92.406 65.592,111.384 61.399,117.971 74.510 C 118.109 74.786,118.260 74.973,118.307 74.927 C 118.394 74.840,117.828 73.534,117.634 73.373 C 117.573 73.323,117.367 73.001,117.176 72.658 C 116.360 71.195,113.777 68.639,113.115 68.639 C 112.986 68.639,112.881 68.557,112.881 68.457 C 112.881 68.357,112.758 68.275,112.608 68.275 C 112.458 68.275,112.335 68.209,112.335 68.128 C 112.335 68.047,111.987 67.839,111.561 67.666 C 111.136 67.493,110.555 67.231,110.272 67.085 C 109.989 66.938,109.481 66.818,109.145 66.818 C 108.808 66.818,108.482 66.736,108.421 66.636 C 108.354 66.529,107.239 66.454,105.690 66.454 C 104.140 66.454,103.025 66.529,102.959 66.636 M118.428 75.558 C 118.500 75.808,118.600 76.223,118.649 76.479 C 118.698 76.736,118.875 77.032,119.042 77.136 C 119.208 77.241,120.070 77.795,120.957 78.367 C 121.845 78.940,122.536 79.305,122.494 79.179 C 122.452 79.053,122.115 78.793,121.746 78.601 C 121.376 78.410,121.074 78.179,121.074 78.089 C 121.074 77.998,120.980 77.924,120.864 77.924 C 120.748 77.924,120.400 77.734,120.090 77.501 C 119.780 77.269,119.383 77.025,119.208 76.961 C 119.011 76.888,118.887 76.650,118.884 76.337 C 118.880 76.059,118.747 75.667,118.588 75.467 C 118.305 75.112,118.301 75.115,118.428 75.558 M105.629 75.574 C 105.016 75.760,103.778 76.751,103.778 77.056 C 103.778 77.148,103.647 77.353,103.487 77.513 C 103.124 77.876,103.181 80.669,103.553 80.793 C 103.677 80.834,103.778 80.947,103.778 81.044 C 103.778 81.330,105.116 82.474,105.451 82.475 C 105.621 82.476,105.810 82.558,105.872 82.658 C 106.409 83.528,109.842 81.880,110.091 80.633 C 110.149 80.341,110.269 80.058,110.356 80.004 C 110.576 79.868,110.556 78.154,110.332 78.015 C 110.232 77.954,110.150 77.778,110.150 77.624 C 110.150 76.380,107.276 75.076,105.629 75.574 M108.470 76.171 C 110.516 77.472,110.806 79.812,109.129 81.499 C 107.036 83.606,103.433 82.064,103.418 79.055 C 103.405 76.514,106.357 74.829,108.470 76.171 M84.843 90.660 C 84.501 90.849,83.528 91.284,82.529 91.693 C 81.473 92.126,81.559 93.145,82.767 94.507 C 82.908 94.665,83.022 94.872,83.022 94.966 C 83.022 95.347,86.540 98.680,86.942 98.680 C 87.073 98.680,87.207 98.741,87.240 98.817 C 87.318 98.991,89.242 99.954,89.513 99.954 C 89.625 99.954,89.952 100.077,90.239 100.226 C 90.525 100.376,91.022 100.499,91.341 100.500 C 91.661 100.500,91.973 100.583,92.035 100.683 C 92.096 100.783,92.677 100.865,93.324 100.865 C 94.778 100.865,94.857 100.726,94.857 98.154 C 94.857 95.970,94.596 95.586,93.115 95.584 C 92.621 95.583,91.982 95.460,91.695 95.311 C 91.408 95.161,91.099 95.039,91.008 95.039 C 90.824 95.039,88.501 93.610,88.205 93.315 C 87.761 92.872,86.740 91.319,86.554 90.806 C 86.430 90.463,85.362 90.372,84.843 90.660 M86.809 91.839 C 88.234 94.006,90.367 95.416,92.854 95.834 L 94.219 96.064 94.271 98.222 C 94.331 100.724,94.370 100.667,92.714 100.474 C 88.682 100.003,84.617 97.367,82.723 93.996 C 81.815 92.381,81.884 92.220,83.842 91.390 C 85.973 90.487,85.915 90.478,86.809 91.839 " stroke="none" fill="#d791ab" fill-rule="evenodd"></path><path id="path4" d="M103.505 66.818 C 103.018 66.942,103.008 66.957,103.414 66.957 C 103.664 66.957,104.115 66.895,104.415 66.818 C 104.902 66.694,104.912 66.679,104.506 66.679 C 104.256 66.679,103.805 66.742,103.505 66.818 M106.964 66.829 C 107.886 67.020,108.632 67.011,107.874 66.818 C 107.574 66.742,107.082 66.679,106.782 66.679 C 106.323 66.678,106.352 66.702,106.964 66.829 M101.229 67.365 C 100.854 67.485,100.838 67.513,101.138 67.526 C 101.338 67.534,101.625 67.462,101.775 67.365 C 102.094 67.158,101.873 67.158,101.229 67.365 M113.693 69.408 C 113.998 69.681,114.319 69.906,114.408 69.909 C 114.496 69.911,114.333 69.735,114.044 69.517 C 113.237 68.907,113.081 68.859,113.693 69.408 M96.023 70.687 C 95.520 71.213,94.996 71.807,94.859 72.007 C 94.722 72.208,94.842 72.126,95.126 71.825 C 95.410 71.525,95.974 70.931,96.380 70.505 C 96.785 70.080,97.077 69.731,97.028 69.731 C 96.978 69.731,96.526 70.162,96.023 70.687 M115.963 71.598 C 116.395 72.173,116.785 72.645,116.829 72.645 C 116.953 72.645,115.755 71.017,115.449 70.770 C 115.299 70.649,115.531 71.022,115.963 71.598 M106.888 71.253 C 106.930 71.289,107.251 71.370,107.601 71.435 C 108.050 71.517,108.158 71.499,107.965 71.373 C 107.719 71.211,106.708 71.098,106.888 71.253 M108.851 71.832 C 109.188 71.979,109.516 72.095,109.579 72.092 C 109.816 72.079,108.774 71.565,108.512 71.566 C 108.361 71.566,108.514 71.686,108.851 71.832 M109.968 72.165 C 109.968 72.215,110.214 72.431,110.514 72.645 C 110.815 72.858,111.061 72.992,111.061 72.942 C 111.061 72.892,110.815 72.676,110.514 72.462 C 110.214 72.249,109.968 72.114,109.968 72.165 M94.121 73.019 C 93.903 73.325,93.755 73.606,93.792 73.643 C 93.829 73.680,94.044 73.430,94.269 73.087 C 94.776 72.313,94.661 72.260,94.121 73.019 M100.130 73.022 L 99.499 73.581 100.182 73.091 C 100.785 72.658,100.982 72.462,100.812 72.462 C 100.784 72.462,100.476 72.714,100.130 73.022 M111.963 73.782 C 112.410 74.258,112.799 74.647,112.828 74.647 C 112.965 74.647,112.820 74.484,112.016 73.729 L 111.152 72.918 111.963 73.782 M167.357 73.590 C 167.070 73.877,167.041 85.416,167.325 85.947 C 167.586 86.434,172.122 86.492,172.306 86.012 C 172.367 85.853,172.417 84.133,172.417 82.188 L 172.417 78.653 174.602 78.653 L 176.787 78.653 176.787 90.846 L 176.787 103.040 174.101 103.090 L 171.416 103.141 171.416 105.599 L 171.416 108.056 179.750 108.104 L 188.085 108.151 188.034 105.646 L 187.984 103.141 185.344 103.050 L 182.704 102.959 182.657 90.806 L 182.610 78.653 184.796 78.653 L 186.982 78.653 186.982 82.188 C 186.982 86.733,186.702 86.299,189.638 86.299 C 192.606 86.299,192.287 87.141,192.222 79.472 L 192.171 73.464 179.874 73.417 C 170.460 73.381,167.525 73.422,167.357 73.590 M346.376 73.596 C 346.327 73.723,346.309 81.529,346.334 90.942 L 346.381 108.056 349.203 108.056 L 352.025 108.056 352.075 104.360 L 352.124 100.664 353.204 99.581 C 354.511 98.269,354.378 98.265,355.452 99.657 C 355.934 100.283,356.548 101.038,356.817 101.336 C 357.086 101.633,357.674 102.325,358.124 102.873 C 359.205 104.188,359.302 104.304,361.029 106.372 L 362.511 108.147 366.022 108.147 C 367.954 108.147,369.587 108.095,369.651 108.031 C 369.781 107.901,369.132 107.052,367.860 105.690 C 367.393 105.189,366.670 104.381,366.254 103.895 C 365.138 102.590,365.063 102.505,363.678 100.948 C 362.337 99.442,360.831 97.778,360.218 97.125 C 359.582 96.446,358.400 94.994,358.327 94.800 C 358.288 94.698,360.725 92.185,363.743 89.217 C 366.761 86.248,369.231 83.681,369.231 83.512 C 369.231 83.233,368.885 83.204,365.562 83.204 L 361.893 83.204 360.963 84.160 C 359.855 85.301,353.111 92.349,352.528 92.976 L 352.120 93.415 352.073 83.440 L 352.025 73.464 349.245 73.414 C 347.121 73.375,346.444 73.418,346.376 73.596 M191.989 79.745 L 191.989 85.844 189.622 85.844 L 187.255 85.844 187.206 82.157 L 187.157 78.471 184.794 78.471 L 182.431 78.471 182.431 90.846 L 182.431 103.222 185.116 103.272 L 187.802 103.323 187.853 105.644 L 187.903 107.965 179.796 107.965 L 171.689 107.965 171.689 105.817 C 171.689 103.102,171.546 103.232,174.528 103.232 C 176.550 103.232,176.947 103.186,177.040 102.944 C 177.185 102.567,177.185 79.135,177.040 78.759 C 176.947 78.517,176.555 78.471,174.586 78.471 L 172.242 78.471 172.193 82.157 L 172.144 85.844 169.914 85.895 L 167.683 85.947 167.683 79.749 L 167.683 73.552 179.836 73.599 L 191.989 73.646 191.989 79.745 M351.820 73.964 C 351.880 74.190,351.931 78.691,351.932 83.967 C 351.933 89.244,352.003 93.603,352.087 93.655 C 352.170 93.706,353.010 92.917,353.953 91.900 C 354.895 90.883,357.069 88.616,358.784 86.862 L 361.901 83.675 365.384 83.600 C 367.299 83.558,368.867 83.588,368.867 83.666 C 368.867 83.743,366.409 86.220,363.405 89.170 C 357.400 95.066,357.667 94.699,358.625 95.724 C 359.001 96.126,359.651 96.853,360.071 97.340 C 361.248 98.706,361.730 99.249,362.554 100.137 C 362.972 100.587,363.593 101.284,363.933 101.684 C 364.273 102.085,365.216 103.143,366.027 104.035 C 366.838 104.928,367.583 105.749,367.683 105.860 C 367.783 105.971,368.218 106.491,368.650 107.014 L 369.435 107.965 366.072 107.965 L 362.710 107.965 362.102 107.207 C 361.534 106.500,360.453 105.222,360.036 104.766 C 359.936 104.656,359.568 104.208,359.217 103.771 C 358.610 103.015,357.698 101.920,357.305 101.480 C 357.205 101.367,356.591 100.613,355.940 99.804 C 354.489 98.001,354.346 97.982,352.930 99.416 L 351.843 100.517 351.900 104.241 L 351.957 107.965 349.215 107.965 L 346.472 107.965 346.472 90.882 C 346.472 81.485,346.527 73.743,346.594 73.676 C 346.976 73.294,351.710 73.556,351.820 73.964 M98.767 74.238 C 98.506 74.513,98.206 74.902,98.100 75.102 C 97.994 75.303,97.979 75.385,98.067 75.284 C 98.154 75.184,98.508 74.795,98.853 74.420 C 99.198 74.044,99.426 73.737,99.360 73.737 C 99.295 73.737,99.028 73.962,98.767 74.238 M118.050 75.076 C 118.343 75.929,118.566 76.151,118.341 75.367 C 118.245 75.035,118.090 74.686,117.996 74.591 C 117.901 74.497,117.926 74.715,118.050 75.076 M92.594 76.390 C 92.527 76.657,92.507 76.910,92.550 76.953 C 92.593 76.996,92.683 76.813,92.750 76.546 C 92.817 76.279,92.837 76.026,92.794 75.983 C 92.751 75.940,92.661 76.123,92.594 76.390 M113.609 75.957 C 113.609 76.015,113.732 76.297,113.881 76.584 C 114.031 76.870,114.151 76.982,114.149 76.832 C 114.146 76.682,114.024 76.400,113.877 76.206 C 113.730 76.011,113.609 75.899,113.609 75.957 M118.889 77.205 C 119.521 77.634,119.881 77.758,119.436 77.395 C 119.185 77.190,118.898 77.022,118.798 77.021 C 118.698 77.020,118.739 77.103,118.889 77.205 M96.609 78.675 C 96.462 79.410,96.485 81.384,96.645 81.785 C 96.713 81.956,96.768 81.198,96.768 80.101 C 96.768 77.880,96.768 77.879,96.609 78.675 M103.468 79.017 C 103.468 79.568,103.502 79.793,103.544 79.518 C 103.586 79.242,103.586 78.792,103.544 78.516 C 103.502 78.241,103.468 78.466,103.468 79.017 M110.013 79.016 C 110.016 79.697,110.063 79.896,110.158 79.638 C 110.235 79.429,110.233 78.979,110.153 78.637 C 110.024 78.084,110.008 78.125,110.013 79.016 M120.528 78.186 C 120.528 78.262,122.558 79.616,123.259 80.008 C 123.502 80.144,123.502 80.131,123.259 79.891 C 122.928 79.565,120.528 78.066,120.528 78.186 M92.191 80.109 C 92.191 81.061,92.222 81.450,92.259 80.974 C 92.297 80.498,92.297 79.720,92.259 79.244 C 92.222 78.769,92.191 79.158,92.191 80.109 M114.572 79.290 C 114.573 79.791,114.609 79.974,114.650 79.697 C 114.692 79.420,114.691 79.011,114.648 78.787 C 114.605 78.563,114.571 78.789,114.572 79.290 M72.502 79.882 C 72.220 80.157,72.158 80.251,72.363 80.091 C 73.054 79.550,73.208 79.522,73.612 79.864 L 74.010 80.200 73.663 79.791 C 73.220 79.268,73.123 79.275,72.502 79.882 M103.603 80.164 C 103.589 80.437,104.117 81.319,104.449 81.576 C 104.761 81.818,104.763 81.813,104.483 81.472 C 104.321 81.273,104.058 80.865,103.899 80.564 C 103.740 80.264,103.607 80.084,103.603 80.164 M109.786 80.443 C 109.786 80.810,108.349 82.111,107.920 82.133 C 107.613 82.149,107.590 82.175,107.828 82.237 C 108.387 82.384,110.241 80.685,109.897 80.342 C 109.836 80.281,109.786 80.326,109.786 80.443 M70.729 81.226 C 70.231 81.641,69.848 82.071,69.880 82.182 C 69.962 82.472,70.713 83.558,70.783 83.488 C 70.815 83.455,70.635 83.124,70.382 82.752 L 69.923 82.075 70.692 81.439 C 71.627 80.666,71.833 80.473,71.722 80.473 C 71.675 80.473,71.228 80.812,70.729 81.226 M114.566 81.293 C 114.568 81.693,114.605 81.836,114.649 81.609 C 114.692 81.383,114.690 81.055,114.645 80.881 C 114.599 80.707,114.564 80.892,114.566 81.293 M121.893 81.309 L 121.347 81.778 121.939 81.386 C 122.264 81.171,122.531 80.959,122.531 80.916 C 122.531 80.780,122.454 80.827,121.893 81.309 M63.268 81.930 C 62.715 82.431,62.330 82.840,62.411 82.840 C 62.493 82.840,62.842 82.547,63.187 82.188 C 64.372 80.956,64.172 80.865,67.332 84.069 C 68.902 85.661,69.440 86.179,68.528 85.221 C 67.615 84.262,66.352 82.924,65.721 82.249 C 64.350 80.781,64.513 80.802,63.268 81.930 M75.173 81.901 C 75.375 82.185,75.685 82.533,75.860 82.674 C 76.036 82.816,75.904 82.583,75.565 82.157 C 74.871 81.283,74.613 81.115,75.173 81.901 M92.275 82.522 C 92.233 82.813,92.112 82.916,91.853 82.878 C 91.571 82.837,91.546 82.864,91.745 82.998 C 92.130 83.257,92.490 83.039,92.490 82.548 C 92.490 81.997,92.352 81.980,92.275 82.522 M87.028 82.485 C 86.250 82.573,86.491 82.605,88.105 82.628 C 89.248 82.645,90.149 82.629,90.108 82.592 C 89.940 82.447,87.969 82.378,87.028 82.485 M106.283 82.423 C 106.510 82.466,106.838 82.465,107.012 82.419 C 107.186 82.374,107.000 82.338,106.600 82.340 C 106.199 82.342,106.057 82.379,106.283 82.423 M84.618 82.787 C 84.844 82.830,85.172 82.829,85.346 82.783 C 85.520 82.738,85.335 82.702,84.934 82.704 C 84.533 82.706,84.391 82.743,84.618 82.787 M119.127 83.098 C 118.846 83.340,118.657 83.567,118.707 83.602 C 118.757 83.638,119.034 83.440,119.322 83.162 C 119.966 82.542,119.827 82.496,119.127 83.098 M207.172 82.929 C 201.098 83.952,197.262 88.107,196.494 94.492 C 196.404 95.244,196.396 96.145,196.477 96.495 C 196.557 96.846,196.625 97.460,196.627 97.861 C 196.646 101.921,201.012 106.901,205.735 108.250 C 208.359 108.998,214.056 108.825,215.792 107.944 C 215.966 107.856,216.213 107.783,216.342 107.783 C 217.031 107.783,220.857 105.093,220.839 104.620 C 220.829 104.357,218.260 100.822,218.021 100.742 C 217.921 100.709,217.619 100.887,217.348 101.137 C 217.078 101.388,216.807 101.593,216.746 101.593 C 216.685 101.593,216.374 101.787,216.055 102.024 C 215.736 102.261,215.066 102.597,214.565 102.771 C 214.065 102.946,213.464 103.179,213.231 103.290 C 212.593 103.592,207.563 103.567,206.901 103.258 C 205.377 102.547,205.060 102.352,204.280 101.651 C 203.373 100.835,202.458 99.290,202.458 98.572 L 202.458 98.134 212.392 98.134 C 223.483 98.134,223.042 98.185,222.833 96.913 C 222.754 96.433,222.684 95.614,222.678 95.093 C 222.672 94.572,222.595 93.957,222.508 93.727 C 222.420 93.497,222.252 92.904,222.135 92.410 C 222.018 91.915,221.680 90.988,221.384 90.349 C 221.089 89.710,220.847 89.151,220.847 89.106 C 220.847 87.877,215.671 83.569,214.194 83.569 C 213.988 83.569,213.741 83.492,213.646 83.398 C 213.089 82.847,209.290 82.572,207.172 82.929 M245.244 82.956 C 243.942 83.231,243.821 83.275,242.243 84.041 C 240.683 84.799,238.993 86.552,238.221 88.211 C 238.104 88.463,238.038 87.872,238.007 86.299 C 237.983 85.048,237.920 83.839,237.867 83.614 L 237.772 83.204 232.320 83.204 C 225.895 83.204,226.491 82.920,226.491 85.992 C 226.491 88.587,226.340 88.461,229.507 88.524 L 232.044 88.575 232.044 95.767 L 232.044 102.959 229.313 103.050 L 226.582 103.141 226.582 105.599 L 226.582 108.056 235.002 108.104 L 243.423 108.151 243.423 105.605 L 243.423 103.059 240.737 103.009 L 238.052 102.959 238.061 98.862 C 238.073 92.827,238.832 91.047,242.056 89.492 C 244.371 88.376,248.711 88.125,249.695 89.050 C 250.150 89.478,251.252 89.104,251.252 88.521 C 251.252 88.381,251.363 88.008,251.500 87.693 C 251.637 87.377,251.891 86.750,252.065 86.299 C 252.239 85.849,252.455 85.338,252.545 85.164 C 252.937 84.405,252.743 83.770,252.025 83.467 C 250.275 82.726,247.366 82.507,245.244 82.956 M266.363 82.926 C 261.206 83.799,257.725 86.899,256.157 92.016 C 255.661 93.636,255.604 97.987,256.065 99.084 C 256.222 99.456,256.350 99.894,256.350 100.057 C 256.350 102.349,260.310 106.420,263.996 107.917 C 266.102 108.773,271.165 109.055,273.333 108.438 C 273.855 108.290,274.752 108.033,275.326 107.869 C 276.935 107.408,280.018 105.243,280.018 104.575 C 280.018 104.368,277.998 101.386,277.455 100.792 C 277.307 100.630,276.598 101.009,275.986 101.579 C 273.936 103.486,267.927 104.217,265.279 102.881 C 263.542 102.005,262.388 100.729,261.786 99.019 L 261.478 98.143 271.734 98.093 C 277.375 98.065,282.052 97.982,282.126 97.907 C 282.305 97.729,281.874 94.405,281.448 92.672 C 279.767 85.832,273.421 81.733,266.363 82.926 M295.585 82.754 C 295.485 82.791,295.043 82.913,294.604 83.026 C 293.677 83.265,291.853 84.990,291.853 85.628 C 291.853 86.560,291.503 85.555,291.452 84.479 L 291.397 83.295 288.666 83.295 L 285.935 83.295 285.889 95.721 L 285.842 108.147 288.652 108.147 L 291.463 108.147 291.533 99.636 C 291.620 88.942,291.843 87.805,293.815 87.974 C 295.372 88.108,295.551 89.419,295.467 100.046 L 295.403 108.056 298.257 108.107 L 301.110 108.157 301.190 99.367 C 301.276 89.805,301.315 89.429,302.299 88.443 C 302.995 87.748,303.928 87.790,304.488 88.543 C 304.862 89.046,304.872 89.264,304.961 98.557 L 305.052 108.056 307.874 108.056 L 310.696 108.056 310.753 99.408 C 310.807 91.223,310.666 87.589,310.256 86.573 C 308.405 81.991,303.407 81.238,300.958 85.172 L 300.447 85.993 300.063 85.241 C 299.179 83.509,296.930 82.260,295.585 82.754 M325.535 82.914 C 318.751 84.122,315.086 88.658,315.076 95.858 C 315.069 100.802,316.304 103.506,319.886 106.393 C 324.458 110.078,334.087 109.264,337.642 104.892 C 337.843 104.646,338.221 104.192,338.483 103.884 C 339.330 102.887,340.026 101.314,340.666 98.953 C 340.989 97.760,340.998 93.758,340.679 92.672 C 339.691 89.300,338.715 87.580,336.827 85.882 C 335.958 85.102,333.723 83.789,332.817 83.528 C 330.171 82.766,327.590 82.549,325.535 82.914 M83.386 83.022 C 83.011 83.142,82.995 83.171,83.295 83.183 C 83.496 83.192,83.782 83.119,83.933 83.022 C 84.252 82.816,84.030 82.816,83.386 83.022 M61.525 83.523 L 61.083 84.024 61.629 83.569 C 61.930 83.318,62.210 83.093,62.252 83.068 C 62.293 83.043,62.246 83.022,62.147 83.022 C 62.047 83.022,61.767 83.248,61.525 83.523 M212.927 83.499 C 213.327 83.634,213.772 83.746,213.914 83.748 C 215.942 83.769,221.211 88.866,221.211 90.806 C 221.211 90.931,221.273 91.033,221.350 91.033 C 221.426 91.033,221.598 91.463,221.731 91.989 C 221.865 92.515,222.059 93.273,222.163 93.673 C 222.267 94.074,222.388 95.159,222.431 96.086 L 222.510 97.770 212.530 97.772 C 201.692 97.776,202.004 97.745,202.200 98.790 C 202.962 102.853,209.016 105.174,214.019 103.321 C 215.066 102.934,216.642 102.083,217.194 101.607 C 217.981 100.930,218.025 100.956,219.466 103.001 L 220.645 104.673 219.881 105.268 C 219.461 105.595,219.076 105.906,219.026 105.960 C 218.802 106.200,217.412 107.005,216.750 107.278 C 215.954 107.607,215.338 107.793,213.612 108.227 C 212.343 108.545,208.145 108.623,207.264 108.344 C 206.974 108.252,206.245 108.038,205.644 107.868 C 195.997 105.135,193.518 91.830,201.495 85.604 C 202.468 84.845,204.556 83.751,205.032 83.751 C 205.232 83.751,205.574 83.652,205.793 83.532 C 206.689 83.038,211.501 83.016,212.927 83.499 M251.519 83.582 C 252.508 83.930,252.660 84.131,252.390 84.724 C 251.834 85.949,251.616 86.523,251.616 86.763 C 251.616 86.911,251.538 87.175,251.443 87.349 C 251.347 87.523,251.133 87.972,250.967 88.348 C 250.673 89.011,250.298 89.220,250.068 88.848 C 250.006 88.748,249.772 88.666,249.548 88.666 C 249.323 88.666,249.048 88.575,248.936 88.462 C 248.560 88.087,245.544 88.036,244.191 88.382 C 238.851 89.749,237.069 93.327,237.679 101.457 L 237.813 103.232 240.308 103.232 C 243.396 103.232,243.241 103.095,243.241 105.817 L 243.241 107.965 235.042 107.965 L 226.844 107.965 226.895 105.644 L 226.946 103.323 229.578 103.272 C 231.404 103.237,232.254 103.153,232.352 102.999 C 232.572 102.653,232.533 88.888,232.310 88.472 C 232.137 88.149,231.906 88.120,229.483 88.120 L 226.844 88.120 226.895 85.890 L 226.946 83.660 231.771 83.607 C 234.424 83.578,236.859 83.601,237.182 83.660 L 237.769 83.765 237.819 86.352 C 237.873 89.125,237.962 89.343,238.573 88.211 C 240.910 83.878,246.591 81.847,251.519 83.582 M272.166 83.502 C 272.504 83.639,272.930 83.751,273.114 83.751 C 274.308 83.751,277.552 86.096,278.905 87.938 C 280.524 90.143,281.551 93.140,281.728 96.177 L 281.821 97.770 271.748 97.770 C 260.860 97.770,261.081 97.750,261.353 98.717 C 262.023 101.093,264.276 103.117,266.958 103.754 C 268.504 104.121,272.438 103.880,273.000 103.384 C 273.095 103.300,273.302 103.232,273.460 103.232 C 273.864 103.232,275.831 102.193,276.377 101.692 C 277.095 101.033,278.015 101.228,278.015 102.039 C 278.015 102.103,278.101 102.254,278.206 102.375 C 279.467 103.828,279.845 104.559,279.523 104.920 C 278.613 105.940,276.196 107.344,274.647 107.753 C 274.247 107.858,273.550 108.046,273.100 108.170 C 270.957 108.757,266.791 108.553,264.452 107.746 C 259.168 105.923,255.985 101.386,255.985 95.676 C 255.985 93.848,256.271 92.173,256.722 91.354 C 256.817 91.180,256.896 90.913,256.896 90.759 C 256.896 90.605,257.101 90.155,257.351 89.759 C 257.601 89.362,257.806 88.965,257.806 88.876 C 257.806 88.652,259.261 86.828,259.763 86.422 C 259.990 86.239,260.300 85.965,260.452 85.813 C 260.926 85.339,263.811 83.751,264.199 83.751 C 264.401 83.751,264.745 83.652,264.964 83.532 C 265.874 83.031,270.953 83.010,272.166 83.502 M298.078 83.535 C 298.513 83.733,298.965 84.172,299.353 84.774 C 300.519 86.582,300.364 86.450,300.727 85.942 C 302.325 83.703,303.190 83.168,305.233 83.159 C 307.418 83.149,308.863 84.024,309.597 85.804 C 309.772 86.227,310.008 86.736,310.122 86.937 C 310.269 87.194,310.349 90.334,310.393 97.633 L 310.456 107.965 307.891 107.965 L 305.325 107.965 305.325 99.020 C 305.325 89.684,305.275 88.997,304.535 88.166 C 303.763 87.299,301.502 87.942,301.502 89.028 C 301.502 89.190,301.428 89.400,301.339 89.495 C 300.987 89.866,300.774 94.183,300.774 100.920 L 300.774 107.965 298.225 107.965 L 295.676 107.965 295.676 98.691 C 295.676 92.704,295.611 89.376,295.494 89.304 C 295.394 89.242,295.312 89.058,295.312 88.895 C 295.312 87.800,293.241 87.315,292.397 88.213 C 291.430 89.242,291.420 89.344,291.353 98.999 L 291.290 107.965 288.657 107.965 L 286.024 107.965 286.071 95.812 L 286.117 83.660 288.712 83.609 L 291.306 83.559 291.309 84.792 C 291.311 85.471,291.383 86.139,291.471 86.277 C 291.664 86.582,292.035 86.390,292.035 85.987 C 292.035 85.589,293.443 83.751,293.748 83.751 C 293.883 83.751,294.091 83.632,294.212 83.487 C 294.635 82.976,296.913 83.005,298.078 83.535 M331.520 83.502 C 331.857 83.638,332.284 83.751,332.467 83.751 C 333.611 83.751,336.665 85.901,338.154 87.756 C 340.328 90.464,341.452 97.437,340.098 99.815 C 339.999 99.989,339.918 100.276,339.917 100.453 C 339.916 101.135,338.713 103.200,337.463 104.663 C 334.518 108.113,328.201 109.485,323.259 107.749 C 321.557 107.152,318.989 105.494,318.161 104.460 C 313.736 98.930,314.346 90.248,319.463 85.935 C 320.493 85.067,322.853 83.763,323.408 83.755 C 323.589 83.753,323.917 83.652,324.136 83.532 C 325.043 83.033,330.310 83.011,331.520 83.502 M113.935 83.846 C 113.879 84.044,113.777 84.370,113.710 84.570 C 113.642 84.770,113.720 84.704,113.883 84.422 C 114.045 84.141,114.147 83.815,114.108 83.699 C 114.069 83.582,113.991 83.649,113.935 83.846 M97.412 84.115 C 97.415 84.265,97.537 84.547,97.684 84.741 C 98.028 85.196,98.026 85.027,97.680 84.363 C 97.530 84.076,97.410 83.964,97.412 84.115 M61.356 84.224 C 61.356 84.317,62.442 85.457,63.769 86.757 L 66.181 89.122 63.814 86.670 C 62.513 85.321,61.427 84.181,61.402 84.136 C 61.377 84.091,61.356 84.130,61.356 84.224 M79.112 84.659 C 78.411 85.058,78.122 85.135,77.837 84.999 C 77.480 84.828,77.480 84.831,77.815 85.101 C 78.126 85.350,79.668 84.779,80.276 84.188 C 80.507 83.964,79.901 84.209,79.112 84.659 M118.384 84.706 C 118.074 85.564,118.117 85.796,118.446 85.039 C 118.595 84.696,118.692 84.342,118.662 84.252 C 118.632 84.162,118.507 84.367,118.384 84.706 M112.797 86.163 C 112.427 86.789,112.243 87.178,112.389 87.028 C 112.703 86.702,113.682 85.025,113.557 85.025 C 113.509 85.025,113.167 85.537,112.797 86.163 M86.755 86.936 C 86.855 86.970,87.674 87.033,88.575 87.077 C 89.477 87.120,90.009 87.094,89.759 87.019 C 89.325 86.889,86.374 86.807,86.755 86.936 M100.377 87.619 C 100.771 87.995,101.183 88.302,101.293 88.302 C 101.402 88.302,101.289 88.167,101.042 88.001 C 100.794 87.836,100.382 87.528,100.126 87.318 C 99.870 87.109,99.983 87.244,100.377 87.619 M75.014 88.803 C 75.829 89.829,76.532 90.669,76.576 90.669 C 76.685 90.669,75.018 88.565,74.197 87.665 C 73.831 87.264,74.199 87.777,75.014 88.803 M111.116 88.439 L 110.208 89.486 110.106 91.215 C 110.037 92.385,110.053 92.680,110.155 92.126 C 110.237 91.675,110.311 90.881,110.319 90.361 C 110.326 89.841,110.407 89.370,110.498 89.314 C 110.715 89.180,112.211 87.392,112.106 87.392 C 112.062 87.392,111.616 87.863,111.116 88.439 M206.567 88.131 C 204.814 88.797,202.640 90.736,202.640 91.634 C 202.640 91.764,202.551 91.960,202.442 92.068 C 202.334 92.177,202.272 92.459,202.306 92.696 L 202.367 93.127 209.103 93.178 C 217.547 93.241,217.174 93.334,216.178 91.414 C 214.581 88.336,210.079 86.798,206.567 88.131 M266.181 87.970 C 263.683 89.011,262.369 90.225,261.684 92.126 C 261.289 93.221,261.271 93.218,268.659 93.218 C 272.287 93.218,275.384 93.168,275.543 93.108 C 276.906 92.584,273.757 88.607,271.644 88.184 C 271.339 88.123,271.045 88.002,270.991 87.915 C 270.854 87.692,266.734 87.740,266.181 87.970 M325.535 87.924 C 325.385 88.004,324.781 88.305,324.194 88.592 C 322.599 89.371,321.569 90.680,320.770 92.945 C 320.143 94.723,320.420 98.905,321.218 99.703 C 321.289 99.775,321.347 99.969,321.347 100.136 C 321.347 101.808,325.493 104.091,328.193 103.906 C 331.505 103.680,335.002 101.088,335.002 98.860 C 335.002 98.701,335.096 98.477,335.210 98.363 C 335.344 98.229,335.418 97.338,335.418 95.858 C 335.418 94.378,335.344 93.487,335.210 93.353 C 335.096 93.239,335.002 92.972,335.002 92.761 C 335.002 91.711,333.176 89.455,331.577 88.530 C 330.367 87.830,326.444 87.436,325.535 87.924 M211.366 88.136 C 213.839 88.890,215.987 90.734,216.148 92.240 L 216.204 92.763 209.467 92.763 L 202.731 92.763 202.786 92.243 C 202.949 90.718,204.930 88.987,207.465 88.156 C 208.220 87.908,210.579 87.896,211.366 88.136 M271.112 88.319 C 273.097 88.966,274.399 90.041,275.193 91.689 C 275.786 92.919,276.146 92.854,268.719 92.854 L 261.994 92.854 261.994 92.401 C 261.994 89.528,267.399 87.108,271.112 88.319 M330.222 88.285 C 334.704 89.923,336.533 95.070,334.296 99.748 C 332.003 104.544,324.731 104.961,321.847 100.462 C 319.593 96.948,320.606 91.277,323.873 89.115 C 325.665 87.930,328.305 87.584,330.222 88.285 M80.018 89.137 L 79.472 89.607 80.109 89.196 C 80.927 88.668,80.929 88.666,80.731 88.667 C 80.640 88.668,80.319 88.879,80.018 89.137 M68.460 91.670 C 69.810 93.072,70.946 94.260,70.985 94.310 C 71.024 94.360,70.968 94.238,70.861 94.037 C 70.753 93.837,69.617 92.649,68.335 91.397 L 66.005 89.122 68.460 91.670 M115.604 89.986 C 115.266 90.412,115.133 90.645,115.309 90.503 C 115.641 90.237,116.421 89.213,116.292 89.213 C 116.252 89.213,115.943 89.561,115.604 89.986 M74.465 91.488 C 75.613 92.640,76.594 93.582,76.644 93.582 C 76.694 93.582,75.796 92.640,74.647 91.488 C 73.499 90.337,72.518 89.395,72.468 89.395 C 72.418 89.395,73.317 90.337,74.465 91.488 M78.380 90.400 C 77.838 90.881,77.359 91.169,77.196 91.111 C 76.982 91.033,76.971 91.060,77.143 91.233 C 77.335 91.427,79.381 89.983,79.381 89.654 C 79.381 89.520,79.310 89.573,78.380 90.400 M84.024 91.313 C 83.723 91.450,83.605 91.567,83.761 91.571 C 83.917 91.576,84.204 91.459,84.399 91.312 C 84.830 90.986,84.738 90.986,84.024 91.313 M97.770 91.099 C 97.770 91.150,98.015 91.366,98.316 91.579 C 98.616 91.793,98.862 91.927,98.862 91.877 C 98.862 91.827,98.616 91.611,98.316 91.397 C 98.015 91.183,97.770 91.049,97.770 91.099 M114.277 92.657 C 114.210 93.299,114.189 93.859,114.231 93.901 C 114.344 94.013,114.572 92.010,114.479 91.729 C 114.435 91.598,114.344 92.015,114.277 92.657 M87.163 92.581 C 87.369 92.881,87.769 93.332,88.052 93.582 C 88.393 93.884,88.329 93.762,87.862 93.218 C 86.908 92.106,86.716 91.932,87.163 92.581 M82.755 94.083 C 83.028 94.558,83.370 95.071,83.515 95.221 C 83.660 95.371,83.476 94.982,83.106 94.356 C 82.736 93.730,82.394 93.218,82.346 93.218 C 82.299 93.218,82.482 93.607,82.755 94.083 M109.634 94.432 C 109.511 94.893,109.443 95.302,109.482 95.342 C 109.521 95.381,109.658 95.040,109.786 94.584 C 109.914 94.127,109.982 93.718,109.938 93.674 C 109.894 93.630,109.758 93.971,109.634 94.432 M89.440 94.678 C 89.915 94.977,90.366 95.219,90.441 95.217 C 90.516 95.215,90.189 94.970,89.714 94.671 C 89.238 94.373,88.788 94.130,88.712 94.132 C 88.637 94.134,88.964 94.380,89.440 94.678 M113.723 95.501 C 113.661 95.664,113.617 95.933,113.625 96.100 C 113.634 96.268,113.713 96.163,113.801 95.867 C 113.973 95.292,113.912 95.008,113.723 95.501 M72.519 96.116 C 72.736 96.511,72.940 96.806,72.974 96.773 C 73.062 96.684,72.498 95.628,72.296 95.503 C 72.202 95.446,72.303 95.722,72.519 96.116 M92.135 95.837 C 92.187 95.889,92.703 96.006,93.281 96.097 C 93.859 96.187,94.265 96.201,94.184 96.128 C 94.019 95.978,91.988 95.690,92.135 95.837 M108.723 97.140 C 108.418 97.810,108.476 97.953,108.806 97.344 C 108.960 97.060,109.052 96.793,109.011 96.751 C 108.969 96.710,108.840 96.885,108.723 97.140 M86.208 97.860 C 86.509 98.121,87.000 98.464,87.301 98.622 C 88.050 99.015,87.850 98.835,86.664 98.049 C 86.022 97.624,85.858 97.556,86.208 97.860 M108.081 98.543 L 107.753 99.135 108.128 98.680 C 108.461 98.276,108.609 97.952,108.460 97.952 C 108.431 97.952,108.261 98.218,108.081 98.543 M112.365 99.507 C 112.060 100.177,112.118 100.319,112.448 99.711 C 112.602 99.427,112.694 99.160,112.652 99.118 C 112.610 99.077,112.481 99.252,112.365 99.507 M107.055 100.137 C 106.841 100.437,106.707 100.683,106.757 100.683 C 106.807 100.683,107.023 100.437,107.237 100.137 C 107.451 99.836,107.585 99.590,107.535 99.590 C 107.485 99.590,107.269 99.836,107.055 100.137 M79.381 100.319 C 79.595 100.619,79.811 100.865,79.861 100.865 C 79.911 100.865,79.777 100.619,79.563 100.319 C 79.349 100.018,79.133 99.772,79.083 99.772 C 79.033 99.772,79.167 100.018,79.381 100.319 M90.851 100.128 C 91.001 100.230,91.281 100.314,91.473 100.316 C 91.939 100.320,91.794 100.215,91.124 100.066 C 90.725 99.976,90.652 99.993,90.851 100.128 M93.127 100.323 L 92.035 100.419 93.008 100.505 C 93.543 100.553,94.073 100.535,94.186 100.465 C 94.524 100.256,94.276 100.223,93.127 100.323 M111.284 101.515 C 111.059 101.858,110.911 102.139,110.955 102.139 C 111.082 102.139,111.836 101.034,111.761 100.958 C 111.724 100.921,111.509 101.172,111.284 101.515 M81.186 102.363 C 81.729 102.931,82.548 103.651,83.007 103.963 C 83.731 104.454,83.757 104.462,83.204 104.018 C 82.854 103.736,82.035 103.017,81.384 102.418 L 80.200 101.330 81.186 102.363 M104.597 102.922 C 104.197 103.330,104.070 103.505,104.317 103.311 C 105.123 102.676,105.482 102.326,105.403 102.253 C 105.360 102.213,104.998 102.514,104.597 102.922 M110.063 103.251 C 109.696 103.762,109.482 104.126,109.588 104.061 C 109.810 103.924,110.938 102.321,110.813 102.321 C 110.768 102.321,110.430 102.740,110.063 103.251 M102.939 104.202 C 102.528 104.519,102.037 104.885,101.847 105.014 C 101.657 105.142,101.850 105.066,102.275 104.844 C 102.701 104.622,103.227 104.250,103.445 104.018 C 103.972 103.457,103.841 103.505,102.939 104.202 M78.198 105.599 C 78.893 106.299,79.503 106.873,79.553 106.873 C 79.603 106.873,79.075 106.299,78.380 105.599 C 77.684 104.898,77.074 104.324,77.024 104.324 C 76.974 104.324,77.502 104.898,78.198 105.599 M108.142 105.553 L 106.964 106.782 108.193 105.604 C 108.869 104.956,109.422 104.403,109.422 104.375 C 109.422 104.241,109.237 104.412,108.142 105.553 M86.482 106.054 C 86.732 106.197,87.019 106.314,87.119 106.314 C 87.219 106.314,87.096 106.197,86.846 106.054 C 86.595 105.911,86.309 105.794,86.208 105.794 C 86.108 105.794,86.231 105.911,86.482 106.054 M106.223 107.197 C 105.915 107.469,105.424 107.880,105.130 108.110 C 104.837 108.340,104.966 108.288,105.416 107.995 C 106.126 107.533,107.071 106.681,106.856 106.696 C 106.815 106.699,106.530 106.925,106.223 107.197 M89.668 107.047 C 90.017 107.205,90.992 107.308,90.836 107.170 C 90.794 107.133,90.432 107.053,90.032 106.992 C 89.524 106.915,89.414 106.932,89.668 107.047 M96.131 107.055 C 95.501 107.188,95.500 107.189,96.040 107.210 C 96.340 107.222,96.709 107.152,96.859 107.055 C 97.163 106.859,97.062 106.859,96.131 107.055 M92.631 107.371 C 93.059 107.409,93.715 107.409,94.088 107.369 C 94.461 107.330,94.110 107.299,93.309 107.300 C 92.508 107.300,92.203 107.332,92.631 107.371 M80.655 107.668 C 80.655 107.718,80.901 107.934,81.202 108.147 C 81.502 108.361,81.748 108.495,81.748 108.445 C 81.748 108.395,81.502 108.179,81.202 107.965 C 80.901 107.751,80.655 107.617,80.655 107.668 M82.294 108.775 C 82.294 108.825,82.540 108.993,82.840 109.149 C 83.141 109.304,83.386 109.390,83.386 109.340 C 83.386 109.290,83.141 109.122,82.840 108.967 C 82.540 108.811,82.294 108.725,82.294 108.775 M89.880 111.728 C 89.813 111.795,89.759 113.222,89.759 114.899 C 89.759 116.577,89.709 118.079,89.648 118.237 C 89.517 118.579,85.675 118.673,85.509 118.339 C 85.458 118.236,85.437 118.256,85.463 118.384 C 85.524 118.688,89.359 118.815,89.652 118.523 C 89.772 118.404,89.886 117.057,89.941 115.104 L 90.032 111.883 90.578 111.766 L 91.124 111.650 90.563 111.628 C 90.254 111.616,89.947 111.661,89.880 111.728 M94.275 114.073 C 94.306 115.320,94.388 116.341,94.457 116.341 C 94.620 116.341,94.512 112.104,94.345 111.934 C 94.276 111.863,94.245 112.826,94.275 114.073 M98.680 116.128 C 98.680 116.274,98.071 116.352,96.723 116.379 L 94.766 116.417 96.661 116.477 C 98.414 116.531,99.147 116.382,98.804 116.040 C 98.736 115.972,98.680 116.011,98.680 116.128 " stroke="none" fill="#aca4ac" fill-rule="evenodd"></path></g></svg>