<svg id="svg" version="1.1" width="400" height="400" viewBox="0 0 400 400" xmlns="http://www.w3.org/2000/svg" xmlns:xlink="http://www.w3.org/1999/xlink" ><g id="svgg"><path id="path0" d="M255.800 98.694 C 254.920 98.757,253.480 98.989,252.600 99.210 C 251.720 99.431,248.952 99.873,246.450 100.193 C 243.947 100.513,241.487 101.044,240.982 101.375 C 240.478 101.705,238.785 102.243,237.220 102.569 C 235.655 102.895,233.906 103.531,233.333 103.981 C 232.761 104.432,232.049 104.800,231.752 104.800 C 231.455 104.800,230.084 105.398,228.706 106.128 C 227.328 106.859,225.840 107.578,225.400 107.727 C 224.683 107.970,223.377 108.810,221.000 110.558 C 214.123 115.614,205.686 124.476,202.845 129.627 C 202.413 130.411,201.785 131.281,201.450 131.559 C 201.115 131.837,200.630 132.704,200.371 133.486 C 200.113 134.269,199.474 135.539,198.951 136.310 C 198.428 137.081,198.000 137.984,198.000 138.317 C 198.000 138.650,197.546 139.883,196.991 141.057 C 196.435 142.230,195.817 144.048,195.616 145.095 C 195.415 146.143,194.973 147.661,194.633 148.470 C 193.269 151.712,192.491 164.392,193.187 172.056 C 193.867 179.554,193.421 180.443,189.785 178.834 C 187.972 178.033,184.106 177.522,176.000 177.013 C 169.951 176.634,154.609 177.756,152.400 178.740 C 151.410 179.180,149.082 179.748,147.226 180.000 C 145.062 180.294,143.500 180.735,142.872 181.229 C 142.333 181.653,141.583 182.000,141.206 182.000 C 140.828 182.000,139.660 182.457,138.611 183.015 C 137.561 183.573,135.842 184.214,134.791 184.439 C 133.740 184.665,132.563 185.199,132.176 185.626 C 131.789 186.054,130.737 186.601,129.836 186.842 C 128.936 187.083,127.930 187.536,127.600 187.850 C 125.620 189.731,123.909 190.459,122.645 189.960 C 121.215 189.395,120.000 188.448,120.000 187.898 C 120.000 187.691,119.453 186.954,118.784 186.260 C 116.630 184.027,116.129 183.419,115.601 182.400 C 115.316 181.850,114.558 180.770,113.917 180.000 C 113.276 179.230,112.357 178.115,111.875 177.522 C 110.202 175.460,108.593 173.534,107.500 172.282 C 106.895 171.589,106.400 170.793,106.400 170.514 C 106.400 170.235,105.860 169.525,105.200 168.937 C 104.540 168.349,104.000 167.700,104.000 167.494 C 104.000 167.289,103.505 166.634,102.900 166.039 C 102.295 165.444,101.188 164.218,100.440 163.314 C 98.832 161.372,98.729 161.390,95.200 164.259 C 93.770 165.422,92.150 166.740,91.600 167.187 C 91.050 167.635,89.547 168.808,88.260 169.794 C 86.973 170.780,85.311 172.122,84.566 172.776 L 83.213 173.964 83.994 175.786 C 84.423 176.787,86.760 179.953,89.187 182.821 C 91.614 185.688,93.600 188.200,93.600 188.403 C 93.600 188.606,94.095 189.320,94.700 189.988 C 95.305 190.657,96.196 191.698,96.680 192.302 C 97.164 192.906,98.244 194.248,99.080 195.284 C 99.916 196.320,101.140 197.893,101.800 198.779 C 102.460 199.665,103.499 200.977,104.109 201.695 C 104.719 202.413,105.619 203.503,106.109 204.118 C 106.599 204.733,107.585 205.864,108.300 206.632 C 109.015 207.399,109.600 208.193,109.600 208.397 C 109.600 208.864,116.064 216.565,117.909 218.295 L 119.289 219.590 120.945 217.858 C 121.855 216.905,122.898 215.963,123.261 215.763 C 123.625 215.563,124.906 214.500,126.108 213.400 C 127.311 212.300,129.137 210.770,130.166 210.000 C 131.196 209.230,132.525 208.221,133.119 207.758 C 133.714 207.295,134.920 206.688,135.800 206.409 C 136.680 206.130,137.760 205.586,138.200 205.200 C 138.640 204.814,139.705 204.272,140.567 203.996 C 141.430 203.720,142.690 203.177,143.367 202.791 C 144.045 202.405,145.312 201.964,146.181 201.811 C 147.051 201.658,148.424 201.196,149.231 200.784 C 150.039 200.372,152.297 199.838,154.250 199.597 C 156.202 199.356,158.790 198.857,160.000 198.490 C 163.311 197.483,179.517 197.491,181.749 198.500 C 182.601 198.885,184.442 199.383,185.840 199.606 C 187.237 199.830,189.222 200.460,190.250 201.006 C 191.278 201.553,192.507 202.000,192.982 202.000 C 193.456 202.000,194.455 202.450,195.200 203.000 C 195.945 203.550,196.853 204.000,197.218 204.000 C 197.582 204.000,198.672 204.537,199.640 205.193 C 200.608 205.849,201.690 206.389,202.045 206.393 C 202.400 206.397,203.333 206.895,204.120 207.500 C 204.906 208.105,206.586 209.230,207.853 210.000 C 209.120 210.770,210.526 211.722,210.978 212.116 C 211.430 212.510,212.413 213.230,213.163 213.716 C 213.912 214.202,215.189 215.050,216.000 215.600 C 216.811 216.150,218.088 216.998,218.837 217.484 C 219.587 217.970,220.620 218.735,221.134 219.184 C 221.648 219.633,222.282 220.000,222.543 220.000 C 222.804 220.000,223.644 220.515,224.409 221.143 C 225.174 221.772,226.250 222.424,226.800 222.591 C 227.350 222.758,228.070 223.116,228.400 223.386 C 229.072 223.936,234.850 226.800,235.289 226.800 C 235.732 226.800,238.400 221.013,238.400 220.051 C 238.400 219.575,238.835 218.334,239.367 217.293 C 239.898 216.252,240.459 214.605,240.613 213.634 C 240.767 212.663,241.312 211.078,241.826 210.113 C 242.914 208.067,242.767 207.344,241.194 206.999 C 240.568 206.861,239.849 206.500,239.596 206.195 C 239.344 205.891,238.296 205.328,237.268 204.945 C 235.248 204.191,233.745 203.207,232.067 201.539 C 231.480 200.955,229.650 199.360,228.000 197.993 C 226.350 196.626,224.833 195.214,224.628 194.854 C 224.424 194.494,223.794 193.721,223.228 193.136 C 221.182 191.017,220.388 189.840,219.977 188.313 C 219.746 187.458,219.299 186.659,218.982 186.538 C 218.665 186.416,218.136 185.406,217.805 184.292 C 217.474 183.178,216.922 181.956,216.578 181.575 C 216.233 181.195,215.778 179.656,215.565 178.155 C 215.353 176.655,214.920 175.032,214.603 174.549 C 213.149 172.330,212.975 156.718,214.384 155.019 C 214.601 154.758,215.056 153.346,215.396 151.881 C 215.736 150.416,216.461 148.376,217.007 147.349 C 217.553 146.321,218.000 145.272,218.000 145.016 C 218.000 144.760,218.371 144.153,218.824 143.666 C 219.277 143.180,219.849 142.207,220.094 141.503 C 221.016 138.858,227.308 131.897,231.600 128.773 C 234.659 126.547,238.092 124.400,238.592 124.400 C 238.823 124.400,239.690 124.037,240.519 123.592 C 241.347 123.148,243.055 122.537,244.313 122.233 C 245.571 121.930,247.320 121.370,248.200 120.989 C 251.535 119.545,267.673 119.809,270.090 121.348 C 270.591 121.666,272.021 122.133,273.269 122.385 C 274.517 122.638,275.747 123.096,276.003 123.403 C 276.258 123.711,277.418 124.239,278.581 124.577 C 279.744 124.915,280.944 125.492,281.248 125.858 C 281.551 126.224,282.385 126.768,283.100 127.067 C 283.815 127.366,284.400 127.771,284.400 127.966 C 284.400 128.161,284.985 128.671,285.700 129.099 C 286.415 129.526,288.325 131.109,289.945 132.617 C 292.665 135.149,293.696 136.409,295.779 139.750 C 296.208 140.438,296.779 141.136,297.049 141.303 C 297.319 141.470,297.756 142.280,298.019 143.103 C 298.283 143.926,298.826 144.960,299.225 145.400 C 299.625 145.840,300.140 147.041,300.370 148.068 C 300.601 149.095,301.152 150.551,301.596 151.303 C 303.804 155.045,303.713 175.813,301.475 179.230 C 301.121 179.769,300.631 181.198,300.384 182.405 C 300.138 183.612,299.604 185.069,299.199 185.642 C 298.794 186.215,298.263 187.422,298.020 188.325 C 297.777 189.228,297.383 190.087,297.144 190.235 C 296.905 190.382,296.359 191.245,295.931 192.152 C 295.190 193.719,294.093 195.453,292.515 197.549 C 291.796 198.504,291.479 198.962,289.551 201.836 C 288.974 202.696,286.997 204.930,285.157 206.800 L 281.812 210.200 281.555 215.600 C 281.234 222.339,279.494 235.071,278.679 236.647 C 278.343 237.296,277.942 238.541,277.787 239.414 C 277.632 240.286,276.986 242.200,276.352 243.667 C 275.719 245.134,275.200 246.619,275.200 246.967 C 275.200 247.315,274.748 248.455,274.196 249.500 C 273.644 250.545,272.916 252.030,272.578 252.800 C 272.013 254.090,271.071 255.770,269.000 259.182 C 268.560 259.908,267.795 260.999,267.300 261.608 C 266.805 262.217,266.400 262.892,266.400 263.109 C 266.400 263.325,266.101 263.749,265.735 264.051 C 265.370 264.353,264.754 265.118,264.368 265.752 C 262.750 268.406,254.427 277.147,251.302 279.475 C 250.476 280.091,248.791 281.406,247.557 282.397 C 246.324 283.389,244.718 284.560,243.989 285.000 C 240.482 287.118,238.855 288.038,237.200 288.841 C 236.210 289.322,234.990 290.034,234.488 290.424 C 233.987 290.814,232.862 291.254,231.988 291.402 C 231.115 291.550,230.265 291.898,230.100 292.177 C 229.673 292.897,228.212 293.599,227.126 293.606 C 226.617 293.609,225.750 293.871,225.200 294.189 C 223.276 295.299,222.471 295.548,219.437 295.970 C 217.756 296.203,215.970 296.664,215.468 296.992 C 212.124 299.184,184.582 299.107,179.000 296.891 C 177.900 296.454,176.010 295.964,174.800 295.801 C 173.590 295.638,171.970 295.190,171.200 294.805 C 170.430 294.421,168.673 293.823,167.296 293.479 C 165.919 293.134,164.319 292.480,163.742 292.026 C 163.165 291.572,162.401 291.197,162.046 291.193 C 161.691 291.189,160.608 290.649,159.640 289.993 C 158.672 289.337,157.592 288.797,157.240 288.793 C 156.661 288.786,155.268 287.971,151.800 285.608 C 149.164 283.812,146.134 281.557,144.946 280.508 C 144.257 279.898,142.734 278.590,141.563 277.600 C 140.393 276.610,138.673 274.990,137.742 274.000 C 132.987 268.943,131.910 267.710,131.369 266.700 C 131.045 266.095,130.594 265.600,130.367 265.600 C 130.141 265.600,129.597 264.790,129.159 263.800 C 128.721 262.810,128.196 262.000,127.992 262.000 C 127.787 262.000,127.322 261.415,126.956 260.700 C 126.591 259.985,126.060 259.264,125.777 259.098 C 125.494 258.931,124.969 257.912,124.611 256.833 C 124.252 255.753,123.714 254.776,123.416 254.661 C 123.117 254.547,122.581 253.451,122.225 252.226 C 121.869 251.002,121.408 250.000,121.200 250.000 C 120.992 250.000,120.523 248.965,120.157 247.700 C 119.791 246.435,119.172 244.992,118.782 244.492 C 118.392 243.993,117.948 242.643,117.795 241.492 C 117.641 240.342,117.149 238.797,116.701 238.061 C 116.196 237.230,115.776 235.602,115.598 233.778 L 115.310 230.835 111.955 227.474 C 110.110 225.626,103.075 218.463,96.321 211.557 C 89.568 204.651,81.018 195.915,77.321 192.145 C 69.353 184.019,61.123 175.325,60.695 174.583 C 60.413 174.093,58.310 172.000,56.360 170.267 C 55.605 169.598,55.475 169.589,54.836 170.167 C 54.452 170.515,53.996 170.800,53.825 170.800 C 53.653 170.800,52.029 172.285,50.216 174.100 C 48.403 175.915,45.570 178.630,43.921 180.133 C 39.554 184.113,38.553 182.378,54.600 198.629 C 59.660 203.753,64.880 209.106,66.200 210.524 C 67.992 212.450,80.618 225.676,87.656 233.000 C 87.867 233.220,88.400 233.760,88.840 234.200 C 89.280 234.640,89.792 235.154,89.977 235.343 C 90.163 235.531,91.150 236.521,92.171 237.543 C 93.192 238.564,94.384 239.769,94.821 240.221 C 95.993 241.433,97.873 245.538,98.199 247.600 C 98.356 248.590,98.853 250.005,99.302 250.744 C 99.752 251.483,100.267 252.878,100.448 253.844 C 100.628 254.810,101.130 256.095,101.563 256.700 C 101.997 257.305,102.544 258.546,102.780 259.459 C 103.016 260.371,103.467 261.217,103.782 261.338 C 104.097 261.459,104.579 262.332,104.853 263.279 C 105.128 264.225,105.736 265.471,106.205 266.047 C 106.675 266.623,107.292 267.658,107.578 268.347 C 107.863 269.036,108.233 269.600,108.400 269.600 C 108.567 269.600,108.937 270.185,109.224 270.900 C 109.511 271.615,110.253 272.791,110.873 273.514 C 111.493 274.237,112.000 275.081,112.000 275.391 C 112.000 275.701,112.331 276.190,112.737 276.477 C 113.142 276.765,113.686 277.401,113.946 277.891 C 114.206 278.381,114.819 279.221,115.309 279.757 C 115.799 280.293,116.740 281.401,117.400 282.218 C 119.949 285.373,124.351 289.923,127.800 292.967 C 129.780 294.715,131.639 296.383,131.931 296.675 C 132.223 296.967,132.853 297.413,133.331 297.666 C 133.809 297.920,134.435 298.458,134.723 298.863 C 135.010 299.269,135.436 299.600,135.670 299.600 C 135.903 299.600,136.702 300.095,137.445 300.700 C 138.187 301.305,139.392 302.283,140.122 302.873 C 140.852 303.464,141.920 304.065,142.495 304.209 C 143.070 304.354,143.846 304.809,144.219 305.221 C 144.592 305.633,145.550 306.179,146.348 306.436 C 147.147 306.692,148.070 307.123,148.400 307.394 C 149.141 308.003,155.749 311.200,156.267 311.200 C 156.474 311.200,157.218 311.794,157.922 312.519 L 159.200 313.838 159.200 332.459 C 159.200 344.948,159.345 351.495,159.639 352.340 L 160.078 353.600 169.375 353.600 L 178.672 353.600 179.136 352.581 C 179.461 351.867,179.600 347.153,179.600 336.807 C 179.600 319.248,179.931 317.943,184.052 319.259 C 184.794 319.495,189.217 319.804,193.881 319.944 C 200.010 320.129,202.506 320.344,202.881 320.719 C 203.267 321.105,203.451 323.785,203.600 331.159 C 203.854 343.748,202.535 342.400,214.595 342.400 L 224.291 342.400 224.546 340.544 C 224.686 339.523,224.800 333.776,224.800 327.773 C 224.800 315.430,224.686 315.877,227.930 315.447 C 229.020 315.302,230.379 314.817,230.948 314.369 C 231.518 313.921,232.866 313.415,233.943 313.245 C 235.021 313.074,236.399 312.545,237.005 312.067 C 237.612 311.590,238.288 311.200,238.509 311.200 C 239.044 311.200,245.639 308.019,246.400 307.394 C 246.730 307.123,247.675 306.684,248.500 306.420 C 249.325 306.155,250.000 305.775,250.000 305.576 C 250.000 305.376,250.855 304.758,251.900 304.200 C 252.945 303.643,254.610 302.560,255.600 301.794 C 256.590 301.027,258.010 300.085,258.756 299.700 C 259.501 299.315,261.008 298.145,262.104 297.100 C 263.200 296.055,264.225 295.200,264.381 295.200 C 264.706 295.200,276.322 283.578,276.827 282.748 C 277.010 282.446,277.538 281.750,278.000 281.200 C 278.463 280.650,279.539 279.210,280.393 278.000 C 281.247 276.790,282.226 275.440,282.569 275.000 C 284.157 272.963,285.251 271.263,285.980 269.700 C 286.415 268.765,286.938 268.000,287.142 268.000 C 287.346 268.000,287.813 267.250,288.180 266.333 C 288.547 265.417,289.196 264.222,289.623 263.679 C 290.051 263.136,290.400 262.382,290.400 262.002 C 290.400 261.622,290.842 260.660,291.382 259.864 C 291.923 259.068,292.562 257.686,292.802 256.792 C 293.043 255.899,293.681 254.339,294.220 253.325 C 294.759 252.311,295.201 251.103,295.201 250.640 C 295.202 250.178,295.564 249.208,296.006 248.484 C 296.447 247.760,297.002 245.870,297.239 244.284 C 297.477 242.698,298.022 240.500,298.452 239.400 C 298.881 238.300,299.413 235.960,299.634 234.200 C 299.854 232.440,300.230 229.740,300.469 228.200 C 300.708 226.660,301.122 223.989,301.389 222.264 C 301.768 219.815,302.104 218.894,302.921 218.064 C 303.957 217.011,304.894 215.914,307.077 213.200 C 309.636 210.018,310.712 208.532,311.348 207.300 C 311.718 206.585,312.176 206.000,312.367 206.000 C 312.557 206.000,312.819 205.580,312.948 205.066 C 313.076 204.553,313.726 203.448,314.391 202.611 C 315.056 201.775,315.600 200.779,315.600 200.399 C 315.600 200.019,315.964 199.245,316.409 198.680 C 316.853 198.115,317.490 196.878,317.824 195.933 C 318.157 194.987,318.672 193.845,318.967 193.394 C 319.262 192.944,319.733 191.501,320.013 190.188 C 320.294 188.875,320.840 187.260,321.228 186.600 C 321.616 185.940,322.050 184.680,322.193 183.800 C 322.337 182.920,322.538 181.740,322.642 181.177 C 322.763 180.518,323.570 179.625,324.915 178.665 C 328.174 176.338,331.327 174.400,331.853 174.400 C 332.116 174.400,332.752 174.041,333.266 173.603 C 334.798 172.296,338.965 169.602,339.457 169.601 C 339.709 169.600,340.021 169.322,340.152 168.982 C 340.282 168.642,340.976 168.116,341.694 167.813 C 343.006 167.260,346.090 164.400,345.374 164.400 C 345.164 164.400,344.495 163.939,343.888 163.376 C 343.280 162.813,342.202 162.109,341.492 161.811 C 340.781 161.513,339.660 160.804,339.000 160.235 C 338.340 159.666,337.603 159.201,337.362 159.200 C 337.121 159.200,336.598 158.840,336.200 158.400 C 335.802 157.960,335.251 157.600,334.976 157.600 C 334.701 157.600,333.722 156.970,332.800 156.200 C 331.878 155.430,330.893 154.800,330.611 154.800 C 330.329 154.800,329.863 154.517,329.576 154.171 C 329.289 153.825,328.411 153.192,327.627 152.764 C 323.934 150.751,322.625 149.437,322.284 147.402 C 322.105 146.337,321.598 144.959,321.156 144.339 C 320.715 143.719,320.210 142.301,320.034 141.189 C 319.847 140.004,319.380 138.854,318.907 138.414 C 318.464 138.001,317.985 137.043,317.843 136.286 C 317.701 135.529,317.235 134.593,316.807 134.207 C 316.380 133.820,315.817 132.850,315.556 132.052 C 315.095 130.643,314.532 129.767,312.359 127.085 C 311.786 126.378,311.082 125.350,310.795 124.800 C 310.508 124.250,309.942 123.565,309.537 123.277 C 309.131 122.990,308.800 122.560,308.800 122.322 C 308.800 122.084,306.955 120.116,304.700 117.949 C 302.445 115.782,300.143 113.557,299.585 113.004 C 299.027 112.452,298.390 112.000,298.170 112.000 C 297.950 112.000,297.147 111.467,296.385 110.816 C 295.623 110.165,294.767 109.625,294.482 109.616 C 294.197 109.607,293.530 109.167,293.001 108.637 C 292.472 108.108,291.411 107.468,290.644 107.215 C 289.877 106.962,288.834 106.429,288.325 106.032 C 287.816 105.635,286.950 105.181,286.400 105.022 C 285.850 104.864,284.500 104.322,283.400 103.817 C 279.807 102.169,273.862 100.462,270.800 100.199 C 269.150 100.057,266.900 99.695,265.800 99.393 C 263.774 98.838,258.727 98.485,255.800 98.694 M258.600 144.193 C 249.990 148.528,245.783 157.505,249.106 164.453 C 249.775 165.854,250.436 167.383,250.573 167.850 C 250.900 168.967,253.148 171.258,255.069 172.433 C 255.911 172.948,256.838 173.602,257.129 173.885 C 257.419 174.168,257.694 174.400,257.739 174.400 C 257.784 174.400,259.256 174.579,261.010 174.797 C 265.301 175.331,271.383 174.487,272.260 173.236 C 272.582 172.776,273.069 172.400,273.342 172.400 C 273.964 172.400,276.286 169.939,277.781 167.694 C 280.569 163.508,280.434 153.750,277.546 150.650 C 277.136 150.209,276.800 149.691,276.800 149.498 C 276.800 148.786,273.752 146.285,272.220 145.741 C 271.351 145.432,270.297 144.869,269.878 144.489 C 268.806 143.520,260.378 143.298,258.600 144.193 M159.398 217.428 C 159.179 217.773,158.100 218.243,157.000 218.471 C 155.900 218.700,154.640 219.211,154.200 219.607 C 153.760 220.004,152.590 220.541,151.600 220.801 C 150.610 221.061,149.260 221.600,148.600 222.000 C 147.940 222.400,146.627 222.932,145.682 223.184 C 142.981 223.902,142.467 226.993,144.624 229.555 C 145.132 230.160,145.665 231.120,145.808 231.689 C 145.951 232.258,146.502 233.133,147.034 233.632 C 147.565 234.131,148.000 234.753,148.000 235.013 C 148.000 235.274,148.628 236.278,149.396 237.244 C 150.164 238.210,150.794 239.115,150.796 239.255 C 150.803 239.703,160.321 249.130,161.278 249.636 C 161.785 249.905,163.169 250.951,164.353 251.962 C 166.416 253.723,168.163 254.800,171.200 256.182 C 171.970 256.533,172.870 256.996,173.200 257.212 C 173.530 257.428,174.430 257.891,175.200 258.241 C 175.970 258.590,177.500 259.303,178.600 259.825 C 179.700 260.347,181.680 260.976,183.000 261.224 C 184.320 261.471,185.798 261.926,186.285 262.236 C 188.059 263.364,200.340 264.479,201.391 263.608 C 202.191 262.943,202.311 244.471,201.520 243.680 C 201.241 243.401,199.906 243.200,198.335 243.200 C 196.556 243.200,194.565 242.860,192.515 242.205 C 190.802 241.658,189.030 241.208,188.578 241.205 C 188.125 241.202,187.170 240.768,186.454 240.240 C 185.739 239.712,184.552 239.167,183.817 239.030 C 183.082 238.892,182.259 238.511,181.987 238.185 C 181.716 237.858,180.753 237.232,179.847 236.794 C 177.684 235.748,174.188 233.312,172.852 231.920 C 172.070 231.104,171.393 230.426,170.480 229.541 C 170.106 229.179,169.350 228.325,168.800 227.643 C 168.250 226.962,167.320 225.872,166.733 225.223 C 166.147 224.573,165.537 223.627,165.379 223.120 C 165.220 222.614,164.665 221.691,164.145 221.069 C 163.625 220.447,163.200 219.698,163.200 219.405 C 163.200 217.953,160.090 216.336,159.398 217.428 " stroke="none" fill="#655574" fill-rule="evenodd"></path><path id="path1" d="M0.000 200.000 L 0.000 400.000 200.000 400.000 L 400.000 400.000 400.000 200.000 L 400.000 0.000 200.000 0.000 L 0.000 0.000 0.000 200.000 M268.147 97.613 C 269.657 97.831,271.367 98.270,271.947 98.587 C 272.526 98.905,274.434 99.341,276.187 99.556 C 278.227 99.808,279.535 100.170,279.824 100.565 C 280.072 100.904,281.248 101.383,282.437 101.629 C 283.627 101.875,285.240 102.509,286.022 103.038 C 286.803 103.567,287.721 104.000,288.061 104.000 C 288.401 104.000,289.472 104.537,290.440 105.193 C 291.408 105.849,292.415 106.389,292.677 106.393 C 292.940 106.397,293.393 106.740,293.684 107.156 C 293.975 107.571,294.916 108.205,295.774 108.564 C 296.633 108.922,297.585 109.572,297.891 110.008 C 298.196 110.444,298.658 110.800,298.918 110.800 C 299.179 110.800,299.843 111.240,300.396 111.778 C 302.506 113.834,304.132 115.200,304.468 115.200 C 304.660 115.200,305.022 115.650,305.273 116.200 C 305.523 116.750,305.965 117.200,306.255 117.200 C 306.545 117.200,307.100 117.686,307.490 118.281 C 307.879 118.875,308.558 119.752,308.999 120.230 C 309.439 120.708,310.250 121.668,310.800 122.364 C 311.350 123.059,312.227 124.102,312.748 124.681 C 313.270 125.259,313.932 126.288,314.219 126.966 C 314.507 127.645,315.116 128.513,315.571 128.896 C 316.027 129.279,316.403 129.819,316.407 130.096 C 316.411 130.373,316.951 131.392,317.607 132.360 C 318.263 133.328,318.800 134.439,318.800 134.830 C 318.800 135.220,319.251 136.075,319.802 136.730 C 320.421 137.465,320.903 138.663,321.063 139.860 C 321.209 140.956,321.706 142.263,322.205 142.865 C 322.790 143.569,323.181 144.744,323.361 146.339 C 323.620 148.627,323.701 148.771,324.969 149.190 C 325.703 149.432,326.640 150.008,327.052 150.470 C 327.463 150.932,328.385 151.558,329.100 151.861 C 329.815 152.163,330.400 152.590,330.400 152.809 C 330.400 153.027,331.096 153.485,331.947 153.826 C 332.798 154.166,333.877 154.885,334.345 155.422 C 334.812 155.960,335.468 156.400,335.802 156.400 C 336.537 156.400,341.200 159.527,341.200 160.020 C 341.200 160.212,341.875 160.561,342.700 160.795 C 344.372 161.269,347.600 163.979,347.600 164.908 C 347.600 165.723,344.912 168.093,343.197 168.791 C 342.429 169.104,341.565 169.684,341.277 170.080 C 340.990 170.476,340.523 170.800,340.239 170.800 C 339.956 170.800,339.381 171.186,338.962 171.658 C 338.543 172.130,337.435 172.858,336.500 173.277 C 335.565 173.695,334.800 174.215,334.800 174.433 C 334.800 174.650,334.035 175.195,333.100 175.644 C 326.403 178.855,323.803 181.324,323.393 184.859 C 323.241 186.167,322.699 188.023,322.188 188.984 C 321.677 189.944,321.134 191.569,320.980 192.594 C 320.824 193.636,320.282 194.954,319.750 195.586 C 319.228 196.207,318.800 197.013,318.800 197.378 C 318.800 198.263,317.674 200.400,317.208 200.400 C 317.003 200.400,316.718 201.032,316.573 201.803 C 316.428 202.575,315.931 203.688,315.468 204.277 C 315.005 204.865,314.351 205.825,314.013 206.410 C 312.242 209.484,311.707 210.265,310.700 211.247 C 310.095 211.838,309.600 212.472,309.600 212.656 C 309.600 212.841,309.163 213.443,308.630 213.996 C 306.917 215.768,305.811 217.074,305.367 217.847 C 305.129 218.261,304.560 218.771,304.101 218.980 C 303.106 219.435,302.801 220.735,302.797 224.550 C 302.793 227.980,302.195 232.087,301.421 234.000 C 301.109 234.770,300.657 236.834,300.417 238.586 C 300.176 240.338,299.720 242.168,299.403 242.652 C 299.086 243.136,298.634 244.762,298.399 246.266 C 298.165 247.770,297.641 249.457,297.237 250.016 C 296.832 250.574,296.374 251.654,296.220 252.416 C 296.065 253.177,295.510 254.700,294.985 255.800 C 294.461 256.900,293.835 258.574,293.595 259.521 C 293.355 260.467,292.899 261.340,292.583 261.462 C 292.267 261.583,291.809 262.424,291.565 263.330 C 291.321 264.237,290.689 265.492,290.161 266.120 C 289.632 266.748,289.200 267.493,289.200 267.776 C 289.200 268.059,288.660 268.969,288.000 269.800 C 287.340 270.631,286.800 271.551,286.800 271.846 C 286.800 272.140,286.350 272.676,285.800 273.037 C 285.250 273.397,284.797 273.986,284.794 274.346 C 284.790 274.706,284.250 275.609,283.594 276.354 C 282.937 277.099,282.400 277.866,282.400 278.058 C 282.400 278.250,281.860 278.972,281.200 279.663 C 280.540 280.354,280.000 281.141,280.000 281.413 C 280.000 281.685,279.550 282.203,279.000 282.563 C 278.450 282.924,278.000 283.447,278.000 283.726 C 278.000 284.487,265.847 296.400,265.071 296.400 C 264.702 296.400,264.400 296.674,264.400 297.009 C 264.400 297.343,263.953 297.821,263.406 298.070 C 262.859 298.319,262.135 298.946,261.796 299.462 C 261.458 299.978,260.947 300.400,260.661 300.400 C 260.374 300.400,259.730 300.836,259.230 301.368 C 258.730 301.900,257.754 302.568,257.060 302.853 C 256.367 303.137,255.472 303.781,255.071 304.285 C 254.670 304.788,254.111 305.200,253.829 305.200 C 253.547 305.200,252.849 305.634,252.276 306.164 C 251.704 306.695,250.706 307.245,250.059 307.387 C 249.412 307.529,248.573 307.988,248.193 308.408 C 247.814 308.827,246.850 309.379,246.052 309.634 C 245.253 309.890,244.240 310.424,243.800 310.821 C 243.360 311.218,242.145 311.757,241.100 312.019 C 240.055 312.281,239.200 312.625,239.200 312.783 C 239.200 313.237,237.244 314.012,235.050 314.429 C 233.945 314.638,232.672 315.146,232.221 315.557 C 231.769 315.968,230.500 316.434,229.400 316.592 C 225.786 317.111,226.068 316.019,225.926 330.036 L 225.800 342.472 224.856 343.236 C 223.175 344.596,203.684 344.244,202.268 342.828 C 201.942 342.502,201.758 339.165,201.662 331.818 L 201.523 321.275 192.262 321.121 C 187.026 321.034,182.783 321.126,182.500 321.332 C 182.115 321.614,182.000 325.275,182.000 337.275 C 182.000 353.907,181.983 354.049,179.949 354.758 C 177.506 355.610,159.863 355.341,158.744 354.436 L 157.800 353.671 157.600 334.336 L 157.400 315.000 156.454 313.739 C 155.837 312.918,154.900 312.308,153.765 311.990 C 152.807 311.722,151.443 311.074,150.734 310.551 C 150.025 310.028,149.129 309.600,148.743 309.600 C 148.357 309.600,147.568 309.161,146.989 308.625 C 146.410 308.089,145.436 307.540,144.823 307.405 C 144.211 307.271,143.326 306.719,142.858 306.180 C 142.389 305.641,141.650 305.200,141.217 305.200 C 140.783 305.200,139.813 304.660,139.061 304.000 C 138.309 303.340,137.506 302.800,137.276 302.800 C 137.046 302.800,136.530 302.394,136.129 301.898 C 135.728 301.402,134.905 300.776,134.300 300.507 C 133.695 300.237,133.200 299.763,133.200 299.452 C 133.200 299.141,132.753 298.775,132.207 298.638 C 131.127 298.366,129.540 297.056,125.983 293.500 C 124.718 292.235,123.479 291.200,123.229 291.200 C 122.979 291.200,122.661 290.902,122.521 290.538 C 122.381 290.174,120.767 288.345,118.933 286.474 C 117.100 284.603,115.600 282.938,115.600 282.774 C 115.600 282.610,114.970 281.722,114.200 280.800 C 113.430 279.878,112.800 278.942,112.800 278.720 C 112.800 278.497,112.350 277.961,111.800 277.529 C 111.250 277.096,110.800 276.554,110.800 276.324 C 110.800 276.094,110.260 275.291,109.600 274.539 C 108.940 273.787,108.400 272.829,108.400 272.409 C 108.400 271.989,108.053 271.402,107.629 271.105 C 107.205 270.808,106.627 270.033,106.345 269.383 C 106.062 268.732,105.419 267.691,104.916 267.069 C 104.412 266.447,104.000 265.606,104.000 265.200 C 104.000 264.794,103.570 263.951,103.045 263.327 C 102.520 262.703,101.910 261.539,101.690 260.741 C 101.469 259.942,100.929 258.929,100.488 258.488 C 100.002 258.002,99.571 256.843,99.393 255.544 C 99.217 254.256,98.744 252.977,98.210 252.340 C 97.639 251.661,97.225 250.476,97.056 249.036 C 96.891 247.636,96.504 246.504,96.025 246.025 C 95.603 245.603,95.137 244.456,94.990 243.476 C 94.788 242.126,94.490 241.587,93.762 241.255 C 93.233 241.014,92.800 240.539,92.800 240.200 C 92.800 239.861,92.370 239.387,91.844 239.147 C 91.318 238.908,90.692 238.282,90.453 237.756 C 90.213 237.230,89.739 236.800,89.400 236.800 C 89.061 236.800,88.587 236.370,88.347 235.844 C 88.108 235.318,87.482 234.692,86.956 234.453 C 86.430 234.213,86.000 233.829,86.000 233.599 C 86.000 233.369,82.895 230.063,79.100 226.252 C 69.464 216.574,63.752 210.604,62.933 209.354 C 62.549 208.767,58.762 204.830,54.517 200.603 C 50.273 196.377,46.800 192.725,46.800 192.487 C 46.800 192.249,46.429 191.936,45.976 191.792 C 45.522 191.648,44.953 191.096,44.711 190.565 C 44.470 190.034,44.099 189.600,43.889 189.600 C 43.344 189.600,40.440 186.535,39.987 185.482 C 39.779 184.997,39.331 184.220,38.992 183.755 C 38.328 182.845,39.391 181.639,46.200 175.577 C 47.520 174.402,49.303 172.712,50.162 171.820 C 51.021 170.929,52.124 169.930,52.612 169.600 C 53.100 169.270,53.960 168.672,54.523 168.272 C 55.644 167.473,57.200 167.889,57.200 168.987 C 57.200 169.295,57.515 169.650,57.900 169.777 C 58.285 169.904,59.320 170.826,60.200 171.827 C 61.080 172.827,63.780 175.690,66.200 178.189 C 68.620 180.687,74.290 186.558,78.800 191.236 C 83.310 195.913,89.115 201.900,91.700 204.541 C 94.285 207.182,96.400 209.581,96.400 209.872 C 96.400 210.162,96.603 210.400,96.851 210.400 C 97.413 210.400,103.200 216.222,103.200 216.787 C 103.200 217.014,103.408 217.200,103.663 217.200 C 104.201 217.200,109.600 222.640,109.600 223.181 C 109.600 223.382,110.140 223.930,110.800 224.400 C 111.460 224.870,112.000 225.512,112.000 225.827 C 112.000 226.142,112.177 226.400,112.393 226.400 C 113.733 226.400,116.431 229.947,116.678 232.033 C 116.818 233.213,117.258 234.731,117.656 235.405 C 118.054 236.079,118.554 237.861,118.767 239.365 C 119.011 241.092,119.441 242.413,119.935 242.950 C 120.364 243.417,120.839 244.560,120.991 245.488 C 121.142 246.417,121.627 247.635,122.067 248.195 C 122.508 248.754,123.053 249.883,123.279 250.702 C 123.506 251.522,124.120 252.703,124.645 253.327 C 125.170 253.951,125.600 254.783,125.600 255.176 C 125.600 255.569,126.140 256.569,126.800 257.400 C 127.460 258.231,128.000 259.124,128.000 259.385 C 128.000 259.647,128.450 260.283,129.000 260.800 C 129.550 261.317,130.000 261.909,130.000 262.117 C 130.000 262.325,130.537 263.106,131.194 263.855 C 131.851 264.603,132.496 265.644,132.628 266.170 C 132.760 266.695,133.210 267.214,133.629 267.323 C 134.048 267.433,134.559 267.965,134.765 268.507 C 134.970 269.048,135.424 269.600,135.773 269.734 C 136.122 269.868,136.605 270.413,136.848 270.945 C 137.090 271.477,137.718 272.108,138.244 272.347 C 138.770 272.587,139.200 273.061,139.200 273.401 C 139.200 273.741,139.635 274.185,140.166 274.387 C 140.697 274.589,141.246 275.115,141.386 275.557 C 141.526 275.998,141.971 276.464,142.374 276.592 C 142.777 276.720,143.651 277.314,144.316 277.912 C 146.294 279.692,147.722 280.797,149.100 281.616 C 149.815 282.041,150.400 282.568,150.400 282.789 C 150.400 283.009,151.030 283.452,151.800 283.774 C 152.570 284.096,153.200 284.534,153.200 284.749 C 153.200 284.963,153.875 285.358,154.700 285.627 C 155.525 285.896,156.682 286.517,157.271 287.008 C 157.861 287.499,158.981 288.020,159.760 288.166 C 160.539 288.312,161.407 288.752,161.689 289.143 C 161.970 289.534,163.100 290.099,164.200 290.399 C 165.300 290.700,166.665 291.284,167.233 291.698 C 167.800 292.112,169.314 292.593,170.595 292.767 C 172.024 292.961,173.115 293.343,173.417 293.755 C 173.768 294.235,174.978 294.552,177.654 294.864 C 179.981 295.135,182.006 295.623,183.000 296.150 C 185.525 297.491,208.178 297.456,211.800 296.105 C 213.120 295.613,215.714 295.029,217.565 294.808 C 219.513 294.575,221.215 294.149,221.606 293.795 C 221.978 293.458,223.496 292.929,224.980 292.619 C 226.463 292.308,227.999 291.763,228.391 291.408 C 228.784 291.052,229.802 290.573,230.653 290.342 C 231.504 290.112,232.560 289.598,233.000 289.200 C 233.440 288.802,234.584 288.245,235.542 287.962 C 236.500 287.680,237.370 287.221,237.477 286.944 C 237.584 286.666,238.330 286.224,239.135 285.962 C 239.941 285.700,241.191 284.971,241.914 284.343 C 242.637 283.714,243.426 283.200,243.668 283.200 C 243.910 283.200,244.527 282.795,245.039 282.300 C 245.966 281.404,246.572 280.905,250.000 278.215 C 253.949 275.115,258.400 270.965,258.400 270.381 C 258.400 270.214,259.474 268.935,260.788 267.539 C 262.101 266.143,263.181 264.777,263.188 264.503 C 263.194 264.230,263.565 263.780,264.011 263.503 C 264.457 263.227,265.193 262.235,265.647 261.300 C 266.100 260.365,266.616 259.600,266.792 259.600 C 266.969 259.600,267.396 258.893,267.742 258.028 C 268.088 257.163,268.604 256.308,268.888 256.128 C 269.172 255.948,269.650 255.080,269.950 254.200 C 270.250 253.320,270.812 252.240,271.198 251.800 C 271.585 251.360,272.023 250.315,272.173 249.478 C 272.322 248.640,272.778 247.622,273.187 247.213 C 273.595 246.805,274.137 245.420,274.393 244.136 C 274.649 242.851,275.186 241.338,275.587 240.773 C 275.988 240.209,276.520 238.429,276.770 236.820 C 277.020 235.210,277.575 233.062,278.003 232.046 C 278.729 230.325,279.600 219.412,279.600 212.030 C 279.600 210.227,279.708 210.065,283.622 205.989 C 285.833 203.685,287.908 201.305,288.232 200.700 C 288.556 200.095,289.005 199.600,289.231 199.600 C 289.456 199.600,289.887 199.011,290.187 198.292 C 290.488 197.572,291.102 196.651,291.552 196.244 C 292.002 195.836,292.565 194.911,292.804 194.187 C 293.043 193.463,293.482 192.777,293.779 192.663 C 294.076 192.549,294.540 191.768,294.809 190.928 C 295.078 190.088,295.620 189.040,296.014 188.600 C 296.407 188.160,296.939 187.009,297.195 186.042 C 297.452 185.075,297.993 183.815,298.397 183.242 C 298.800 182.669,299.334 180.969,299.583 179.465 C 299.832 177.962,300.387 176.074,300.818 175.271 C 302.133 172.818,301.995 156.536,300.638 153.986 C 300.109 152.992,299.550 151.338,299.396 150.310 C 299.241 149.282,298.684 147.856,298.158 147.143 C 297.631 146.429,297.200 145.428,297.200 144.920 C 297.200 144.411,296.759 143.611,296.220 143.142 C 295.681 142.674,295.118 141.736,294.969 141.058 C 294.820 140.380,294.226 139.347,293.649 138.763 C 293.072 138.178,291.340 136.420,289.800 134.855 C 285.283 130.267,284.992 130.000,284.508 130.000 C 284.253 130.000,283.810 129.676,283.523 129.280 C 283.235 128.884,282.370 128.319,281.600 128.025 C 280.830 127.731,279.840 127.089,279.400 126.598 C 278.896 126.036,277.948 125.623,276.839 125.483 C 275.870 125.360,274.577 124.890,273.965 124.438 C 273.295 123.942,271.692 123.446,269.927 123.189 C 268.317 122.954,265.958 122.386,264.685 121.927 C 261.663 120.836,254.363 121.040,250.600 122.319 C 249.280 122.768,247.183 123.250,245.941 123.391 C 244.494 123.555,243.438 123.916,243.005 124.395 C 242.633 124.806,241.630 125.260,240.776 125.404 C 239.922 125.548,238.779 126.016,238.235 126.444 C 237.692 126.871,236.606 127.489,235.823 127.816 C 235.041 128.143,234.400 128.584,234.400 128.795 C 234.400 129.006,233.815 129.472,233.100 129.830 C 231.326 130.719,224.119 137.859,223.188 139.651 C 222.773 140.449,222.179 141.199,221.868 141.319 C 221.556 141.438,221.178 142.191,221.028 142.990 C 220.878 143.790,220.381 144.819,219.923 145.277 C 219.465 145.735,218.924 146.850,218.721 147.755 C 218.518 148.660,218.013 149.760,217.599 150.201 C 217.070 150.764,216.720 152.068,216.418 154.601 C 216.182 156.580,215.688 159.966,215.321 162.125 C 214.759 165.421,214.732 166.382,215.149 168.125 C 215.422 169.266,215.928 172.090,216.274 174.400 C 216.684 177.139,217.165 178.934,217.656 179.560 C 218.071 180.088,218.523 181.230,218.662 182.097 C 218.801 182.965,219.327 184.165,219.831 184.764 C 220.335 185.363,220.877 186.382,221.034 187.027 C 221.192 187.672,221.833 188.791,222.460 189.514 C 223.087 190.237,223.600 191.021,223.600 191.256 C 223.600 191.492,224.050 192.039,224.600 192.471 C 225.150 192.904,225.600 193.510,225.600 193.819 C 225.600 194.127,226.140 194.659,226.800 195.000 C 227.460 195.341,228.000 195.866,228.000 196.167 C 228.000 196.467,228.405 196.818,228.900 196.945 C 229.395 197.072,230.839 198.172,232.109 199.388 C 233.380 200.605,234.581 201.600,234.779 201.600 C 234.977 201.600,235.647 202.024,236.269 202.541 C 236.891 203.059,238.307 203.781,239.415 204.145 C 243.984 205.648,245.074 208.660,242.619 213.000 C 242.121 213.880,241.599 215.470,241.460 216.534 C 241.320 217.598,240.866 218.948,240.450 219.534 C 240.034 220.120,239.472 221.674,239.201 222.986 C 238.642 225.691,236.769 228.002,235.140 227.998 C 233.611 227.994,231.172 227.192,230.952 226.620 C 230.840 226.328,229.954 225.867,228.982 225.595 C 228.010 225.323,227.008 224.851,226.755 224.545 C 226.502 224.240,225.553 223.632,224.647 223.194 C 222.961 222.378,220.925 221.018,219.266 219.599 C 218.752 219.160,218.084 218.800,217.780 218.800 C 217.476 218.800,216.675 218.260,216.000 217.600 C 215.325 216.940,214.540 216.400,214.256 216.400 C 213.972 216.400,213.317 215.950,212.800 215.400 C 212.283 214.850,211.685 214.400,211.469 214.400 C 211.030 214.400,207.994 212.254,206.571 210.937 C 206.058 210.463,204.998 209.863,204.216 209.605 C 203.434 209.347,202.613 208.798,202.392 208.385 C 202.164 207.958,201.345 207.520,200.495 207.369 C 199.673 207.223,198.550 206.689,198.000 206.183 C 197.450 205.677,196.321 205.138,195.490 204.985 C 194.660 204.832,193.739 204.363,193.444 203.941 C 193.091 203.437,192.106 203.045,190.560 202.793 C 189.268 202.583,187.744 202.065,187.171 201.642 C 186.139 200.879,185.160 200.730,173.700 199.589 C 171.322 199.352,169.250 199.363,167.900 199.620 C 166.745 199.840,163.267 200.191,160.172 200.401 C 155.964 200.685,154.069 200.991,152.660 201.615 C 151.623 202.073,149.685 202.624,148.352 202.839 C 147.019 203.053,145.449 203.576,144.864 204.001 C 144.279 204.425,142.911 204.967,141.825 205.205 C 140.738 205.443,139.618 205.968,139.334 206.372 C 139.051 206.777,138.186 207.226,137.411 207.372 C 136.636 207.517,135.526 208.078,134.943 208.618 C 134.360 209.158,133.644 209.600,133.351 209.600 C 133.058 209.600,132.524 210.050,132.163 210.600 C 131.803 211.150,131.341 211.600,131.137 211.600 C 130.933 211.600,129.425 212.770,127.785 214.200 C 126.146 215.630,124.562 216.800,124.266 216.800 C 123.970 216.800,123.523 217.250,123.273 217.800 C 123.022 218.350,122.660 218.800,122.468 218.800 C 122.276 218.800,121.557 219.336,120.871 219.992 C 119.485 221.317,118.765 221.267,117.284 219.743 C 116.780 219.224,116.198 218.800,115.991 218.800 C 115.785 218.800,115.504 218.356,115.368 217.814 C 115.232 217.272,114.778 216.720,114.360 216.587 C 113.941 216.454,113.393 215.953,113.140 215.473 C 112.700 214.638,112.316 214.184,109.947 211.703 C 109.367 211.096,108.621 210.060,108.288 209.399 C 107.955 208.739,107.303 207.856,106.841 207.437 C 106.378 207.018,106.000 206.503,106.000 206.292 C 106.000 206.081,105.530 205.434,104.956 204.854 C 102.298 202.170,99.880 199.328,99.310 198.218 C 98.967 197.548,98.261 196.604,97.743 196.119 C 97.224 195.635,96.800 194.972,96.800 194.646 C 96.800 194.320,96.449 193.943,96.020 193.806 C 95.592 193.670,95.128 193.203,94.990 192.769 C 94.852 192.334,94.320 191.704,93.808 191.368 C 93.295 191.033,92.766 190.317,92.630 189.779 C 92.495 189.241,92.211 188.800,91.998 188.800 C 91.785 188.800,91.114 188.040,90.506 187.111 C 89.898 186.182,89.085 185.102,88.700 184.711 C 88.315 184.320,88.000 183.816,88.000 183.591 C 88.000 183.367,87.010 182.177,85.800 180.947 C 84.590 179.718,83.600 178.559,83.600 178.372 C 83.600 178.184,83.235 177.691,82.789 177.276 C 81.825 176.377,81.099 174.110,81.530 173.340 C 81.925 172.633,87.973 167.600,88.427 167.600 C 88.617 167.600,89.325 167.060,90.000 166.400 C 90.675 165.740,91.462 165.200,91.750 165.200 C 92.037 165.200,92.477 164.750,92.727 164.200 C 92.978 163.650,93.453 163.200,93.782 163.200 C 94.112 163.200,94.658 162.778,94.996 162.262 C 95.538 161.435,97.850 160.400,99.155 160.400 C 99.697 160.400,103.200 163.546,103.200 164.033 C 103.200 164.215,103.628 164.844,104.151 165.431 C 106.515 168.086,108.177 170.169,111.000 174.016 C 111.660 174.916,112.605 176.033,113.100 176.498 C 113.595 176.963,114.000 177.570,114.000 177.845 C 114.000 178.120,114.540 178.730,115.200 179.200 C 115.860 179.670,116.400 180.221,116.400 180.424 C 116.400 180.858,118.793 184.162,120.149 185.600 C 120.667 186.150,121.191 186.891,121.313 187.247 C 121.795 188.656,124.303 188.435,126.200 186.818 C 126.640 186.443,127.736 185.927,128.635 185.671 C 129.534 185.416,130.597 184.845,130.997 184.403 C 131.397 183.962,132.011 183.599,132.362 183.598 C 132.713 183.598,134.080 183.058,135.400 182.400 C 136.720 181.742,138.224 181.202,138.742 181.202 C 139.260 181.201,140.204 180.763,140.838 180.229 C 141.640 179.555,142.694 179.184,144.296 179.013 C 145.563 178.878,147.590 178.376,148.800 177.898 C 150.116 177.377,152.848 176.837,155.600 176.553 C 158.130 176.292,161.190 175.782,162.400 175.421 C 165.682 174.440,181.325 174.664,182.928 175.715 C 183.684 176.211,185.254 176.522,188.054 176.729 C 192.479 177.057,193.027 176.816,191.870 175.051 C 190.251 172.580,190.111 160.610,191.636 155.018 C 192.053 153.488,192.506 151.058,192.641 149.618 C 192.777 148.178,193.298 146.100,193.800 145.000 C 194.301 143.900,194.840 142.216,194.998 141.258 C 195.156 140.299,195.616 139.184,196.021 138.779 C 196.426 138.374,196.963 137.268,197.215 136.321 C 197.466 135.374,197.993 134.240,198.386 133.800 C 198.780 133.360,199.317 132.326,199.581 131.503 C 199.844 130.680,200.292 129.870,200.576 129.703 C 200.860 129.536,201.395 128.806,201.767 128.079 C 202.138 127.353,202.686 126.665,202.985 126.550 C 203.283 126.436,203.630 125.936,203.754 125.440 C 203.879 124.944,204.390 124.088,204.890 123.539 C 206.709 121.543,209.031 118.895,210.391 117.266 C 211.156 116.350,211.971 115.600,212.202 115.600 C 212.433 115.600,213.078 115.105,213.636 114.500 C 215.077 112.936,217.156 111.243,218.472 110.563 C 219.092 110.242,219.600 109.795,219.600 109.569 C 219.600 109.344,220.208 108.905,220.951 108.594 C 221.695 108.284,222.406 107.763,222.531 107.436 C 222.656 107.109,223.528 106.635,224.468 106.382 C 225.409 106.128,226.692 105.489,227.320 104.961 C 227.948 104.432,228.884 104.000,229.400 104.000 C 229.916 104.000,230.865 103.557,231.509 103.015 C 232.153 102.474,233.474 101.852,234.444 101.635 C 235.415 101.417,237.017 100.883,238.005 100.448 C 238.992 100.013,240.970 99.527,242.400 99.368 C 243.830 99.210,245.403 98.817,245.896 98.497 C 247.737 97.298,262.039 96.730,268.147 97.613 M268.400 142.440 C 269.840 142.658,271.446 143.181,272.000 143.613 C 272.550 144.042,273.585 144.655,274.300 144.976 C 275.015 145.297,275.600 145.826,275.600 146.153 C 275.600 146.479,275.947 146.856,276.371 146.991 C 276.795 147.125,277.509 147.857,277.957 148.618 C 278.406 149.378,278.952 150.000,279.171 150.000 C 279.390 150.000,279.763 150.765,280.000 151.700 C 280.237 152.635,280.784 154.055,281.215 154.854 C 282.297 156.860,282.314 161.680,281.245 163.433 C 280.831 164.112,280.368 165.403,280.216 166.303 C 280.064 167.203,279.596 168.358,279.175 168.869 C 276.556 172.054,275.448 173.194,274.756 173.414 C 274.326 173.550,273.568 174.069,273.071 174.565 C 272.469 175.167,271.478 175.550,270.102 175.713 C 268.966 175.848,267.623 176.223,267.118 176.546 C 266.075 177.215,265.444 177.311,262.529 177.246 C 261.266 177.218,260.221 176.964,259.852 176.595 C 259.519 176.262,258.651 175.876,257.923 175.738 C 256.444 175.458,255.295 174.945,254.400 174.168 C 251.968 172.053,249.200 169.123,249.200 168.663 C 249.200 168.358,248.822 167.628,248.361 167.041 C 246.455 164.619,246.352 154.269,248.211 152.060 C 248.726 151.447,249.263 150.489,249.403 149.929 C 250.121 147.069,256.003 142.953,260.200 142.373 C 261.960 142.130,263.488 141.844,263.595 141.737 C 263.702 141.630,264.242 141.656,264.795 141.795 C 265.348 141.933,266.970 142.224,268.400 142.440 M163.264 216.280 C 163.629 216.598,164.047 217.341,164.193 217.929 C 164.338 218.518,164.874 219.450,165.384 220.000 C 165.893 220.550,166.445 221.450,166.609 222.000 C 166.884 222.920,168.108 224.599,169.963 226.600 C 170.371 227.040,170.912 227.805,171.166 228.300 C 171.420 228.795,171.880 229.200,172.187 229.200 C 172.495 229.200,172.856 229.547,172.991 229.971 C 173.217 230.685,174.670 231.792,177.174 233.160 C 177.738 233.468,178.791 234.233,179.514 234.860 C 180.237 235.487,181.148 236.000,181.538 236.000 C 181.929 236.000,182.646 236.369,183.130 236.821 C 183.615 237.272,184.809 237.882,185.785 238.175 C 186.760 238.469,188.042 239.090,188.633 239.555 C 189.434 240.185,190.280 240.402,191.954 240.406 C 193.189 240.410,195.280 240.673,196.600 240.992 C 197.920 241.311,199.570 241.578,200.266 241.586 C 201.163 241.596,201.958 242.014,202.996 243.023 L 204.461 244.445 204.331 254.362 C 204.192 264.898,204.123 265.269,202.180 266.008 C 200.897 266.496,191.927 265.647,191.169 264.967 C 190.821 264.655,189.999 264.400,189.342 264.400 C 187.252 264.400,183.442 263.556,182.200 262.817 C 181.540 262.425,180.286 261.995,179.413 261.863 C 178.540 261.730,177.370 261.286,176.813 260.874 C 176.256 260.463,175.080 259.896,174.200 259.614 C 173.320 259.332,172.240 258.787,171.800 258.403 C 171.360 258.019,170.500 257.587,169.888 257.442 C 169.277 257.297,168.389 256.734,167.916 256.189 C 167.443 255.645,166.745 255.200,166.366 255.200 C 165.662 255.200,163.015 253.271,161.185 251.424 C 160.627 250.861,160.026 250.400,159.850 250.400 C 159.365 250.400,149.600 240.534,149.600 240.045 C 149.600 239.810,149.159 239.330,148.620 238.976 C 148.081 238.623,147.425 237.674,147.161 236.867 C 146.897 236.060,146.258 235.004,145.741 234.519 C 145.223 234.035,144.800 233.388,144.800 233.081 C 144.800 232.775,144.373 232.027,143.850 231.419 C 143.328 230.812,142.697 229.635,142.449 228.805 C 142.200 227.974,141.735 227.078,141.415 226.813 C 141.021 226.485,140.911 225.923,141.073 225.065 C 141.411 223.281,141.831 222.881,144.063 222.218 C 145.145 221.897,146.472 221.287,147.012 220.862 C 147.551 220.438,148.630 219.971,149.409 219.825 C 150.188 219.679,151.474 219.118,152.268 218.580 C 153.062 218.041,154.092 217.599,154.556 217.598 C 155.020 217.596,155.850 217.350,156.400 217.049 C 156.950 216.749,157.940 216.212,158.600 215.855 C 159.951 215.124,162.170 215.327,163.264 216.280 " stroke="none" fill="#fca4bc" fill-rule="evenodd"></path><path id="path2" d="M248.896 97.607 C 247.738 97.776,246.388 98.176,245.896 98.497 C 245.403 98.817,243.830 99.210,242.400 99.368 C 240.970 99.527,238.992 100.013,238.005 100.448 C 237.017 100.883,235.415 101.417,234.444 101.635 C 233.474 101.852,232.153 102.474,231.509 103.015 C 230.865 103.557,229.916 104.000,229.400 104.000 C 228.884 104.000,227.948 104.432,227.320 104.961 C 226.692 105.489,225.409 106.128,224.468 106.382 C 223.528 106.635,222.656 107.109,222.531 107.436 C 222.406 107.763,221.695 108.284,220.951 108.594 C 220.208 108.905,219.600 109.344,219.600 109.569 C 219.600 109.795,219.092 110.242,218.472 110.563 C 217.156 111.243,215.077 112.936,213.636 114.500 C 213.078 115.105,212.433 115.600,212.202 115.600 C 211.971 115.600,211.156 116.350,210.391 117.266 C 209.031 118.895,206.709 121.543,204.890 123.539 C 204.390 124.088,203.879 124.944,203.754 125.440 C 203.630 125.936,203.283 126.436,202.985 126.550 C 202.686 126.665,202.138 127.353,201.767 128.079 C 201.395 128.806,200.860 129.536,200.576 129.703 C 200.292 129.870,199.844 130.680,199.581 131.503 C 199.317 132.326,198.780 133.360,198.386 133.800 C 197.993 134.240,197.466 135.374,197.215 136.321 C 196.963 137.268,196.426 138.374,196.021 138.779 C 195.616 139.184,195.156 140.299,194.998 141.258 C 194.840 142.216,194.301 143.900,193.800 145.000 C 193.298 146.100,192.777 148.178,192.641 149.618 C 192.506 151.058,192.053 153.488,191.636 155.018 C 190.111 160.610,190.251 172.580,191.870 175.051 C 193.027 176.816,192.479 177.057,188.054 176.729 C 185.254 176.522,183.684 176.211,182.928 175.715 C 181.325 174.664,165.682 174.440,162.400 175.421 C 161.190 175.782,158.130 176.292,155.600 176.553 C 152.848 176.837,150.116 177.377,148.800 177.898 C 147.590 178.376,145.563 178.878,144.296 179.013 C 142.694 179.184,141.640 179.555,140.838 180.229 C 140.204 180.763,139.260 181.201,138.742 181.202 C 138.224 181.202,136.720 181.742,135.400 182.400 C 134.080 183.058,132.713 183.598,132.362 183.598 C 132.011 183.599,131.397 183.962,130.997 184.403 C 130.597 184.845,129.534 185.416,128.635 185.671 C 127.736 185.927,126.640 186.443,126.200 186.818 C 124.303 188.435,121.795 188.656,121.313 187.247 C 121.191 186.891,120.667 186.150,120.149 185.600 C 118.793 184.162,116.400 180.858,116.400 180.424 C 116.400 180.221,115.860 179.670,115.200 179.200 C 114.540 178.730,114.000 178.120,114.000 177.845 C 114.000 177.570,113.595 176.963,113.100 176.498 C 112.605 176.033,111.660 174.916,111.000 174.016 C 108.177 170.169,106.515 168.086,104.151 165.431 C 103.628 164.844,103.200 164.215,103.200 164.033 C 103.200 163.546,99.697 160.400,99.155 160.400 C 97.850 160.400,95.538 161.435,94.996 162.262 C 94.658 162.778,94.112 163.200,93.782 163.200 C 93.453 163.200,92.978 163.650,92.727 164.200 C 92.477 164.750,92.037 165.200,91.750 165.200 C 91.462 165.200,90.675 165.740,90.000 166.400 C 89.325 167.060,88.617 167.600,88.427 167.600 C 87.973 167.600,81.925 172.633,81.530 173.340 C 81.099 174.110,81.825 176.377,82.789 177.276 C 83.235 177.691,83.600 178.184,83.600 178.372 C 83.600 178.559,84.590 179.718,85.800 180.947 C 87.010 182.177,88.000 183.367,88.000 183.591 C 88.000 183.816,88.315 184.320,88.700 184.711 C 89.085 185.102,89.898 186.182,90.506 187.111 C 91.114 188.040,91.785 188.800,91.998 188.800 C 92.211 188.800,92.495 189.241,92.630 189.779 C 92.766 190.317,93.295 191.033,93.808 191.368 C 94.320 191.704,94.852 192.334,94.990 192.769 C 95.128 193.203,95.592 193.670,96.020 193.806 C 96.449 193.943,96.800 194.320,96.800 194.646 C 96.800 194.972,97.224 195.635,97.743 196.119 C 98.261 196.604,98.967 197.548,99.310 198.218 C 99.880 199.328,102.298 202.170,104.956 204.854 C 105.530 205.434,106.000 206.081,106.000 206.292 C 106.000 206.503,106.378 207.018,106.841 207.437 C 107.303 207.856,107.955 208.739,108.288 209.399 C 108.621 210.060,109.367 211.096,109.947 211.703 C 112.316 214.184,112.700 214.638,113.140 215.473 C 113.393 215.953,113.941 216.454,114.360 216.587 C 114.778 216.720,115.232 217.272,115.368 217.814 C 115.504 218.356,115.785 218.800,115.991 218.800 C 116.198 218.800,116.780 219.224,117.284 219.743 C 118.765 221.267,119.485 221.317,120.871 219.992 C 121.557 219.336,122.276 218.800,122.468 218.800 C 122.660 218.800,123.022 218.350,123.273 217.800 C 123.523 217.250,123.970 216.800,124.266 216.800 C 124.562 216.800,126.146 215.630,127.785 214.200 C 129.425 212.770,130.933 211.600,131.137 211.600 C 131.341 211.600,131.803 211.150,132.163 210.600 C 132.524 210.050,133.058 209.600,133.351 209.600 C 133.644 209.600,134.360 209.158,134.943 208.618 C 135.526 208.078,136.636 207.517,137.411 207.372 C 138.186 207.226,139.051 206.777,139.334 206.372 C 139.618 205.968,140.738 205.443,141.825 205.205 C 142.911 204.967,144.279 204.425,144.864 204.001 C 145.449 203.576,147.019 203.053,148.352 202.839 C 149.685 202.624,151.623 202.073,152.660 201.615 C 154.069 200.991,155.964 200.685,160.172 200.401 C 163.267 200.191,166.745 199.840,167.900 199.620 C 169.250 199.363,171.322 199.352,173.700 199.589 C 185.160 200.730,186.139 200.879,187.171 201.642 C 187.744 202.065,189.268 202.583,190.560 202.793 C 192.106 203.045,193.091 203.437,193.444 203.941 C 193.739 204.363,194.660 204.832,195.490 204.985 C 196.321 205.138,197.450 205.677,198.000 206.183 C 198.550 206.689,199.673 207.223,200.495 207.369 C 201.345 207.520,202.164 207.958,202.392 208.385 C 202.613 208.798,203.434 209.347,204.216 209.605 C 204.998 209.863,206.058 210.463,206.571 210.937 C 207.994 212.254,211.030 214.400,211.469 214.400 C 211.685 214.400,212.283 214.850,212.800 215.400 C 213.317 215.950,213.972 216.400,214.256 216.400 C 214.540 216.400,215.325 216.940,216.000 217.600 C 216.675 218.260,217.476 218.800,217.780 218.800 C 218.084 218.800,218.752 219.160,219.266 219.599 C 220.925 221.018,222.961 222.378,224.647 223.194 C 225.553 223.632,226.502 224.240,226.755 224.545 C 227.008 224.851,228.010 225.323,228.982 225.595 C 229.954 225.867,230.840 226.328,230.952 226.620 C 231.172 227.192,233.611 227.994,235.140 227.998 C 236.769 228.002,238.642 225.691,239.201 222.986 C 239.472 221.674,240.034 220.120,240.450 219.534 C 240.866 218.948,241.320 217.598,241.460 216.534 C 241.599 215.470,242.121 213.880,242.619 213.000 C 245.074 208.660,243.984 205.648,239.415 204.145 C 238.307 203.781,236.891 203.059,236.269 202.541 C 235.647 202.024,234.977 201.600,234.779 201.600 C 234.581 201.600,233.380 200.605,232.109 199.388 C 230.839 198.172,229.395 197.072,228.900 196.945 C 228.405 196.818,228.000 196.467,228.000 196.167 C 228.000 195.866,227.460 195.341,226.800 195.000 C 226.140 194.659,225.600 194.127,225.600 193.819 C 225.600 193.510,225.150 192.904,224.600 192.471 C 224.050 192.039,223.600 191.492,223.600 191.256 C 223.600 191.021,223.087 190.237,222.460 189.514 C 221.833 188.791,221.192 187.672,221.034 187.027 C 220.877 186.382,220.335 185.363,219.831 184.764 C 219.327 184.165,218.801 182.965,218.662 182.097 C 218.523 181.230,218.071 180.088,217.656 179.560 C 217.165 178.934,216.684 177.139,216.274 174.400 C 215.928 172.090,215.422 169.266,215.149 168.125 C 214.732 166.382,214.759 165.421,215.321 162.125 C 215.688 159.966,216.182 156.580,216.418 154.601 C 216.720 152.068,217.070 150.764,217.599 150.201 C 218.013 149.760,218.518 148.660,218.721 147.755 C 218.924 146.850,219.465 145.735,219.923 145.277 C 220.381 144.819,220.878 143.790,221.028 142.990 C 221.178 142.191,221.556 141.438,221.868 141.319 C 222.179 141.199,222.773 140.449,223.188 139.651 C 224.119 137.859,231.326 130.719,233.100 129.830 C 233.815 129.472,234.400 129.006,234.400 128.795 C 234.400 128.584,235.041 128.143,235.823 127.816 C 236.606 127.489,237.692 126.871,238.235 126.444 C 238.779 126.016,239.922 125.548,240.776 125.404 C 241.630 125.260,242.633 124.806,243.005 124.395 C 243.438 123.916,244.494 123.555,245.941 123.391 C 247.183 123.250,249.280 122.768,250.600 122.319 C 254.363 121.040,261.663 120.836,264.685 121.927 C 265.958 122.386,268.317 122.954,269.927 123.189 C 271.692 123.446,273.295 123.942,273.965 124.438 C 274.577 124.890,275.870 125.360,276.839 125.483 C 277.948 125.623,278.896 126.036,279.400 126.598 C 279.840 127.089,280.830 127.731,281.600 128.025 C 282.370 128.319,283.235 128.884,283.523 129.280 C 283.810 129.676,284.253 130.000,284.508 130.000 C 284.992 130.000,285.283 130.267,289.800 134.855 C 291.340 136.420,293.072 138.178,293.649 138.763 C 294.226 139.347,294.820 140.380,294.969 141.058 C 295.118 141.736,295.681 142.674,296.220 143.142 C 296.759 143.611,297.200 144.411,297.200 144.920 C 297.200 145.428,297.631 146.429,298.158 147.143 C 298.684 147.856,299.241 149.282,299.396 150.310 C 299.550 151.338,300.109 152.992,300.638 153.986 C 301.995 156.536,302.133 172.818,300.818 175.271 C 300.387 176.074,299.832 177.962,299.583 179.465 C 299.334 180.969,298.800 182.669,298.397 183.242 C 297.993 183.815,297.452 185.075,297.195 186.042 C 296.939 187.009,296.407 188.160,296.014 188.600 C 295.620 189.040,295.078 190.088,294.809 190.928 C 294.540 191.768,294.076 192.549,293.779 192.663 C 293.482 192.777,293.043 193.463,292.804 194.187 C 292.565 194.911,292.002 195.836,291.552 196.244 C 291.102 196.651,290.488 197.572,290.187 198.292 C 289.887 199.011,289.456 199.600,289.231 199.600 C 289.005 199.600,288.556 200.095,288.232 200.700 C 287.908 201.305,285.833 203.685,283.622 205.989 C 279.708 210.065,279.600 210.227,279.600 212.030 C 279.600 219.412,278.729 230.325,278.003 232.046 C 277.575 233.062,277.020 235.210,276.770 236.820 C 276.520 238.429,275.988 240.209,275.587 240.773 C 275.186 241.338,274.649 242.851,274.393 244.136 C 274.137 245.420,273.595 246.805,273.187 247.213 C 272.778 247.622,272.322 248.640,272.173 249.478 C 272.023 250.315,271.585 251.360,271.198 251.800 C 270.812 252.240,270.250 253.320,269.950 254.200 C 269.650 255.080,269.172 255.948,268.888 256.128 C 268.604 256.308,268.088 257.163,267.742 258.028 C 267.396 258.893,266.969 259.600,266.792 259.600 C 266.616 259.600,266.100 260.365,265.647 261.300 C 265.193 262.235,264.457 263.227,264.011 263.503 C 263.565 263.780,263.194 264.230,263.188 264.503 C 263.181 264.777,262.101 266.143,260.788 267.539 C 259.474 268.935,258.400 270.214,258.400 270.381 C 258.400 270.965,253.949 275.115,250.000 278.215 C 246.572 280.905,245.966 281.404,245.039 282.300 C 244.527 282.795,243.910 283.200,243.668 283.200 C 243.426 283.200,242.637 283.714,241.914 284.343 C 241.191 284.971,239.941 285.700,239.135 285.962 C 238.330 286.224,237.584 286.666,237.477 286.944 C 237.370 287.221,236.500 287.680,235.542 287.962 C 234.584 288.245,233.440 288.802,233.000 289.200 C 232.560 289.598,231.504 290.112,230.653 290.342 C 229.802 290.573,228.784 291.052,228.391 291.408 C 227.999 291.763,226.463 292.308,224.980 292.619 C 223.496 292.929,221.978 293.458,221.606 293.795 C 221.215 294.149,219.513 294.575,217.565 294.808 C 215.714 295.029,213.120 295.613,211.800 296.105 C 208.178 297.456,185.525 297.491,183.000 296.150 C 182.006 295.623,179.981 295.135,177.654 294.864 C 174.978 294.552,173.768 294.235,173.417 293.755 C 173.115 293.343,172.024 292.961,170.595 292.767 C 169.314 292.593,167.800 292.112,167.233 291.698 C 166.665 291.284,165.300 290.700,164.200 290.399 C 163.100 290.099,161.970 289.534,161.689 289.143 C 161.407 288.752,160.539 288.312,159.760 288.166 C 158.981 288.020,157.861 287.499,157.271 287.008 C 156.682 286.517,155.525 285.896,154.700 285.627 C 153.875 285.358,153.200 284.963,153.200 284.749 C 153.200 284.534,152.570 284.096,151.800 283.774 C 151.030 283.452,150.400 283.009,150.400 282.789 C 150.400 282.568,149.815 282.041,149.100 281.616 C 147.722 280.797,146.294 279.692,144.316 277.912 C 143.651 277.314,142.777 276.720,142.374 276.592 C 141.971 276.464,141.526 275.998,141.386 275.557 C 141.246 275.115,140.697 274.589,140.166 274.387 C 139.635 274.185,139.200 273.741,139.200 273.401 C 139.200 273.061,138.770 272.587,138.244 272.347 C 137.718 272.108,137.090 271.477,136.848 270.945 C 136.605 270.413,136.122 269.868,135.773 269.734 C 135.424 269.600,134.970 269.048,134.765 268.507 C 134.559 267.965,134.048 267.433,133.629 267.323 C 133.210 267.214,132.760 266.695,132.628 266.170 C 132.496 265.644,131.851 264.603,131.194 263.855 C 130.537 263.106,130.000 262.325,130.000 262.117 C 130.000 261.909,129.550 261.317,129.000 260.800 C 128.450 260.283,128.000 259.647,128.000 259.385 C 128.000 259.124,127.460 258.231,126.800 257.400 C 126.140 256.569,125.600 255.569,125.600 255.176 C 125.600 254.783,125.170 253.951,124.645 253.327 C 124.120 252.703,123.506 251.522,123.279 250.702 C 123.053 249.883,122.508 248.754,122.067 248.195 C 121.627 247.635,121.142 246.417,120.991 245.488 C 120.839 244.560,120.364 243.417,119.935 242.950 C 119.441 242.413,119.011 241.092,118.767 239.365 C 118.554 237.861,118.054 236.079,117.656 235.405 C 117.258 234.731,116.818 233.213,116.678 232.033 C 116.431 229.947,113.733 226.400,112.393 226.400 C 112.177 226.400,112.000 226.142,112.000 225.827 C 112.000 225.512,111.460 224.870,110.800 224.400 C 110.140 223.930,109.600 223.382,109.600 223.181 C 109.600 222.640,104.201 217.200,103.663 217.200 C 103.408 217.200,103.200 217.014,103.200 216.787 C 103.200 216.222,97.413 210.400,96.851 210.400 C 96.603 210.400,96.400 210.162,96.400 209.872 C 96.400 209.581,94.285 207.182,91.700 204.541 C 89.115 201.900,83.310 195.913,78.800 191.236 C 74.290 186.558,68.620 180.687,66.200 178.189 C 63.780 175.690,61.080 172.827,60.200 171.827 C 59.320 170.826,58.285 169.904,57.900 169.777 C 57.515 169.650,57.200 169.295,57.200 168.987 C 57.200 167.889,55.644 167.473,54.523 168.272 C 53.960 168.672,53.100 169.270,52.612 169.600 C 52.124 169.930,51.021 170.929,50.162 171.820 C 49.303 172.712,47.520 174.402,46.200 175.577 C 39.391 181.639,38.328 182.845,38.992 183.755 C 39.331 184.220,39.779 184.997,39.987 185.482 C 40.440 186.535,43.344 189.600,43.889 189.600 C 44.099 189.600,44.470 190.034,44.711 190.565 C 44.953 191.096,45.522 191.648,45.976 191.792 C 46.429 191.936,46.800 192.249,46.800 192.487 C 46.800 192.725,50.273 196.377,54.517 200.603 C 58.762 204.830,62.549 208.767,62.933 209.354 C 63.752 210.604,69.464 216.574,79.100 226.252 C 82.895 230.063,86.000 233.369,86.000 233.599 C 86.000 233.829,86.430 234.213,86.956 234.453 C 87.482 234.692,88.108 235.318,88.347 235.844 C 88.587 236.370,89.061 236.800,89.400 236.800 C 89.739 236.800,90.213 237.230,90.453 237.756 C 90.692 238.282,91.318 238.908,91.844 239.147 C 92.370 239.387,92.800 239.861,92.800 240.200 C 92.800 240.539,93.233 241.014,93.762 241.255 C 94.490 241.587,94.788 242.126,94.990 243.476 C 95.137 244.456,95.603 245.603,96.025 246.025 C 96.504 246.504,96.891 247.636,97.056 249.036 C 97.225 250.476,97.639 251.661,98.210 252.340 C 98.744 252.977,99.217 254.256,99.393 255.544 C 99.571 256.843,100.002 258.002,100.488 258.488 C 100.929 258.929,101.469 259.942,101.690 260.741 C 101.910 261.539,102.520 262.703,103.045 263.327 C 103.570 263.951,104.000 264.794,104.000 265.200 C 104.000 265.606,104.412 266.447,104.916 267.069 C 105.419 267.691,106.062 268.732,106.345 269.383 C 106.627 270.033,107.205 270.808,107.629 271.105 C 108.053 271.402,108.400 271.989,108.400 272.409 C 108.400 272.829,108.940 273.787,109.600 274.539 C 110.260 275.291,110.800 276.094,110.800 276.324 C 110.800 276.554,111.250 277.096,111.800 277.529 C 112.350 277.961,112.800 278.497,112.800 278.720 C 112.800 278.942,113.430 279.878,114.200 280.800 C 114.970 281.722,115.600 282.610,115.600 282.774 C 115.600 282.938,117.100 284.603,118.933 286.474 C 120.767 288.345,122.381 290.174,122.521 290.538 C 122.661 290.902,122.979 291.200,123.229 291.200 C 123.479 291.200,124.718 292.235,125.983 293.500 C 129.540 297.056,131.127 298.366,132.207 298.638 C 132.753 298.775,133.200 299.141,133.200 299.452 C 133.200 299.763,133.695 300.237,134.300 300.507 C 134.905 300.776,135.728 301.402,136.129 301.898 C 136.530 302.394,137.046 302.800,137.276 302.800 C 137.506 302.800,138.309 303.340,139.061 304.000 C 139.813 304.660,140.783 305.200,141.217 305.200 C 141.650 305.200,142.389 305.641,142.858 306.180 C 143.326 306.719,144.211 307.271,144.823 307.405 C 145.436 307.540,146.410 308.089,146.989 308.625 C 147.568 309.161,148.357 309.600,148.743 309.600 C 149.129 309.600,150.025 310.028,150.734 310.551 C 151.443 311.074,152.807 311.722,153.765 311.990 C 154.900 312.308,155.837 312.918,156.454 313.739 L 157.400 315.000 157.600 334.336 L 157.800 353.671 158.744 354.436 C 159.863 355.341,177.506 355.610,179.949 354.758 C 181.983 354.049,182.000 353.907,182.000 337.275 C 182.000 325.275,182.115 321.614,182.500 321.332 C 182.783 321.126,187.026 321.034,192.262 321.121 L 201.523 321.275 201.662 331.818 C 201.758 339.165,201.942 342.502,202.268 342.828 C 203.684 344.244,223.175 344.596,224.856 343.236 L 225.800 342.472 225.926 330.036 C 226.068 316.019,225.786 317.111,229.400 316.592 C 230.500 316.434,231.769 315.968,232.221 315.557 C 232.672 315.146,233.945 314.638,235.050 314.429 C 237.244 314.012,239.200 313.237,239.200 312.783 C 239.200 312.625,240.055 312.281,241.100 312.019 C 242.145 311.757,243.360 311.218,243.800 310.821 C 244.240 310.424,245.253 309.890,246.052 309.634 C 246.850 309.379,247.814 308.827,248.193 308.408 C 248.573 307.988,249.412 307.529,250.059 307.387 C 250.706 307.245,251.704 306.695,252.276 306.164 C 252.849 305.634,253.547 305.200,253.829 305.200 C 254.111 305.200,254.670 304.788,255.071 304.285 C 255.472 303.781,256.367 303.137,257.060 302.853 C 257.754 302.568,258.730 301.900,259.230 301.368 C 259.730 300.836,260.374 300.400,260.661 300.400 C 260.947 300.400,261.458 299.978,261.796 299.462 C 262.135 298.946,262.859 298.319,263.406 298.070 C 263.953 297.821,264.400 297.343,264.400 297.009 C 264.400 296.674,264.702 296.400,265.071 296.400 C 265.847 296.400,278.000 284.487,278.000 283.726 C 278.000 283.447,278.450 282.924,279.000 282.563 C 279.550 282.203,280.000 281.685,280.000 281.413 C 280.000 281.141,280.540 280.354,281.200 279.663 C 281.860 278.972,282.400 278.250,282.400 278.058 C 282.400 277.866,282.937 277.099,283.594 276.354 C 284.250 275.609,284.790 274.706,284.794 274.346 C 284.797 273.986,285.250 273.397,285.800 273.037 C 286.350 272.676,286.800 272.140,286.800 271.846 C 286.800 271.551,287.340 270.631,288.000 269.800 C 288.660 268.969,289.200 268.059,289.200 267.776 C 289.200 267.493,289.632 266.748,290.161 266.120 C 290.689 265.492,291.321 264.237,291.565 263.330 C 291.809 262.424,292.267 261.583,292.583 261.462 C 292.899 261.340,293.355 260.467,293.595 259.521 C 293.835 258.574,294.461 256.900,294.985 255.800 C 295.510 254.700,296.065 253.177,296.220 252.416 C 296.374 251.654,296.832 250.574,297.237 250.016 C 297.641 249.457,298.165 247.770,298.399 246.266 C 298.634 244.762,299.086 243.136,299.403 242.652 C 299.720 242.168,300.176 240.338,300.417 238.586 C 300.657 236.834,301.109 234.770,301.421 234.000 C 302.195 232.087,302.793 227.980,302.797 224.550 C 302.801 220.735,303.106 219.435,304.101 218.980 C 304.560 218.771,305.129 218.261,305.367 217.847 C 305.811 217.074,306.917 215.768,308.630 213.996 C 309.163 213.443,309.600 212.841,309.600 212.656 C 309.600 212.472,310.095 211.838,310.700 211.247 C 311.707 210.265,312.242 209.484,314.013 206.410 C 314.351 205.825,315.005 204.865,315.468 204.277 C 315.931 203.688,316.428 202.575,316.573 201.803 C 316.718 201.032,317.003 200.400,317.208 200.400 C 317.674 200.400,318.800 198.263,318.800 197.378 C 318.800 197.013,319.228 196.207,319.750 195.586 C 320.282 194.954,320.824 193.636,320.980 192.594 C 321.134 191.569,321.677 189.944,322.188 188.984 C 322.699 188.023,323.241 186.167,323.393 184.859 C 323.803 181.324,326.403 178.855,333.100 175.644 C 334.035 175.195,334.800 174.650,334.800 174.433 C 334.800 174.215,335.565 173.695,336.500 173.277 C 337.435 172.858,338.543 172.130,338.962 171.658 C 339.381 171.186,339.956 170.800,340.239 170.800 C 340.523 170.800,340.990 170.476,341.277 170.080 C 341.565 169.684,342.429 169.104,343.197 168.791 C 344.912 168.093,347.600 165.723,347.600 164.908 C 347.600 163.979,344.372 161.269,342.700 160.795 C 341.875 160.561,341.200 160.212,341.200 160.020 C 341.200 159.527,336.537 156.400,335.802 156.400 C 335.468 156.400,334.812 155.960,334.345 155.422 C 333.877 154.885,332.798 154.166,331.947 153.826 C 331.096 153.485,330.400 153.027,330.400 152.809 C 330.400 152.590,329.815 152.163,329.100 151.861 C 328.385 151.558,327.463 150.932,327.052 150.470 C 326.640 150.008,325.703 149.432,324.969 149.190 C 323.701 148.771,323.620 148.627,323.361 146.339 C 323.181 144.744,322.790 143.569,322.205 142.865 C 321.706 142.263,321.209 140.956,321.063 139.860 C 320.903 138.663,320.421 137.465,319.802 136.730 C 319.251 136.075,318.800 135.220,318.800 134.830 C 318.800 134.439,318.263 133.328,317.607 132.360 C 316.951 131.392,316.411 130.373,316.407 130.096 C 316.403 129.819,316.027 129.279,315.571 128.896 C 315.116 128.513,314.507 127.645,314.219 126.966 C 313.932 126.288,313.270 125.259,312.748 124.681 C 312.227 124.102,311.350 123.059,310.800 122.364 C 310.250 121.668,309.439 120.708,308.999 120.230 C 308.558 119.752,307.879 118.875,307.490 118.281 C 307.100 117.686,306.545 117.200,306.255 117.200 C 305.965 117.200,305.523 116.750,305.273 116.200 C 305.022 115.650,304.660 115.200,304.468 115.200 C 304.132 115.200,302.506 113.834,300.396 111.778 C 299.843 111.240,299.179 110.800,298.918 110.800 C 298.658 110.800,298.196 110.444,297.891 110.008 C 297.585 109.572,296.633 108.922,295.774 108.564 C 294.916 108.205,293.975 107.571,293.684 107.156 C 293.393 106.740,292.940 106.397,292.677 106.393 C 292.415 106.389,291.408 105.849,290.440 105.193 C 289.472 104.537,288.401 104.000,288.061 104.000 C 287.721 104.000,286.803 103.567,286.022 103.038 C 285.240 102.509,283.627 101.875,282.437 101.629 C 281.248 101.383,280.072 100.904,279.824 100.565 C 279.535 100.170,278.227 99.808,276.187 99.556 C 274.434 99.341,272.526 98.905,271.947 98.587 C 269.659 97.333,255.036 96.711,248.896 97.607 M265.800 99.393 C 266.900 99.695,269.150 100.057,270.800 100.199 C 273.862 100.462,279.807 102.169,283.400 103.817 C 284.500 104.322,285.850 104.864,286.400 105.022 C 286.950 105.181,287.816 105.635,288.325 106.032 C 288.834 106.429,289.877 106.962,290.644 107.215 C 291.411 107.468,292.472 108.108,293.001 108.637 C 293.530 109.167,294.197 109.607,294.482 109.616 C 294.767 109.625,295.623 110.165,296.385 110.816 C 297.147 111.467,297.950 112.000,298.170 112.000 C 298.390 112.000,299.027 112.452,299.585 113.004 C 300.143 113.557,302.445 115.782,304.700 117.949 C 306.955 120.116,308.800 122.084,308.800 122.322 C 308.800 122.560,309.131 122.990,309.537 123.277 C 309.942 123.565,310.508 124.250,310.795 124.800 C 311.082 125.350,311.786 126.378,312.359 127.085 C 314.532 129.767,315.095 130.643,315.556 132.052 C 315.817 132.850,316.380 133.820,316.807 134.207 C 317.235 134.593,317.701 135.529,317.843 136.286 C 317.985 137.043,318.464 138.001,318.907 138.414 C 319.380 138.854,319.847 140.004,320.034 141.189 C 320.210 142.301,320.715 143.719,321.156 144.339 C 321.598 144.959,322.105 146.337,322.284 147.402 C 322.625 149.437,323.934 150.751,327.627 152.764 C 328.411 153.192,329.289 153.825,329.576 154.171 C 329.863 154.517,330.329 154.800,330.611 154.800 C 330.893 154.800,331.878 155.430,332.800 156.200 C 333.722 156.970,334.701 157.600,334.976 157.600 C 335.251 157.600,335.802 157.960,336.200 158.400 C 336.598 158.840,337.121 159.200,337.362 159.200 C 337.603 159.201,338.340 159.666,339.000 160.235 C 339.660 160.804,340.781 161.513,341.492 161.811 C 342.202 162.109,343.280 162.813,343.888 163.376 C 344.495 163.939,345.164 164.400,345.374 164.400 C 346.090 164.400,343.006 167.260,341.694 167.813 C 340.976 168.116,340.282 168.642,340.152 168.982 C 340.021 169.322,339.709 169.600,339.457 169.601 C 338.965 169.602,334.798 172.296,333.266 173.603 C 332.752 174.041,332.116 174.400,331.853 174.400 C 331.327 174.400,328.174 176.338,324.915 178.665 C 323.570 179.625,322.763 180.518,322.642 181.177 C 322.538 181.740,322.337 182.920,322.193 183.800 C 322.050 184.680,321.616 185.940,321.228 186.600 C 320.840 187.260,320.294 188.875,320.013 190.188 C 319.733 191.501,319.262 192.944,318.967 193.394 C 318.672 193.845,318.157 194.987,317.824 195.933 C 317.490 196.878,316.853 198.115,316.409 198.680 C 315.964 199.245,315.600 200.019,315.600 200.399 C 315.600 200.779,315.056 201.775,314.391 202.611 C 313.726 203.448,313.076 204.553,312.948 205.066 C 312.819 205.580,312.557 206.000,312.367 206.000 C 312.176 206.000,311.718 206.585,311.348 207.300 C 310.712 208.532,309.636 210.018,307.077 213.200 C 304.894 215.914,303.957 217.011,302.921 218.064 C 302.104 218.894,301.768 219.815,301.389 222.264 C 301.122 223.989,300.708 226.660,300.469 228.200 C 300.230 229.740,299.854 232.440,299.634 234.200 C 299.413 235.960,298.881 238.300,298.452 239.400 C 298.022 240.500,297.477 242.698,297.239 244.284 C 297.002 245.870,296.447 247.760,296.006 248.484 C 295.564 249.208,295.202 250.178,295.201 250.640 C 295.201 251.103,294.759 252.311,294.220 253.325 C 293.681 254.339,293.043 255.899,292.802 256.792 C 292.562 257.686,291.923 259.068,291.382 259.864 C 290.842 260.660,290.400 261.622,290.400 262.002 C 290.400 262.382,290.051 263.136,289.623 263.679 C 289.196 264.222,288.547 265.417,288.180 266.333 C 287.813 267.250,287.346 268.000,287.142 268.000 C 286.938 268.000,286.415 268.765,285.980 269.700 C 285.251 271.263,284.157 272.963,282.569 275.000 C 282.226 275.440,281.247 276.790,280.393 278.000 C 279.539 279.210,278.463 280.650,278.000 281.200 C 277.538 281.750,277.010 282.446,276.827 282.748 C 276.322 283.578,264.706 295.200,264.381 295.200 C 264.225 295.200,263.200 296.055,262.104 297.100 C 261.008 298.145,259.501 299.315,258.756 299.700 C 258.010 300.085,256.590 301.027,255.600 301.794 C 254.610 302.560,252.945 303.643,251.900 304.200 C 250.855 304.758,250.000 305.376,250.000 305.576 C 250.000 305.775,249.325 306.155,248.500 306.420 C 247.675 306.684,246.730 307.123,246.400 307.394 C 245.639 308.019,239.044 311.200,238.509 311.200 C 238.288 311.200,237.612 311.590,237.005 312.067 C 236.399 312.545,235.021 313.074,233.943 313.245 C 232.866 313.415,231.518 313.921,230.948 314.369 C 230.379 314.817,229.020 315.302,227.930 315.447 C 224.686 315.877,224.800 315.430,224.800 327.773 C 224.800 333.776,224.686 339.523,224.546 340.544 L 224.291 342.400 214.595 342.400 C 202.535 342.400,203.854 343.748,203.600 331.159 C 203.451 323.785,203.267 321.105,202.881 320.719 C 202.506 320.344,200.010 320.129,193.881 319.944 C 189.217 319.804,184.794 319.495,184.052 319.259 C 179.931 317.943,179.600 319.248,179.600 336.807 C 179.600 347.153,179.461 351.867,179.136 352.581 L 178.672 353.600 169.375 353.600 L 160.078 353.600 159.639 352.340 C 159.345 351.495,159.200 344.948,159.200 332.459 L 159.200 313.838 157.922 312.519 C 157.218 311.794,156.474 311.200,156.267 311.200 C 155.749 311.200,149.141 308.003,148.400 307.394 C 148.070 307.123,147.147 306.692,146.348 306.436 C 145.550 306.179,144.592 305.633,144.219 305.221 C 143.846 304.809,143.070 304.354,142.495 304.209 C 141.920 304.065,140.852 303.464,140.122 302.873 C 139.392 302.283,138.187 301.305,137.445 300.700 C 136.702 300.095,135.903 299.600,135.670 299.600 C 135.436 299.600,135.010 299.269,134.723 298.863 C 134.435 298.458,133.809 297.920,133.331 297.666 C 132.853 297.413,132.223 296.967,131.931 296.675 C 131.639 296.383,129.780 294.715,127.800 292.967 C 124.351 289.923,119.949 285.373,117.400 282.218 C 116.740 281.401,115.799 280.293,115.309 279.757 C 114.819 279.221,114.206 278.381,113.946 277.891 C 113.686 277.401,113.142 276.765,112.737 276.477 C 112.331 276.190,112.000 275.701,112.000 275.391 C 112.000 275.081,111.493 274.237,110.873 273.514 C 110.253 272.791,109.511 271.615,109.224 270.900 C 108.937 270.185,108.567 269.600,108.400 269.600 C 108.233 269.600,107.863 269.036,107.578 268.347 C 107.292 267.658,106.675 266.623,106.205 266.047 C 105.736 265.471,105.128 264.225,104.853 263.279 C 104.579 262.332,104.097 261.459,103.782 261.338 C 103.467 261.217,103.016 260.371,102.780 259.459 C 102.544 258.546,101.997 257.305,101.563 256.700 C 101.130 256.095,100.628 254.810,100.448 253.844 C 100.267 252.878,99.752 251.483,99.302 250.744 C 98.853 250.005,98.356 248.590,98.199 247.600 C 97.873 245.538,95.993 241.433,94.821 240.221 C 94.384 239.769,93.192 238.564,92.171 237.543 C 91.150 236.521,90.163 235.531,89.977 235.343 C 89.792 235.154,89.280 234.640,88.840 234.200 C 88.400 233.760,87.867 233.220,87.656 233.000 C 80.618 225.676,67.992 212.450,66.200 210.524 C 64.880 209.106,59.660 203.753,54.600 198.629 C 38.553 182.378,39.554 184.113,43.921 180.133 C 45.570 178.630,48.403 175.915,50.216 174.100 C 52.029 172.285,53.653 170.800,53.825 170.800 C 53.996 170.800,54.452 170.515,54.836 170.167 C 55.475 169.589,55.605 169.598,56.360 170.267 C 58.310 172.000,60.413 174.093,60.695 174.583 C 61.123 175.325,69.353 184.019,77.321 192.145 C 81.018 195.915,89.568 204.651,96.321 211.557 C 103.075 218.463,110.110 225.626,111.955 227.474 L 115.310 230.835 115.598 233.778 C 115.776 235.602,116.196 237.230,116.701 238.061 C 117.149 238.797,117.641 240.342,117.795 241.492 C 117.948 242.643,118.392 243.993,118.782 244.492 C 119.172 244.992,119.791 246.435,120.157 247.700 C 120.523 248.965,120.992 250.000,121.200 250.000 C 121.408 250.000,121.869 251.002,122.225 252.226 C 122.581 253.451,123.117 254.547,123.416 254.661 C 123.714 254.776,124.252 255.753,124.611 256.833 C 124.969 257.912,125.494 258.931,125.777 259.098 C 126.060 259.264,126.591 259.985,126.956 260.700 C 127.322 261.415,127.787 262.000,127.992 262.000 C 128.196 262.000,128.721 262.810,129.159 263.800 C 129.597 264.790,130.141 265.600,130.367 265.600 C 130.594 265.600,131.045 266.095,131.369 266.700 C 131.910 267.710,132.987 268.943,137.742 274.000 C 138.673 274.990,140.393 276.610,141.563 277.600 C 142.734 278.590,144.257 279.898,144.946 280.508 C 146.134 281.557,149.164 283.812,151.800 285.608 C 155.268 287.971,156.661 288.786,157.240 288.793 C 157.592 288.797,158.672 289.337,159.640 289.993 C 160.608 290.649,161.691 291.189,162.046 291.193 C 162.401 291.197,163.165 291.572,163.742 292.026 C 164.319 292.480,165.919 293.134,167.296 293.479 C 168.673 293.823,170.430 294.421,171.200 294.805 C 171.970 295.190,173.590 295.638,174.800 295.801 C 176.010 295.964,177.900 296.454,179.000 296.891 C 184.582 299.107,212.124 299.184,215.468 296.992 C 215.970 296.664,217.756 296.203,219.437 295.970 C 222.471 295.548,223.276 295.299,225.200 294.189 C 225.750 293.871,226.617 293.609,227.126 293.606 C 228.212 293.599,229.673 292.897,230.100 292.177 C 230.265 291.898,231.115 291.550,231.988 291.402 C 232.862 291.254,233.987 290.814,234.488 290.424 C 234.990 290.034,236.210 289.322,237.200 288.841 C 238.855 288.038,240.482 287.118,243.989 285.000 C 244.718 284.560,246.324 283.389,247.557 282.397 C 248.791 281.406,250.476 280.091,251.302 279.475 C 254.427 277.147,262.750 268.406,264.368 265.752 C 264.754 265.118,265.370 264.353,265.735 264.051 C 266.101 263.749,266.400 263.325,266.400 263.109 C 266.400 262.892,266.805 262.217,267.300 261.608 C 267.795 260.999,268.560 259.908,269.000 259.182 C 271.071 255.770,272.013 254.090,272.578 252.800 C 272.916 252.030,273.644 250.545,274.196 249.500 C 274.748 248.455,275.200 247.315,275.200 246.967 C 275.200 246.619,275.719 245.134,276.352 243.667 C 276.986 242.200,277.632 240.286,277.787 239.414 C 277.942 238.541,278.343 237.296,278.679 236.647 C 279.494 235.071,281.234 222.339,281.555 215.600 L 281.812 210.200 285.157 206.800 C 286.997 204.930,288.974 202.696,289.551 201.836 C 291.479 198.962,291.796 198.504,292.515 197.549 C 294.093 195.453,295.190 193.719,295.931 192.152 C 296.359 191.245,296.905 190.382,297.144 190.235 C 297.383 190.087,297.777 189.228,298.020 188.325 C 298.263 187.422,298.794 186.215,299.199 185.642 C 299.604 185.069,300.138 183.612,300.384 182.405 C 300.631 181.198,301.121 179.769,301.475 179.230 C 303.713 175.813,303.804 155.045,301.596 151.303 C 301.152 150.551,300.601 149.095,300.370 148.068 C 300.140 147.041,299.625 145.840,299.225 145.400 C 298.826 144.960,298.283 143.926,298.019 143.103 C 297.756 142.280,297.319 141.470,297.049 141.303 C 296.779 141.136,296.208 140.438,295.779 139.750 C 293.696 136.409,292.665 135.149,289.945 132.617 C 288.325 131.109,286.415 129.526,285.700 129.099 C 284.985 128.671,284.400 128.161,284.400 127.966 C 284.400 127.771,283.815 127.366,283.100 127.067 C 282.385 126.768,281.551 126.224,281.248 125.858 C 280.944 125.492,279.744 124.915,278.581 124.577 C 277.418 124.239,276.258 123.711,276.003 123.403 C 275.747 123.096,274.517 122.638,273.269 122.385 C 272.021 122.133,270.591 121.666,270.090 121.348 C 267.673 119.809,251.535 119.545,248.200 120.989 C 247.320 121.370,245.571 121.930,244.313 122.233 C 243.055 122.537,241.347 123.148,240.519 123.592 C 239.690 124.037,238.823 124.400,238.592 124.400 C 238.092 124.400,234.659 126.547,231.600 128.773 C 227.308 131.897,221.016 138.858,220.094 141.503 C 219.849 142.207,219.277 143.180,218.824 143.666 C 218.371 144.153,218.000 144.760,218.000 145.016 C 218.000 145.272,217.553 146.321,217.007 147.349 C 216.461 148.376,215.736 150.416,215.396 151.881 C 215.056 153.346,214.601 154.758,214.384 155.019 C 212.975 156.718,213.149 172.330,214.603 174.549 C 214.920 175.032,215.353 176.655,215.565 178.155 C 215.778 179.656,216.233 181.195,216.578 181.575 C 216.922 181.956,217.474 183.178,217.805 184.292 C 218.136 185.406,218.665 186.416,218.982 186.538 C 219.299 186.659,219.746 187.458,219.977 188.313 C 220.388 189.840,221.182 191.017,223.228 193.136 C 223.794 193.721,224.424 194.494,224.628 194.854 C 224.833 195.214,226.350 196.626,228.000 197.993 C 229.650 199.360,231.480 200.955,232.067 201.539 C 233.745 203.207,235.248 204.191,237.268 204.945 C 238.296 205.328,239.344 205.891,239.596 206.195 C 239.849 206.500,240.568 206.861,241.194 206.999 C 242.767 207.344,242.914 208.067,241.826 210.113 C 241.312 211.078,240.767 212.663,240.613 213.634 C 240.459 214.605,239.898 216.252,239.367 217.293 C 238.835 218.334,238.400 219.575,238.400 220.051 C 238.400 221.013,235.732 226.800,235.289 226.800 C 234.850 226.800,229.072 223.936,228.400 223.386 C 228.070 223.116,227.350 222.758,226.800 222.591 C 226.250 222.424,225.174 221.772,224.409 221.143 C 223.644 220.515,222.804 220.000,222.543 220.000 C 222.282 220.000,221.648 219.633,221.134 219.184 C 220.620 218.735,219.587 217.970,218.837 217.484 C 218.088 216.998,216.811 216.150,216.000 215.600 C 215.189 215.050,213.912 214.202,213.163 213.716 C 212.413 213.230,211.430 212.510,210.978 212.116 C 210.526 211.722,209.120 210.770,207.853 210.000 C 206.586 209.230,204.906 208.105,204.120 207.500 C 203.333 206.895,202.400 206.397,202.045 206.393 C 201.690 206.389,200.608 205.849,199.640 205.193 C 198.672 204.537,197.582 204.000,197.218 204.000 C 196.853 204.000,195.945 203.550,195.200 203.000 C 194.455 202.450,193.456 202.000,192.982 202.000 C 192.507 202.000,191.278 201.553,190.250 201.006 C 189.222 200.460,187.237 199.830,185.840 199.606 C 184.442 199.383,182.601 198.885,181.749 198.500 C 179.517 197.491,163.311 197.483,160.000 198.490 C 158.790 198.857,156.202 199.356,154.250 199.597 C 152.297 199.838,150.039 200.372,149.231 200.784 C 148.424 201.196,147.051 201.658,146.181 201.811 C 145.312 201.964,144.045 202.405,143.367 202.791 C 142.690 203.177,141.430 203.720,140.567 203.996 C 139.705 204.272,138.640 204.814,138.200 205.200 C 137.760 205.586,136.680 206.130,135.800 206.409 C 134.920 206.688,133.714 207.295,133.119 207.758 C 132.525 208.221,131.196 209.230,130.166 210.000 C 129.137 210.770,127.311 212.300,126.108 213.400 C 124.906 214.500,123.625 215.563,123.261 215.763 C 122.898 215.963,121.855 216.905,120.945 217.858 L 119.289 219.590 117.909 218.295 C 116.064 216.565,109.600 208.864,109.600 208.397 C 109.600 208.193,109.015 207.399,108.300 206.632 C 107.585 205.864,106.599 204.733,106.109 204.118 C 105.619 203.503,104.719 202.413,104.109 201.695 C 103.499 200.977,102.460 199.665,101.800 198.779 C 101.140 197.893,99.916 196.320,99.080 195.284 C 98.244 194.248,97.164 192.906,96.680 192.302 C 96.196 191.698,95.305 190.657,94.700 189.988 C 94.095 189.320,93.600 188.606,93.600 188.403 C 93.600 188.200,91.614 185.688,89.187 182.821 C 86.760 179.953,84.423 176.787,83.994 175.786 L 83.213 173.964 84.566 172.776 C 85.311 172.122,86.973 170.780,88.260 169.794 C 89.547 168.808,91.050 167.635,91.600 167.187 C 99.338 160.892,98.675 161.182,100.440 163.314 C 101.188 164.218,102.295 165.444,102.900 166.039 C 103.505 166.634,104.000 167.289,104.000 167.494 C 104.000 167.700,104.540 168.349,105.200 168.937 C 105.860 169.525,106.400 170.235,106.400 170.514 C 106.400 170.793,106.895 171.589,107.500 172.282 C 108.593 173.534,110.202 175.460,111.875 177.522 C 112.357 178.115,113.276 179.230,113.917 180.000 C 114.558 180.770,115.316 181.850,115.601 182.400 C 116.129 183.419,116.630 184.027,118.784 186.260 C 119.453 186.954,120.000 187.691,120.000 187.898 C 120.000 188.448,121.215 189.395,122.645 189.960 C 123.909 190.459,125.620 189.731,127.600 187.850 C 127.930 187.536,128.936 187.083,129.836 186.842 C 130.737 186.601,131.789 186.054,132.176 185.626 C 132.563 185.199,133.740 184.665,134.791 184.439 C 135.842 184.214,137.561 183.573,138.611 183.015 C 139.660 182.457,140.828 182.000,141.206 182.000 C 141.583 182.000,142.333 181.653,142.872 181.229 C 143.500 180.735,145.062 180.294,147.226 180.000 C 149.082 179.748,151.410 179.180,152.400 178.740 C 154.609 177.756,169.951 176.634,176.000 177.013 C 184.106 177.522,187.972 178.033,189.785 178.834 C 193.421 180.443,193.867 179.554,193.187 172.056 C 192.491 164.392,193.269 151.712,194.633 148.470 C 194.973 147.661,195.415 146.143,195.616 145.095 C 195.817 144.048,196.435 142.230,196.991 141.057 C 197.546 139.883,198.000 138.650,198.000 138.317 C 198.000 137.984,198.428 137.081,198.951 136.310 C 199.474 135.539,200.113 134.269,200.371 133.486 C 200.630 132.704,201.115 131.837,201.450 131.559 C 201.785 131.281,202.413 130.411,202.845 129.627 C 205.686 124.476,214.123 115.614,221.000 110.558 C 223.377 108.810,224.683 107.970,225.400 107.727 C 225.840 107.578,227.328 106.859,228.706 106.128 C 230.084 105.398,231.455 104.800,231.752 104.800 C 232.049 104.800,232.761 104.432,233.333 103.981 C 233.906 103.531,235.655 102.895,237.220 102.569 C 238.785 102.243,240.478 101.705,240.982 101.375 C 241.487 101.044,243.947 100.513,246.450 100.193 C 248.952 99.873,251.720 99.431,252.600 99.210 C 255.869 98.389,262.471 98.480,265.800 99.393 M263.595 141.737 C 263.488 141.844,261.960 142.130,260.200 142.373 C 256.003 142.953,250.121 147.069,249.403 149.929 C 249.263 150.489,248.726 151.447,248.211 152.060 C 246.352 154.269,246.455 164.619,248.361 167.041 C 248.822 167.628,249.200 168.358,249.200 168.663 C 249.200 169.123,251.968 172.053,254.400 174.168 C 255.295 174.945,256.444 175.458,257.923 175.738 C 258.651 175.876,259.519 176.262,259.852 176.595 C 260.221 176.964,261.266 177.218,262.529 177.246 C 265.444 177.311,266.075 177.215,267.118 176.546 C 267.623 176.223,268.966 175.848,270.102 175.713 C 271.478 175.550,272.469 175.167,273.071 174.565 C 273.568 174.069,274.326 173.550,274.756 173.414 C 275.448 173.194,276.556 172.054,279.175 168.869 C 279.596 168.358,280.064 167.203,280.216 166.303 C 280.368 165.403,280.831 164.112,281.245 163.433 C 282.314 161.680,282.297 156.860,281.215 154.854 C 280.784 154.055,280.237 152.635,280.000 151.700 C 279.763 150.765,279.390 150.000,279.171 150.000 C 278.952 150.000,278.406 149.378,277.957 148.618 C 277.509 147.857,276.795 147.125,276.371 146.991 C 275.947 146.856,275.600 146.479,275.600 146.153 C 275.600 145.826,275.015 145.297,274.300 144.976 C 273.585 144.655,272.550 144.042,272.000 143.613 C 271.446 143.181,269.840 142.658,268.400 142.440 C 266.970 142.224,265.348 141.933,264.795 141.795 C 264.242 141.656,263.702 141.630,263.595 141.737 M269.878 144.489 C 270.297 144.869,271.351 145.432,272.220 145.741 C 273.752 146.285,276.800 148.786,276.800 149.498 C 276.800 149.691,277.136 150.209,277.546 150.650 C 280.434 153.750,280.569 163.508,277.781 167.694 C 276.286 169.939,273.964 172.400,273.342 172.400 C 273.069 172.400,272.582 172.776,272.260 173.236 C 271.383 174.487,265.301 175.331,261.010 174.797 C 259.256 174.579,257.784 174.400,257.739 174.400 C 257.694 174.400,257.419 174.168,257.129 173.885 C 256.838 173.602,255.911 172.948,255.069 172.433 C 253.148 171.258,250.900 168.967,250.573 167.850 C 250.436 167.383,249.775 165.854,249.106 164.453 C 245.783 157.505,249.990 148.528,258.600 144.193 C 260.378 143.298,268.806 143.520,269.878 144.489 M158.600 215.855 C 157.940 216.212,156.950 216.749,156.400 217.049 C 155.850 217.350,155.020 217.596,154.556 217.598 C 154.092 217.599,153.062 218.041,152.268 218.580 C 151.474 219.118,150.188 219.679,149.409 219.825 C 148.630 219.971,147.551 220.438,147.012 220.862 C 146.472 221.287,145.145 221.897,144.063 222.218 C 141.831 222.881,141.411 223.281,141.073 225.065 C 140.911 225.923,141.021 226.485,141.415 226.813 C 141.735 227.078,142.200 227.974,142.449 228.805 C 142.697 229.635,143.328 230.812,143.850 231.419 C 144.373 232.027,144.800 232.775,144.800 233.081 C 144.800 233.388,145.223 234.035,145.741 234.519 C 146.258 235.004,146.897 236.060,147.161 236.867 C 147.425 237.674,148.081 238.623,148.620 238.976 C 149.159 239.330,149.600 239.810,149.600 240.045 C 149.600 240.534,159.365 250.400,159.850 250.400 C 160.026 250.400,160.627 250.861,161.185 251.424 C 163.015 253.271,165.662 255.200,166.366 255.200 C 166.745 255.200,167.443 255.645,167.916 256.189 C 168.389 256.734,169.277 257.297,169.888 257.442 C 170.500 257.587,171.360 258.019,171.800 258.403 C 172.240 258.787,173.320 259.332,174.200 259.614 C 175.080 259.896,176.256 260.463,176.813 260.874 C 177.370 261.286,178.540 261.730,179.413 261.863 C 180.286 261.995,181.540 262.425,182.200 262.817 C 183.442 263.556,187.252 264.400,189.342 264.400 C 189.999 264.400,190.821 264.655,191.169 264.967 C 191.927 265.647,200.897 266.496,202.180 266.008 C 204.123 265.269,204.192 264.898,204.331 254.362 L 204.461 244.445 202.996 243.023 C 201.958 242.014,201.163 241.596,200.266 241.586 C 199.570 241.578,197.920 241.311,196.600 240.992 C 195.280 240.673,193.189 240.410,191.954 240.406 C 190.280 240.402,189.434 240.185,188.633 239.555 C 188.042 239.090,186.760 238.469,185.785 238.175 C 184.809 237.882,183.615 237.272,183.130 236.821 C 182.646 236.369,181.929 236.000,181.538 236.000 C 181.148 236.000,180.237 235.487,179.514 234.860 C 178.791 234.233,177.738 233.468,177.174 233.160 C 174.670 231.792,173.217 230.685,172.991 229.971 C 172.856 229.547,172.495 229.200,172.187 229.200 C 171.880 229.200,171.420 228.795,171.166 228.300 C 170.912 227.805,170.371 227.040,169.963 226.600 C 168.108 224.599,166.884 222.920,166.609 222.000 C 166.445 221.450,165.893 220.550,165.384 220.000 C 164.874 219.450,164.338 218.518,164.193 217.929 C 163.649 215.730,160.791 214.670,158.600 215.855 M161.969 217.836 C 162.646 218.405,163.200 219.111,163.200 219.405 C 163.200 219.698,163.625 220.447,164.145 221.069 C 164.665 221.691,165.220 222.614,165.379 223.120 C 165.537 223.627,166.147 224.573,166.733 225.223 C 167.320 225.872,168.250 226.962,168.800 227.643 C 169.350 228.325,170.106 229.179,170.480 229.541 C 171.393 230.426,172.070 231.104,172.852 231.920 C 174.188 233.312,177.684 235.748,179.847 236.794 C 180.753 237.232,181.716 237.858,181.987 238.185 C 182.259 238.511,183.082 238.892,183.817 239.030 C 184.552 239.167,185.739 239.712,186.454 240.240 C 187.170 240.768,188.125 241.202,188.578 241.205 C 189.030 241.208,190.802 241.658,192.515 242.205 C 194.565 242.860,196.556 243.200,198.335 243.200 C 199.906 243.200,201.241 243.401,201.520 243.680 C 202.311 244.471,202.191 262.943,201.391 263.608 C 200.340 264.479,188.059 263.364,186.285 262.236 C 185.798 261.926,184.320 261.471,183.000 261.224 C 181.680 260.976,179.700 260.347,178.600 259.825 C 177.500 259.303,175.970 258.590,175.200 258.241 C 174.430 257.891,173.530 257.428,173.200 257.212 C 172.870 256.996,171.970 256.533,171.200 256.182 C 168.163 254.800,166.416 253.723,164.353 251.962 C 163.169 250.951,161.785 249.905,161.278 249.636 C 160.321 249.130,150.803 239.703,150.796 239.255 C 150.794 239.115,150.164 238.210,149.396 237.244 C 148.628 236.278,148.000 235.274,148.000 235.013 C 148.000 234.753,147.565 234.131,147.034 233.632 C 146.502 233.133,145.951 232.258,145.808 231.689 C 145.665 231.120,145.132 230.160,144.624 229.555 C 142.467 226.993,142.981 223.902,145.682 223.184 C 146.627 222.932,147.940 222.400,148.600 222.000 C 149.260 221.600,150.610 221.061,151.600 220.801 C 152.590 220.541,153.760 220.004,154.200 219.607 C 154.640 219.211,155.900 218.700,157.000 218.471 C 158.100 218.243,159.179 217.773,159.398 217.428 C 159.956 216.547,160.550 216.642,161.969 217.836 " stroke="none" fill="#bb859d" fill-rule="evenodd"></path></g></svg>